<?xml version="1.0" encoding="UTF-8" standalone="no"?>
<svg width="60px" height="60px" viewBox="0 0 60 60" version="1.1" xmlns="http://www.w3.org/2000/svg" xmlns:xlink="http://www.w3.org/1999/xlink" xmlns:sketch="http://www.bohemiancoding.com/sketch/ns">
    <!-- Generator: Sketch 3.2.2 (9983) - http://www.bohemiancoding.com/sketch -->
    <title>Settingsstar</title>
    <desc>Created with Sketch.</desc>
    <defs></defs>
    <g id="colored" stroke="none" stroke-width="1" fill="none" fill-rule="evenodd" sketch:type="MSPage">
        <g id="Interface" sketch:type="MSLayerGroup" transform="translate(-237.000000, 5.000000)" stroke="#314E55" stroke-width="2" stroke-linecap="round" stroke-linejoin="round">
            <g id="Settingsstar" transform="translate(243.000000, 4.000000)" sketch:type="MSShapeGroup">
                <polygon id="Star-55" fill="#DBCF56" points="5 7.5 2.06107374 9.04508497 2.62235871 5.77254249 0.244717419 3.45491503 3.53053687 2.97745751 5 0 6.46946313 2.97745751 9.75528258 3.45491503 7.37764129 5.77254249 7.93892626 9.04508497 "></polygon>
                <polygon id="Star-55" fill="#DBCF56" points="5 23.5 2.06107374 25.045085 2.62235871 21.7725425 0.244717419 19.454915 3.53053687 18.9774575 5 16 6.46946313 18.9774575 9.75528258 19.454915 7.37764129 21.7725425 7.93892626 25.045085 "></polygon>
                <polygon id="Star-55" fill="#DBCF56" points="5 39.5 2.06107374 41.045085 2.62235871 37.7725425 0.244717419 35.454915 3.53053687 34.9774575 5 32 6.46946313 34.9774575 9.75528258 35.454915 7.37764129 37.7725425 7.93892626 41.045085 "></polygon>
                <path d="M15,5 L47.2008507,5" id="Line-396"></path>
                <path d="M15,21 L47.2008507,21" id="Line-396"></path>
                <path d="M15,37 L47.2008507,37" id="Line-396"></path>
            </g>
        </g>
        <g id="Interface_sliced" sketch:type="MSLayerGroup" transform="translate(-240.000000, 0.000000)"></g>
    </g>
</svg>