<?xml version="1.0" encoding="UTF-8" standalone="no"?>
<svg width="60px" height="60px" viewBox="0 0 60 60" version="1.1" xmlns="http://www.w3.org/2000/svg" xmlns:xlink="http://www.w3.org/1999/xlink" xmlns:sketch="http://www.bohemiancoding.com/sketch/ns">
    <!-- Generator: Sketch 3.2.2 (9983) - http://www.bohemiancoding.com/sketch -->
    <title>Snudge</title>
    <desc>Created with Sketch.</desc>
    <defs></defs>
    <g id="colored" stroke="none" stroke-width="1" fill="none" fill-rule="evenodd" sketch:type="MSPage">
        <g id="Interface" sketch:type="MSLayerGroup" transform="translate(3.000000, -1195.000000)" stroke="#314E55" stroke-width="2" stroke-linejoin="round">
            <g id="Snudge" transform="translate(1.000000, 1199.000000)" sketch:type="MSShapeGroup">
                <rect id="Rectangle-2295" stroke-linecap="round" fill="#F28544" x="10" y="11" width="32" height="32"></rect>
                <path d="M42,11 L42,0.950124383" id="Line" stroke-linecap="square"></path>
                <path d="M34,53 L34,42.9501244" id="Line" stroke-linecap="square"></path>
                <path d="M34,11 L34,0.950124383" id="Line" stroke-linecap="square"></path>
                <path d="M26,53 L26,42.9501244" id="Line" stroke-linecap="square"></path>
                <path d="M26,11 L26,0.950124383" id="Line" stroke-linecap="square"></path>
                <path d="M18,53 L18,42.9501244" id="Line" stroke-linecap="square"></path>
                <path d="M18,11 L18,0.950124383" id="Line" stroke-linecap="square"></path>
                <path d="M10,53 L10,42.9501244" id="Line" stroke-linecap="square"></path>
                <path d="M42,43 L52,43" id="Line" stroke-linecap="square"></path>
                <path d="M0,35 L10,35" id="Line" stroke-linecap="square"></path>
                <path d="M42,35 L52,35" id="Line" stroke-linecap="square"></path>
                <path d="M0,27 L10,27" id="Line" stroke-linecap="square"></path>
                <path d="M42,27 L52,27" id="Line" stroke-linecap="square"></path>
                <path d="M0,19 L10,19" id="Line" stroke-linecap="square"></path>
                <path d="M42,19 L52,19" id="Line" stroke-linecap="square"></path>
                <path d="M0,11 L10,11" id="Line" stroke-linecap="square"></path>
            </g>
        </g>
        <g id="Interface_sliced" sketch:type="MSLayerGroup" transform="translate(0.000000, -1200.000000)"></g>
    </g>
</svg>