<?xml version="1.0" encoding="UTF-8" standalone="no"?>
<svg width="60px" height="60px" viewBox="0 0 60 60" version="1.1" xmlns="http://www.w3.org/2000/svg" xmlns:xlink="http://www.w3.org/1999/xlink" xmlns:sketch="http://www.bohemiancoding.com/sketch/ns">
    <!-- Generator: Sketch 3.2.2 (9983) - http://www.bohemiancoding.com/sketch -->
    <title>Switchers</title>
    <desc>Created with Sketch.</desc>
    <defs></defs>
    <g id="colored" stroke="none" stroke-width="1" fill="none" fill-rule="evenodd" sketch:type="MSPage">
        <g id="Interface" sketch:type="MSLayerGroup" transform="translate(-597.000000, -835.000000)" stroke="#314E55" stroke-width="2" stroke-linecap="round" stroke-linejoin="round">
            <g id="Switchers" transform="translate(601.000000, 843.000000)" sketch:type="MSShapeGroup">
                <path d="M9.99807492,0.0243101295 L40.0019251,0.0243101295 C45.5237094,0.0243101295 50,4.50024831 50,10.0243101 L50,10.0243101 C50,15.5471576 45.5188309,20.0243101 40.0019251,20.0243101 L9.99807492,20.0243101" id="Rectangle-2279" fill="#EAEAEA"></path>
                <circle id="Oval-1772" fill="#D8D8D8" cx="10" cy="10.0243101" r="10"></circle>
                <circle id="Oval-1773" fill="#5ECB66" cx="10" cy="10.0243101" r="5"></circle>
                <path d="M9.99807492,25.0243101 L40.0019251,25.0243101 C45.5237094,25.0243101 50,29.5002483 50,35.0243101 L50,35.0243101 C50,40.5471576 45.5188309,45.0243101 40.0019251,45.0243101 L9.99807492,45.0243101" id="Rectangle-2279" fill="#EAEAEA" transform="translate(25.000000, 35.024310) scale(-1, 1) translate(-25.000000, -35.024310) "></path>
                <circle id="Oval-1772" fill="#D8D8D8" transform="translate(40.000000, 35.024310) scale(-1, 1) translate(-40.000000, -35.024310) " cx="40" cy="35.0243101" r="10"></circle>
                <circle id="Oval-1773" fill="#E65F58" transform="translate(40.000000, 35.024310) scale(-1, 1) translate(-40.000000, -35.024310) " cx="40" cy="35.0243101" r="5"></circle>
            </g>
        </g>
        <g id="Interface_sliced" sketch:type="MSLayerGroup" transform="translate(-600.000000, -840.000000)"></g>
    </g>
</svg>