<?xml version="1.0" encoding="UTF-8" standalone="no"?>
<svg width="60px" height="60px" viewBox="0 0 60 60" version="1.1" xmlns="http://www.w3.org/2000/svg" xmlns:xlink="http://www.w3.org/1999/xlink" xmlns:sketch="http://www.bohemiancoding.com/sketch/ns">
    <!-- Generator: Sketch 3.2.2 (9983) - http://www.bohemiancoding.com/sketch -->
    <title>Zoomin</title>
    <desc>Created with Sketch.</desc>
    <defs></defs>
    <g id="colored" stroke="none" stroke-width="1" fill="none" fill-rule="evenodd" sketch:type="MSPage">
        <g id="Interface" sketch:type="MSLayerGroup" transform="translate(-597.000000, -955.000000)" stroke="#314E55" stroke-width="2" stroke-linecap="round" stroke-linejoin="round">
            <g id="Zoomin" transform="translate(604.000000, 962.000000)" sketch:type="MSShapeGroup">
                <path d="M0,0 L12,0 L12,12" id="Rectangle-2292" transform="translate(6.000000, 6.000000) rotate(-90.000000) translate(-6.000000, -6.000000) "></path>
                <path d="M0,34 L12,34 L12,46" id="Rectangle-2292" transform="translate(6.000000, 40.000000) scale(1, -1) rotate(-90.000000) translate(-6.000000, -40.000000) "></path>
                <path d="M34,0 L46,0 L46,12" id="Rectangle-2292" transform="translate(40.000000, 6.000000) scale(-1, 1) rotate(-90.000000) translate(-40.000000, -6.000000) "></path>
                <path d="M34,34 L46,34 L46,46" id="Rectangle-2292" transform="translate(40.000000, 40.000000) scale(-1, -1) rotate(-90.000000) translate(-40.000000, -40.000000) "></path>
                <path d="M1,1 L16.5080624,16.5080624" id="Line"></path>
                <path d="M29,29 L44.5080624,44.5080624" id="Line"></path>
                <path d="M29,1 L44.5080624,16.5080624" id="Line" transform="translate(37.000000, 9.000000) scale(-1, 1) translate(-37.000000, -9.000000) "></path>
                <path d="M1,29 L16.5080624,44.5080624" id="Line" transform="translate(9.000000, 37.000000) scale(-1, 1) translate(-9.000000, -37.000000) "></path>
                <circle id="Oval-1786" fill="#5ECB66" cx="22.5" cy="22.5" r="5.5"></circle>
            </g>
        </g>
        <g id="Interface_sliced" sketch:type="MSLayerGroup" transform="translate(-600.000000, -960.000000)"></g>
    </g>
</svg>