<svg width="1000" height="999" viewBox="0 0 1000 999" fill="none" xmlns="http://www.w3.org/2000/svg">
<rect width="1000" height="998.567" fill="#1A3ACC"/>
<path fill-rule="evenodd" clip-rule="evenodd" d="M686.776 378.861C684.959 409.357 661.258 433.961 631.161 437.185C661.18 440.401 684.835 464.884 686.761 495.27C688.578 464.774 712.278 440.17 742.375 436.946C712.357 433.731 688.702 409.247 686.776 378.861ZM686.768 500.356C721.261 500.356 749.223 472.394 749.223 437.901C749.223 403.407 721.261 375.445 686.768 375.445C652.275 375.445 624.313 403.407 624.313 437.901C624.313 472.394 652.275 500.356 686.768 500.356Z" fill="#648476"/>
<path fill-rule="evenodd" clip-rule="evenodd" d="M686.776 253.95C684.959 284.447 661.258 309.051 631.161 312.275C661.18 315.49 684.835 339.974 686.761 370.36C688.578 339.863 712.278 315.26 742.375 312.036C712.357 308.82 688.702 284.336 686.776 253.95ZM686.768 375.446C721.261 375.446 749.223 347.483 749.223 312.99C749.223 278.497 721.261 250.535 686.768 250.535C652.275 250.535 624.313 278.497 624.313 312.99C624.313 347.483 652.275 375.446 686.768 375.446Z" fill="#648476"/>
<path fill-rule="evenodd" clip-rule="evenodd" d="M686.776 503.771C684.959 534.268 661.258 558.871 631.161 562.095C661.18 565.311 684.835 589.795 686.761 620.181C688.578 589.684 712.278 565.081 742.375 561.857C712.357 558.641 688.702 534.157 686.776 503.771ZM686.768 625.266C721.261 625.266 749.223 597.304 749.223 562.811C749.223 528.318 721.261 500.355 686.768 500.355C652.275 500.355 624.313 528.318 624.313 562.811C624.313 597.304 652.275 625.266 686.768 625.266Z" fill="#648476"/>
<path fill-rule="evenodd" clip-rule="evenodd" d="M686.776 627.969C684.959 658.466 661.258 683.069 631.161 686.293C661.18 689.509 684.835 713.993 686.761 744.379C688.578 713.882 712.278 689.278 742.375 686.054C712.357 682.839 688.702 658.355 686.776 627.969ZM686.768 749.465C721.261 749.465 749.223 721.503 749.223 687.01C749.223 652.517 721.261 624.555 686.768 624.555C652.275 624.555 624.313 652.517 624.313 687.01C624.313 721.503 652.275 749.465 686.768 749.465Z" fill="#648476"/>
<path fill-rule="evenodd" clip-rule="evenodd" d="M624.201 691.495C622.384 721.992 598.684 746.595 568.587 749.819C598.605 753.035 622.26 777.519 624.186 807.905C626.004 777.408 649.704 752.805 679.801 749.581C649.782 746.365 626.127 721.881 624.201 691.495ZM624.194 812.992C658.687 812.992 686.649 785.03 686.649 750.537C686.649 716.044 658.687 688.082 624.194 688.082C589.701 688.082 561.739 716.044 561.739 750.537C561.739 785.03 589.701 812.992 624.194 812.992Z" fill="#648476"/>
<path fill-rule="evenodd" clip-rule="evenodd" d="M499.291 691.495C497.474 721.992 473.773 746.595 443.676 749.819C473.695 753.035 497.35 777.519 499.276 807.905C501.093 777.408 524.793 752.805 554.89 749.581C524.872 746.365 501.217 721.881 499.291 691.495ZM499.283 812.992C533.776 812.992 561.739 785.03 561.739 750.537C561.739 716.044 533.776 688.082 499.283 688.082C464.79 688.082 436.828 716.044 436.828 750.537C436.828 785.03 464.79 812.992 499.283 812.992Z" fill="#648476"/>
<path fill-rule="evenodd" clip-rule="evenodd" d="M374.38 691.495C372.563 721.992 348.863 746.595 318.766 749.819C348.784 753.035 372.439 777.519 374.366 807.905C376.183 777.408 399.883 752.805 429.98 749.581C399.962 746.365 376.307 721.881 374.38 691.495ZM374.373 812.992C408.866 812.992 436.828 785.03 436.828 750.537C436.828 716.044 408.866 688.082 374.373 688.082C339.88 688.082 311.918 716.044 311.918 750.537C311.918 785.03 339.88 812.992 374.373 812.992Z" fill="#648476"/>
<path fill-rule="evenodd" clip-rule="evenodd" d="M561.865 253.95C560.048 284.447 536.348 309.051 506.251 312.275C536.269 315.49 559.924 339.974 561.851 370.36C563.668 339.863 587.368 315.26 617.465 312.036C587.447 308.82 563.792 284.336 561.865 253.95ZM561.858 375.446C596.351 375.446 624.313 347.483 624.313 312.99C624.313 278.497 596.351 250.535 561.858 250.535C527.365 250.535 499.403 278.497 499.403 312.99C499.403 347.483 527.365 375.446 561.858 375.446Z" fill="#648476"/>
<path fill-rule="evenodd" clip-rule="evenodd" d="M561.865 378.861C560.048 409.357 536.348 433.961 506.251 437.185C536.269 440.401 559.924 464.884 561.851 495.27C563.668 464.774 587.368 440.17 617.465 436.946C587.447 433.731 563.792 409.247 561.865 378.861ZM561.858 500.356C596.351 500.356 624.313 472.394 624.313 437.901C624.313 403.407 596.351 375.445 561.858 375.445C527.365 375.445 499.403 403.407 499.403 437.901C499.403 472.394 527.365 500.356 561.858 500.356Z" fill="#648476"/>
<path fill-rule="evenodd" clip-rule="evenodd" d="M561.865 503.771C560.048 534.268 536.348 558.871 506.251 562.095C536.269 565.311 559.924 589.795 561.851 620.181C563.668 589.684 587.368 565.081 617.465 561.857C587.447 558.641 563.792 534.157 561.865 503.771ZM561.858 625.266C596.351 625.266 624.313 597.304 624.313 562.811C624.313 528.318 596.351 500.355 561.858 500.355C527.365 500.355 499.403 528.318 499.403 562.811C499.403 597.304 527.365 625.266 561.858 625.266Z" fill="#648476"/>
<path fill-rule="evenodd" clip-rule="evenodd" d="M436.716 503.771C434.899 534.268 411.199 558.871 381.102 562.095C411.12 565.311 434.775 589.795 436.701 620.181C438.518 589.684 462.219 565.081 492.316 561.857C462.297 558.641 438.642 534.157 436.716 503.771ZM436.709 625.266C471.202 625.266 499.164 597.304 499.164 562.811C499.164 528.318 471.202 500.355 436.709 500.355C402.216 500.355 374.253 528.318 374.253 562.811C374.253 597.304 402.216 625.266 436.709 625.266Z" fill="#648476"/>
<path fill-rule="evenodd" clip-rule="evenodd" d="M311.806 628.92C309.989 659.417 286.288 684.02 256.191 687.244C286.21 690.46 309.865 714.944 311.791 745.33C313.608 714.833 337.308 690.23 367.405 687.006C337.387 683.79 313.732 659.306 311.806 628.92ZM311.798 750.418C346.291 750.418 374.253 722.456 374.253 687.963C374.253 653.47 346.291 625.508 311.798 625.508C277.305 625.508 249.343 653.47 249.343 687.963C249.343 722.456 277.305 750.418 311.798 750.418Z" fill="#648476"/>
<path fill-rule="evenodd" clip-rule="evenodd" d="M311.806 503.771C309.989 534.268 286.288 558.871 256.191 562.095C286.21 565.311 309.865 589.795 311.791 620.181C313.608 589.684 337.308 565.081 367.405 561.857C337.387 558.641 313.732 534.157 311.806 503.771ZM311.798 625.266C346.291 625.266 374.253 597.304 374.253 562.811C374.253 528.318 346.291 500.355 311.798 500.355C277.305 500.355 249.343 528.318 249.343 562.811C249.343 597.304 277.305 625.266 311.798 625.266Z" fill="#648476"/>
<circle cx="624.672" cy="375.569" r="62.4552" fill="#7C90EB"/>
<circle cx="624.672" cy="499.283" r="62.4552" fill="#7C90EB"/>
<circle cx="624.672" cy="622.998" r="62.4552" fill="#7C90EB"/>
<circle cx="561.619" cy="688.201" r="62.4552" fill="#7C90EB"/>
<circle cx="437.425" cy="688.201" r="62.4552" fill="#7C90EB"/>
<circle cx="374.134" cy="625.151" r="62.4552" fill="#7C90EB"/>
<path fill-rule="evenodd" clip-rule="evenodd" d="M624.201 316.051C622.384 346.548 598.684 371.151 568.587 374.375C598.605 377.591 622.26 402.075 624.186 432.461C626.003 401.964 649.704 377.361 679.801 374.137C649.782 370.921 626.127 346.437 624.201 316.051ZM624.194 437.547C658.687 437.547 686.649 409.585 686.649 375.092C686.649 340.599 658.687 312.637 624.194 312.637C589.701 312.637 561.739 340.599 561.739 375.092C561.739 409.585 589.701 437.547 624.194 437.547Z" fill="white"/>
<path fill-rule="evenodd" clip-rule="evenodd" d="M624.201 440.962C622.384 471.458 598.684 496.062 568.587 499.286C598.605 502.501 622.26 526.985 624.186 557.371C626.004 526.875 649.704 502.271 679.801 499.047C649.782 495.831 626.127 471.348 624.201 440.962ZM624.194 562.457C658.687 562.457 686.649 534.495 686.649 500.002C686.649 465.509 658.687 437.547 624.194 437.547C589.701 437.547 561.739 465.509 561.739 500.002C561.739 534.495 589.701 562.457 624.194 562.457Z" fill="white"/>
<path fill-rule="evenodd" clip-rule="evenodd" d="M624.201 565.868C622.384 596.365 598.684 620.968 568.587 624.192C598.605 627.408 622.26 651.892 624.186 682.278C626.004 651.781 649.704 627.178 679.801 623.954C649.782 620.738 626.127 596.254 624.201 565.868ZM624.194 687.364C658.687 687.364 686.649 659.401 686.649 624.908C686.649 590.415 658.687 562.453 624.194 562.453C589.701 562.453 561.739 590.415 561.739 624.908C561.739 659.401 589.701 687.364 624.194 687.364Z" fill="white"/>
<path fill-rule="evenodd" clip-rule="evenodd" d="M374.619 565.868C372.802 596.365 349.102 620.968 319.005 624.192C349.023 627.408 372.678 651.892 374.604 682.278C376.422 651.781 400.122 627.178 430.219 623.954C400.2 620.738 376.545 596.254 374.619 565.868ZM374.612 687.364C409.105 687.364 437.067 659.401 437.067 624.908C437.067 590.415 409.105 562.453 374.612 562.453C340.119 562.453 312.156 590.415 312.156 624.908C312.156 659.401 340.119 687.364 374.612 687.364Z" fill="white"/>
<path fill-rule="evenodd" clip-rule="evenodd" d="M561.388 630.593C559.571 661.09 535.87 685.694 505.774 688.918C535.792 692.133 559.447 716.617 561.373 747.003C563.19 716.506 586.891 691.903 616.987 688.679C586.969 685.463 563.314 660.98 561.388 630.593ZM561.858 749.942C596.351 749.942 624.313 721.98 624.313 687.486C624.313 652.993 596.351 625.031 561.858 625.031C527.365 625.031 499.403 652.993 499.403 687.486C499.403 721.98 527.365 749.942 561.858 749.942Z" fill="white"/>
<path fill-rule="evenodd" clip-rule="evenodd" d="M436.477 630.593C434.66 661.09 410.96 685.694 380.863 688.918C410.881 692.133 434.536 716.617 436.463 747.003C438.28 716.506 461.98 691.903 492.077 688.679C462.059 685.463 438.404 660.98 436.477 630.593ZM436.948 749.942C471.441 749.942 499.403 721.98 499.403 687.486C499.403 652.993 471.441 625.031 436.948 625.031C402.455 625.031 374.492 652.993 374.492 687.486C374.492 721.98 402.455 749.942 436.948 749.942Z" fill="white"/>
</svg>
