<svg width="188" height="12" viewBox="0 0 188 12" fill="none" xmlns="http://www.w3.org/2000/svg">
<path d="M7.764 8.116C7.764 8.998 7.47 9.796 6.756 10.342C5.986 10.93 5.062 11.014 4.11 11.014H0.162V1.074H4.11C4.908 1.074 5.734 1.186 6.406 1.62C7.134 2.096 7.554 2.922 7.554 3.776C7.554 4.588 7.176 5.498 6.336 5.876C7.274 6.31 7.764 7.192 7.764 8.116ZM5.72 3.888C5.72 2.936 4.992 2.628 4.18 2.628H1.954V5.12H4.222C5.034 5.12 5.72 4.826 5.72 3.888ZM5.93 8.074C5.93 7.01 5.188 6.632 4.236 6.632H1.954V9.39H4.18C5.02 9.39 5.93 9.082 5.93 8.074ZM17.1745 11H15.2845L14.6405 9.096H10.6925L10.0485 11H8.22852L11.7145 1.074H13.6885L17.1745 11ZM14.0805 7.472L12.6665 3.286L11.2525 7.472H14.0805ZM26.2699 11H24.4079L20.1099 4.182V11H18.3319V1.074H20.2499L24.4919 7.794V1.074H26.2699V11ZM36.9295 11H34.8015L32.1135 6.31L30.4055 8.312V11H28.5995V1.074H30.4055V5.652L34.3675 1.074H36.5655L33.3735 4.826L36.9295 11ZM48.6716 6.044C48.6716 7.668 48.4896 8.984 47.4116 10.062C46.6556 10.818 45.6196 11.182 44.5556 11.182C43.4916 11.182 42.4556 10.818 41.6996 10.062C40.6216 8.984 40.4396 7.668 40.4396 6.044C40.4396 4.42 40.6216 3.09 41.6996 2.012C42.4556 1.256 43.4916 0.891999 44.5556 0.891999C45.6196 0.891999 46.6556 1.256 47.4116 2.012C48.4896 3.09 48.6716 4.42 48.6716 6.044ZM46.8376 6.044C46.8376 5.134 46.8096 3.902 46.1236 3.188C45.7316 2.768 45.1296 2.53 44.5556 2.53C43.9816 2.53 43.3796 2.768 42.9876 3.188C42.3016 3.902 42.2736 5.134 42.2736 6.044C42.2736 6.954 42.3016 8.172 42.9876 8.886C43.3796 9.306 43.9816 9.544 44.5556 9.544C45.1296 9.544 45.7316 9.306 46.1236 8.886C46.8096 8.172 46.8376 6.954 46.8376 6.044ZM57.2798 2.712H52.2258V5.372H56.7338V7.01H52.2258V11H50.4198V1.074H57.2798V2.712ZM69.309 11H67.447L63.149 4.182V11H61.371V1.074H63.289L67.531 7.794V1.074H69.309V11ZM78.7086 11H71.6386V1.074H78.7086V2.712H73.4446V5.022H78.0786V6.646H73.4446V9.362H78.7086V11ZM91.2376 1.074L89.2636 11H87.4576L85.3856 4.154L83.3136 11H81.5076L79.5056 1.074H81.2276L82.6136 7.976L84.6576 1.228H86.1696L88.1716 7.976L89.5856 1.074H91.2376ZM102.646 1.074L99.1742 7.192V11H97.3542V7.192L93.9102 1.074H95.8702L98.3202 5.358L100.77 1.074H102.646ZM110.974 6.044C110.974 7.668 110.792 8.984 109.714 10.062C108.958 10.818 107.922 11.182 106.858 11.182C105.794 11.182 104.758 10.818 104.002 10.062C102.924 8.984 102.742 7.668 102.742 6.044C102.742 4.42 102.924 3.09 104.002 2.012C104.758 1.256 105.794 0.891999 106.858 0.891999C107.922 0.891999 108.958 1.256 109.714 2.012C110.792 3.09 110.974 4.42 110.974 6.044ZM109.14 6.044C109.14 5.134 109.112 3.902 108.426 3.188C108.034 2.768 107.432 2.53 106.858 2.53C106.284 2.53 105.682 2.768 105.29 3.188C104.604 3.902 104.576 5.134 104.576 6.044C104.576 6.954 104.604 8.172 105.29 8.886C105.682 9.306 106.284 9.544 106.858 9.544C107.432 9.544 108.034 9.306 108.426 8.886C109.112 8.172 109.14 6.954 109.14 6.044ZM120.353 11H118.393L116.741 7.248H114.543V11H112.723V1.074H116.909C119.275 1.074 120.353 2.558 120.353 4.154C120.353 5.484 119.625 6.534 118.533 6.94L120.353 11ZM118.547 4.154C118.547 3.356 117.931 2.656 116.909 2.656H114.529V5.624H116.937C117.959 5.624 118.547 5.092 118.547 4.154ZM130.281 11H128.153L125.465 6.31L123.757 8.312V11H121.951V1.074H123.757V5.652L127.719 1.074H129.917L126.725 4.826L130.281 11ZM144.333 11H142.583V3.916L140.007 10.86H138.677L136.115 3.832V11H134.365V1.074H136.801L139.405 8.144L142.023 1.074H144.333V11ZM153.726 11H146.656V1.074H153.726V2.712H148.462V5.022H153.096V6.646H148.462V9.362H153.726V11ZM161.859 11H155.447V1.074H157.253V9.292H161.859V11ZM169.201 11H162.789V1.074H164.595V9.292H169.201V11ZM177.789 6.044C177.789 7.668 177.607 8.984 176.529 10.062C175.773 10.818 174.737 11.182 173.673 11.182C172.609 11.182 171.573 10.818 170.817 10.062C169.739 8.984 169.557 7.668 169.557 6.044C169.557 4.42 169.739 3.09 170.817 2.012C171.573 1.256 172.609 0.891999 173.673 0.891999C174.737 0.891999 175.773 1.256 176.529 2.012C177.607 3.09 177.789 4.42 177.789 6.044ZM175.955 6.044C175.955 5.134 175.927 3.902 175.241 3.188C174.849 2.768 174.247 2.53 173.673 2.53C173.099 2.53 172.497 2.768 172.105 3.188C171.419 3.902 171.391 5.134 171.391 6.044C171.391 6.954 171.419 8.172 172.105 8.886C172.497 9.306 173.099 9.544 173.673 9.544C174.247 9.544 174.849 9.306 175.241 8.886C175.927 8.172 175.955 6.954 175.955 6.044ZM187.475 11H185.613L181.315 4.182V11H179.537V1.074H181.455L185.697 7.794V1.074H187.475V11Z" fill="white"/>
</svg>
