<svg width="1360" height="91" viewBox="0 0 1360 91" fill="none" xmlns="http://www.w3.org/2000/svg">
<rect x="0.304321" y="0.493164" width="1358.81" height="90" fill="#1A3ACC" fill-opacity="0.12"/>
<g opacity="0.42">
<path d="M28.9078 46.0292C36.2156 46.0292 42.1397 51.9534 42.1397 59.2612C42.1397 72.4932 42.1397 72.4932 28.9078 72.4932C21.5999 72.4932 15.6758 66.569 15.6758 59.2612C15.6758 46.0292 15.6758 46.0292 28.9078 46.0292Z" fill="#C4C4C4"/>
<path d="M69.6759 59.2613C69.6759 66.5691 63.7517 72.4932 56.4439 72.4932C43.2119 72.4932 43.2119 72.4932 43.2119 59.2613C43.2119 51.9535 49.1361 46.0293 56.4439 46.0293C69.6759 46.0293 69.6759 46.0293 69.6759 59.2613Z" fill="#C4C4C4"/>
<path d="M56.4439 18.4931C63.7517 18.4931 69.6759 24.4172 69.6759 31.7251C69.6759 44.957 69.6759 44.957 56.4439 44.957C49.1361 44.957 43.2119 39.0329 43.2119 31.7251C43.2119 18.4931 43.2119 18.4931 56.4439 18.4931Z" fill="#C4C4C4"/>
<path d="M42.71 33.8159L42.6467 35.1629C42.427 39.8317 42.3172 42.166 40.8718 43.6455C39.4264 45.1251 37.1458 45.2375 32.5848 45.4623L31.2688 45.5271L32.5848 45.592C37.1458 45.8168 39.4264 45.9292 40.8718 47.4087C42.3172 48.8883 42.427 51.2226 42.6467 55.8913L42.71 57.2384L42.7734 55.8913C42.993 51.2226 43.1028 48.8883 44.5482 47.4087C45.9937 45.9292 48.2742 45.8168 52.8353 45.592L54.1512 45.5271L52.8353 45.4623C48.2742 45.2375 45.9937 45.1251 44.5482 43.6455C43.1028 42.166 42.993 39.8317 42.7734 35.1629L42.71 33.8159Z" fill="#F0F4F7"/>
</g>
<path opacity="0.42" d="M103.859 64.8772C101.587 64.8772 99.5873 64.4452 97.8593 63.5812C96.1633 62.7172 94.8513 61.5012 93.9233 59.9332C92.9953 58.3652 92.5313 56.5572 92.5313 54.5092V51.1012C92.5313 50.7812 92.6913 50.6212 93.0113 50.6212H96.6593C96.9793 50.6212 97.1393 50.7812 97.1393 51.1012V54.5092C97.1393 56.4292 97.7473 57.9812 98.9633 59.1652C100.179 60.3172 101.811 60.8932 103.859 60.8932C105.843 60.8932 107.459 60.3172 108.707 59.1652C109.955 57.9812 110.579 56.4292 110.579 54.5092V31.3732C110.579 31.0532 110.739 30.8932 111.059 30.8932H114.707C115.027 30.8932 115.187 31.0532 115.187 31.3732V54.5092C115.187 56.5572 114.707 58.3652 113.747 59.9332C112.819 61.5012 111.491 62.7172 109.763 63.5812C108.035 64.4452 106.067 64.8772 103.859 64.8772ZM134.933 64.9252C132.597 64.9252 130.533 64.4452 128.741 63.4852C126.949 62.5252 125.557 61.1812 124.565 59.4532C123.573 57.6932 123.077 55.6772 123.077 53.4052V41.9812C123.077 39.7092 123.573 37.7092 124.565 35.9812C125.557 34.2532 126.949 32.9092 128.741 31.9492C130.533 30.9892 132.597 30.5092 134.933 30.5092C137.301 30.5092 139.381 30.9892 141.173 31.9492C142.965 32.9092 144.357 34.2532 145.349 35.9812C146.341 37.7092 146.837 39.7092 146.837 41.9812V53.4052C146.837 55.6772 146.341 57.6932 145.349 59.4532C144.357 61.1812 142.965 62.5252 141.173 63.4852C139.381 64.4452 137.301 64.9252 134.933 64.9252ZM134.933 60.9412C137.109 60.9412 138.869 60.2692 140.213 58.9252C141.557 57.5812 142.229 55.8052 142.229 53.5972V41.9332C142.229 39.6932 141.557 37.9012 140.213 36.5572C138.869 35.1812 137.109 34.4932 134.933 34.4932C132.757 34.4932 130.997 35.1812 129.653 36.5572C128.341 37.9012 127.685 39.6932 127.685 41.9332V53.5972C127.685 55.8052 128.341 57.5812 129.653 58.9252C130.997 60.2692 132.757 60.9412 134.933 60.9412ZM177.608 34.3972C177.608 34.7172 177.448 34.8772 177.128 34.8772H160.088C159.96 34.8772 159.896 34.9412 159.896 35.0692V45.3892C159.896 45.5172 159.96 45.5812 160.088 45.5812H171.8C172.12 45.5812 172.28 45.7412 172.28 46.0612V49.0852C172.28 49.4052 172.12 49.5652 171.8 49.5652H160.088C159.96 49.5652 159.896 49.6292 159.896 49.7572V60.3172C159.896 60.4452 159.96 60.5092 160.088 60.5092H177.128C177.448 60.5092 177.608 60.6692 177.608 60.9892V64.0132C177.608 64.3332 177.448 64.4932 177.128 64.4932H155.768C155.448 64.4932 155.288 64.3332 155.288 64.0132V31.3732C155.288 31.0532 155.448 30.8932 155.768 30.8932H177.128C177.448 30.8932 177.608 31.0532 177.608 31.3732V34.3972ZM185.895 64.4932C185.575 64.4932 185.415 64.3332 185.415 64.0132V31.3732C185.415 31.0532 185.575 30.8932 185.895 30.8932H189.543C189.863 30.8932 190.023 31.0532 190.023 31.3732V60.3172C190.023 60.4452 190.087 60.5092 190.215 60.5092H206.775C207.095 60.5092 207.255 60.6692 207.255 60.9892V64.0132C207.255 64.3332 207.095 64.4932 206.775 64.4932H185.895ZM225.76 64.4932C225.44 64.4932 225.28 64.3332 225.28 64.0132V31.3732C225.28 31.0532 225.44 30.8932 225.76 30.8932H237.376C240.704 30.8932 243.36 31.7732 245.344 33.5332C247.328 35.2612 248.32 37.5812 248.32 40.4932V54.8932C248.32 57.8052 247.328 60.1412 245.344 61.9012C243.36 63.6292 240.704 64.4932 237.376 64.4932H225.76ZM229.888 60.3172C229.888 60.4452 229.952 60.5092 230.08 60.5092H237.568C239.424 60.5092 240.896 59.9492 241.984 58.8292C243.104 57.6772 243.68 56.1412 243.712 54.2212V41.1652C243.712 39.2452 243.152 37.7252 242.032 36.6052C240.944 35.4532 239.456 34.8772 237.568 34.8772H230.08C229.952 34.8772 229.888 34.9412 229.888 35.0692V60.3172ZM267.242 64.9252C264.906 64.9252 262.842 64.4452 261.05 63.4852C259.258 62.5252 257.866 61.1812 256.874 59.4532C255.882 57.6932 255.386 55.6772 255.386 53.4052V41.9812C255.386 39.7092 255.882 37.7092 256.874 35.9812C257.866 34.2532 259.258 32.9092 261.05 31.9492C262.842 30.9892 264.906 30.5092 267.242 30.5092C269.61 30.5092 271.69 30.9892 273.482 31.9492C275.274 32.9092 276.666 34.2532 277.658 35.9812C278.65 37.7092 279.146 39.7092 279.146 41.9812V53.4052C279.146 55.6772 278.65 57.6932 277.658 59.4532C276.666 61.1812 275.274 62.5252 273.482 63.4852C271.69 64.4452 269.61 64.9252 267.242 64.9252ZM267.242 60.9412C269.418 60.9412 271.178 60.2692 272.522 58.9252C273.866 57.5812 274.538 55.8052 274.538 53.5972V41.9332C274.538 39.6932 273.866 37.9012 272.522 36.5572C271.178 35.1812 269.418 34.4932 267.242 34.4932C265.066 34.4932 263.306 35.1812 261.962 36.5572C260.65 37.9012 259.994 39.6932 259.994 41.9332V53.5972C259.994 55.8052 260.65 57.5812 261.962 58.9252C263.306 60.2692 265.066 60.9412 267.242 60.9412ZM309.341 31.1812C309.501 30.9892 309.693 30.8932 309.917 30.8932H313.565C313.885 30.8932 314.045 31.0532 314.045 31.3732V64.0132C314.045 64.3332 313.885 64.4932 313.565 64.4932H309.917C309.597 64.4932 309.437 64.3332 309.437 64.0132V39.4372C309.437 39.3412 309.405 39.2772 309.341 39.2452C309.277 39.2132 309.229 39.2452 309.197 39.3412L302.333 49.8052C302.205 49.9972 302.013 50.0932 301.757 50.0932H299.933C299.709 50.0932 299.517 49.9972 299.357 49.8052L292.445 39.4372C292.413 39.3412 292.365 39.3092 292.301 39.3412C292.237 39.3732 292.205 39.4372 292.205 39.5332V64.0132C292.205 64.3332 292.045 64.4932 291.725 64.4932H288.077C287.757 64.4932 287.597 64.3332 287.597 64.0132V31.3732C287.597 31.0532 287.757 30.8932 288.077 30.8932H291.725C291.981 30.8932 292.173 30.9892 292.301 31.1812L300.701 43.7572C300.733 43.7892 300.781 43.8052 300.845 43.8052C300.909 43.8052 300.957 43.7892 300.989 43.7572L309.341 31.1812ZM341.254 46.9732C341.094 47.0692 341.094 47.1652 341.254 47.2612C344.646 48.7012 346.342 51.3732 346.342 55.2772C346.342 58.2212 345.366 60.4932 343.414 62.0932C341.462 63.6932 338.918 64.4932 335.782 64.4932H323.83C323.51 64.4932 323.35 64.3332 323.35 64.0132V31.3732C323.35 31.0532 323.51 30.8932 323.83 30.8932H335.398C338.726 30.8932 341.302 31.6612 343.126 33.1972C344.982 34.7012 345.91 36.9092 345.91 39.8212C345.91 43.2772 344.358 45.6612 341.254 46.9732ZM328.15 34.8772C328.022 34.8772 327.958 34.9412 327.958 35.0692V45.1972C327.958 45.3252 328.022 45.3892 328.15 45.3892H335.398C337.254 45.3892 338.71 44.9252 339.766 43.9972C340.854 43.0692 341.398 41.8052 341.398 40.2052C341.398 38.5732 340.854 37.2772 339.766 36.3172C338.71 35.3572 337.254 34.8772 335.398 34.8772H328.15ZM335.782 60.4612C337.606 60.4612 339.046 59.9652 340.102 58.9732C341.19 57.9492 341.734 56.5732 341.734 54.8452C341.734 53.1172 341.19 51.7572 340.102 50.7652C339.014 49.7412 337.526 49.2292 335.638 49.2292H328.15C328.022 49.2292 327.958 49.2932 327.958 49.4212V60.2692C327.958 60.3972 328.022 60.4612 328.15 60.4612H335.782ZM377.063 34.3972C377.063 34.7172 376.903 34.8772 376.583 34.8772H359.543C359.415 34.8772 359.351 34.9412 359.351 35.0692V45.3892C359.351 45.5172 359.415 45.5812 359.543 45.5812H371.255C371.575 45.5812 371.735 45.7412 371.735 46.0612V49.0852C371.735 49.4052 371.575 49.5652 371.255 49.5652H359.543C359.415 49.5652 359.351 49.6292 359.351 49.7572V60.3172C359.351 60.4452 359.415 60.5092 359.543 60.5092H376.583C376.903 60.5092 377.063 60.6692 377.063 60.9892V64.0132C377.063 64.3332 376.903 64.4932 376.583 64.4932H355.223C354.903 64.4932 354.743 64.3332 354.743 64.0132V31.3732C354.743 31.0532 354.903 30.8932 355.223 30.8932H376.583C376.903 30.8932 377.063 31.0532 377.063 31.3732V34.3972ZM385.35 64.4932C385.03 64.4932 384.87 64.3332 384.87 64.0132V31.3732C384.87 31.0532 385.03 30.8932 385.35 30.8932H388.998C389.318 30.8932 389.478 31.0532 389.478 31.3732V46.6852C389.478 46.7492 389.51 46.7972 389.574 46.8292C389.638 46.8292 389.686 46.7972 389.718 46.7332L403.446 31.1812C403.574 30.9892 403.766 30.8932 404.022 30.8932H408.198C408.39 30.8932 408.518 30.9572 408.582 31.0852C408.646 31.1812 408.614 31.3092 408.486 31.4692L397.062 44.9572C397.03 45.0532 397.03 45.1492 397.062 45.2452L409.302 63.9172C409.366 64.0452 409.398 64.1412 409.398 64.2052C409.398 64.3972 409.27 64.4932 409.014 64.4932H404.838C404.614 64.4932 404.422 64.3972 404.262 64.2052L393.894 48.5092C393.862 48.4452 393.814 48.4132 393.75 48.4132C393.686 48.4132 393.638 48.4292 393.606 48.4612L389.574 52.9732C389.51 53.1012 389.478 53.1812 389.478 53.2132V64.0132C389.478 64.3332 389.318 64.4932 388.998 64.4932H385.35ZM443.354 64.8772C440.058 64.8772 437.098 64.1412 434.474 62.6692C431.85 61.1652 429.786 59.1012 428.282 56.4772C426.778 53.8532 426.026 50.9092 426.026 47.6452C426.026 44.4132 426.778 41.5012 428.282 38.9092C429.786 36.2852 431.85 34.2372 434.474 32.7652C437.13 31.2612 440.09 30.5092 443.354 30.5092C446.65 30.5092 449.626 31.2612 452.282 32.7652C454.938 34.2372 457.018 36.2852 458.522 38.9092C460.026 41.5012 460.778 44.4132 460.778 47.6452C460.778 50.9092 460.026 53.8532 458.522 56.4772C457.018 59.1012 454.938 61.1652 452.282 62.6692C449.626 64.1412 446.65 64.8772 443.354 64.8772ZM443.354 61.7092C446.042 61.7092 448.458 61.1012 450.602 59.8852C452.746 58.6692 454.426 56.9892 455.642 54.8452C456.858 52.7012 457.466 50.3012 457.466 47.6452C457.466 45.0212 456.858 42.6532 455.642 40.5412C454.426 38.3972 452.746 36.7172 450.602 35.5012C448.458 34.2852 446.042 33.6772 443.354 33.6772C440.666 33.6772 438.25 34.2852 436.106 35.5012C433.994 36.7172 432.33 38.3972 431.114 40.5412C429.93 42.6532 429.338 45.0212 429.338 47.6452C429.338 50.3012 429.93 52.7012 431.114 54.8452C432.33 56.9892 433.994 58.6692 436.106 59.8852C438.25 61.1012 440.666 61.7092 443.354 61.7092ZM443.45 56.2372C441.786 56.2372 440.442 55.7732 439.418 54.8452C438.426 53.9172 437.93 52.6692 437.93 51.1012V44.1892C437.93 42.6532 438.426 41.4212 439.418 40.4932C440.442 39.5652 441.786 39.1012 443.45 39.1012C445.114 39.1012 446.442 39.5492 447.434 40.4452C448.458 41.3412 448.97 42.5412 448.97 44.0452C448.97 44.1732 448.922 44.2852 448.826 44.3812C448.73 44.4452 448.618 44.4772 448.49 44.4772H446.81C446.49 44.4772 446.33 44.3172 446.33 43.9972C446.33 43.2292 446.058 42.6052 445.514 42.1252C445.002 41.6452 444.314 41.4052 443.45 41.4052C442.586 41.4052 441.898 41.6452 441.386 42.1252C440.874 42.5732 440.618 43.1972 440.618 43.9972V51.3412C440.618 52.1092 440.874 52.7332 441.386 53.2132C441.898 53.6932 442.586 53.9332 443.45 53.9332C444.282 53.9332 444.97 53.6932 445.514 53.2132C446.058 52.7332 446.33 52.1092 446.33 51.3412C446.33 51.0212 446.49 50.8612 446.81 50.8612H448.49C448.81 50.8612 448.97 51.0052 448.97 51.2932C448.97 52.7652 448.458 53.9652 447.434 54.8932C446.41 55.7892 445.082 56.2372 443.45 56.2372ZM478.337 64.4932C478.145 64.4932 478.017 64.4452 477.953 64.3492C477.889 64.2212 477.905 64.0772 478.001 63.9172L487.889 47.8372C487.953 47.7412 487.953 47.6452 487.889 47.5492L478.001 31.4692C477.937 31.3412 477.905 31.2452 477.905 31.1812C477.905 30.9892 478.049 30.8932 478.337 30.8932H482.321C482.545 30.8932 482.737 31.0052 482.897 31.2292L490.625 43.9492C490.657 43.9812 490.705 43.9972 490.769 43.9972C490.833 43.9972 490.881 43.9812 490.913 43.9492L498.641 31.2292C498.801 31.0052 498.993 30.8932 499.217 30.8932H503.153C503.345 30.8932 503.473 30.9572 503.537 31.0852C503.601 31.1812 503.585 31.3092 503.489 31.4692L493.649 47.5972C493.617 47.6932 493.617 47.7892 493.649 47.8852L503.489 63.9172C503.553 64.0452 503.585 64.1412 503.585 64.2052C503.585 64.3972 503.441 64.4932 503.153 64.4932H499.217C498.993 64.4932 498.801 64.3812 498.641 64.1572L490.913 51.4852C490.881 51.4212 490.833 51.3892 490.769 51.3892C490.705 51.3892 490.657 51.4212 490.625 51.4852L482.897 64.1572C482.737 64.3812 482.545 64.4932 482.321 64.4932H478.337ZM513.161 64.4932C512.265 64.4932 511.529 64.2052 510.953 63.6292C510.377 63.0532 510.089 62.3172 510.089 61.4212C510.089 60.5252 510.377 59.7892 510.953 59.2132C511.529 58.6372 512.265 58.3492 513.161 58.3492C514.057 58.3492 514.793 58.6372 515.369 59.2132C515.945 59.7892 516.233 60.5252 516.233 61.4212C516.233 62.3172 515.945 63.0532 515.369 63.6292C514.793 64.2052 514.057 64.4932 513.161 64.4932ZM523.404 64.4932C523.212 64.4932 523.084 64.4452 523.02 64.3492C522.956 64.2212 522.972 64.0772 523.068 63.9172L532.956 47.8372C533.02 47.7412 533.02 47.6452 532.956 47.5492L523.068 31.4692C523.004 31.3412 522.972 31.2452 522.972 31.1812C522.972 30.9892 523.116 30.8932 523.404 30.8932H527.388C527.612 30.8932 527.804 31.0052 527.964 31.2292L535.692 43.9492C535.724 43.9812 535.772 43.9972 535.836 43.9972C535.9 43.9972 535.948 43.9812 535.98 43.9492L543.708 31.2292C543.868 31.0052 544.06 30.8932 544.284 30.8932H548.22C548.412 30.8932 548.54 30.9572 548.604 31.0852C548.668 31.1812 548.652 31.3092 548.556 31.4692L538.716 47.5972C538.684 47.6932 538.684 47.7892 538.716 47.8852L548.556 63.9172C548.62 64.0452 548.652 64.1412 548.652 64.2052C548.652 64.3972 548.508 64.4932 548.22 64.4932H544.284C544.06 64.4932 543.868 64.3812 543.708 64.1572L535.98 51.4852C535.948 51.4212 535.9 51.3892 535.836 51.3892C535.772 51.3892 535.724 51.4212 535.692 51.4852L527.964 64.1572C527.804 64.3812 527.612 64.4932 527.388 64.4932H523.404ZM558.229 64.4932C557.333 64.4932 556.597 64.2052 556.021 63.6292C555.445 63.0532 555.157 62.3172 555.157 61.4212C555.157 60.5252 555.445 59.7892 556.021 59.2132C556.597 58.6372 557.333 58.3492 558.229 58.3492C559.125 58.3492 559.861 58.6372 560.437 59.2132C561.013 59.7892 561.301 60.5252 561.301 61.4212C561.301 62.3172 561.013 63.0532 560.437 63.6292C559.861 64.2052 559.125 64.4932 558.229 64.4932ZM592.088 31.1812C592.248 30.9892 592.44 30.8932 592.664 30.8932H596.312C596.632 30.8932 596.792 31.0532 596.792 31.3732V64.0132C596.792 64.3332 596.632 64.4932 596.312 64.4932H592.664C592.344 64.4932 592.184 64.3332 592.184 64.0132V39.4372C592.184 39.3412 592.152 39.2772 592.088 39.2452C592.024 39.2132 591.976 39.2452 591.944 39.3412L585.08 49.8052C584.952 49.9972 584.76 50.0932 584.504 50.0932H582.68C582.456 50.0932 582.264 49.9972 582.104 49.8052L575.192 39.4372C575.16 39.3412 575.112 39.3092 575.048 39.3412C574.984 39.3732 574.952 39.4372 574.952 39.5332V64.0132C574.952 64.3332 574.792 64.4932 574.472 64.4932H570.824C570.504 64.4932 570.344 64.3332 570.344 64.0132V31.3732C570.344 31.0532 570.504 30.8932 570.824 30.8932H574.472C574.728 30.8932 574.92 30.9892 575.048 31.1812L583.448 43.7572C583.48 43.7892 583.528 43.8052 583.592 43.8052C583.656 43.8052 583.704 43.7892 583.736 43.7572L592.088 31.1812ZM627.84 31.1812C628 30.9892 628.192 30.8932 628.416 30.8932H632.064C632.384 30.8932 632.544 31.0532 632.544 31.3732V64.0132C632.544 64.3332 632.384 64.4932 632.064 64.4932H628.416C628.096 64.4932 627.936 64.3332 627.936 64.0132V39.4372C627.936 39.3412 627.904 39.2772 627.84 39.2452C627.776 39.2132 627.728 39.2452 627.696 39.3412L620.832 49.8052C620.704 49.9972 620.512 50.0932 620.256 50.0932H618.432C618.208 50.0932 618.016 49.9972 617.856 49.8052L610.944 39.4372C610.912 39.3412 610.864 39.3092 610.8 39.3412C610.736 39.3732 610.704 39.4372 610.704 39.5332V64.0132C610.704 64.3332 610.544 64.4932 610.224 64.4932H606.576C606.256 64.4932 606.096 64.3332 606.096 64.0132V31.3732C606.096 31.0532 606.256 30.8932 606.576 30.8932H610.224C610.48 30.8932 610.672 30.9892 610.8 31.1812L619.2 43.7572C619.232 43.7892 619.28 43.8052 619.344 43.8052C619.408 43.8052 619.456 43.7892 619.488 43.7572L627.84 31.1812ZM639.977 64.4932C639.785 64.4932 639.657 64.4452 639.593 64.3492C639.529 64.2212 639.545 64.0772 639.641 63.9172L649.529 47.8372C649.593 47.7412 649.593 47.6452 649.529 47.5492L639.641 31.4692C639.577 31.3412 639.545 31.2452 639.545 31.1812C639.545 30.9892 639.689 30.8932 639.977 30.8932H643.961C644.185 30.8932 644.377 31.0052 644.537 31.2292L652.265 43.9492C652.297 43.9812 652.345 43.9972 652.409 43.9972C652.473 43.9972 652.521 43.9812 652.553 43.9492L660.281 31.2292C660.441 31.0052 660.633 30.8932 660.857 30.8932H664.793C664.985 30.8932 665.113 30.9572 665.177 31.0852C665.241 31.1812 665.225 31.3092 665.129 31.4692L655.289 47.5972C655.257 47.6932 655.257 47.7892 655.289 47.8852L665.129 63.9172C665.193 64.0452 665.225 64.1412 665.225 64.2052C665.225 64.3972 665.081 64.4932 664.793 64.4932H660.857C660.633 64.4932 660.441 64.3812 660.281 64.1572L652.553 51.4852C652.521 51.4212 652.473 51.3892 652.409 51.3892C652.345 51.3892 652.297 51.4212 652.265 51.4852L644.537 64.1572C644.377 64.3812 644.185 64.4932 643.961 64.4932H639.977ZM670.385 64.4932C670.193 64.4932 670.065 64.4452 670.001 64.3492C669.937 64.2212 669.953 64.0772 670.049 63.9172L679.937 47.8372C680.001 47.7412 680.001 47.6452 679.937 47.5492L670.049 31.4692C669.985 31.3412 669.953 31.2452 669.953 31.1812C669.953 30.9892 670.097 30.8932 670.385 30.8932H674.369C674.593 30.8932 674.785 31.0052 674.945 31.2292L682.673 43.9492C682.705 43.9812 682.753 43.9972 682.817 43.9972C682.881 43.9972 682.929 43.9812 682.961 43.9492L690.689 31.2292C690.849 31.0052 691.041 30.8932 691.265 30.8932H695.201C695.393 30.8932 695.521 30.9572 695.585 31.0852C695.649 31.1812 695.633 31.3092 695.537 31.4692L685.697 47.5972C685.665 47.6932 685.665 47.7892 685.697 47.8852L695.537 63.9172C695.601 64.0452 695.633 64.1412 695.633 64.2052C695.633 64.3972 695.489 64.4932 695.201 64.4932H691.265C691.041 64.4932 690.849 64.3812 690.689 64.1572L682.961 51.4852C682.929 51.4212 682.881 51.3892 682.817 51.3892C682.753 51.3892 682.705 51.4212 682.673 51.4852L674.945 64.1572C674.785 64.3812 674.593 64.4932 674.369 64.4932H670.385ZM703.146 64.4932C702.826 64.4932 702.666 64.3332 702.666 64.0132V31.3732C702.666 31.0532 702.826 30.8932 703.146 30.8932H706.794C707.114 30.8932 707.274 31.0532 707.274 31.3732V64.0132C707.274 64.3332 707.114 64.4932 706.794 64.4932H703.146ZM725.071 64.4932C724.783 64.4932 724.591 64.3652 724.495 64.1092L714.223 31.4212L714.175 31.2292C714.175 31.0052 714.319 30.8932 714.607 30.8932H718.495C718.783 30.8932 718.975 31.0212 719.071 31.2772L726.991 57.8212C727.023 57.8852 727.071 57.9172 727.135 57.9172C727.199 57.9172 727.247 57.8852 727.279 57.8212L735.199 31.2772C735.295 31.0212 735.471 30.8932 735.727 30.8932H739.519C739.871 30.8932 739.999 31.0692 739.903 31.4212L729.535 64.1092C729.439 64.3652 729.247 64.4932 728.959 64.4932H725.071ZM761.444 57.2932C759.844 57.2932 758.468 56.7332 757.316 55.6132C756.196 54.4612 755.636 53.0852 755.636 51.4852C755.636 49.8852 756.196 48.5412 757.316 47.4532C758.468 46.3332 759.844 45.7732 761.444 45.7732C763.044 45.7732 764.404 46.3332 765.524 47.4532C766.644 48.5412 767.204 49.8852 767.204 51.4852C767.204 53.0852 766.644 54.4612 765.524 55.6132C764.404 56.7332 763.044 57.2932 761.444 57.2932ZM791.624 29.0212C793.016 29.1652 794.408 29.2612 795.992 29.2612C798.776 29.2612 812.744 29.2612 815.432 29.2612C816.776 29.2612 818.504 29.1652 819.896 29.0212V33.0052C818.456 32.9092 816.776 32.8132 815.432 32.8132C812.744 32.8132 798.776 32.8132 796.04 32.8132C794.456 32.8132 792.872 32.9092 791.624 33.0052V29.0212ZM785.912 41.0692C787.208 41.2132 788.6 41.2612 790.088 41.2612C792.872 41.2612 818.936 41.2612 821.48 41.2612C822.488 41.2612 824.072 41.2132 825.272 41.0692V45.0052C824.168 44.9572 822.68 44.9092 821.48 44.9092C818.936 44.9092 792.872 44.9092 790.088 44.9092C788.648 44.9092 787.208 44.9572 785.912 45.0532V41.0692ZM808.52 42.9892C808.52 49.0372 807.752 54.0292 805.592 58.0612C803.864 61.2772 800.216 64.6852 796.184 66.7972L792.632 64.2052C796.328 62.6212 799.784 59.8852 801.656 56.8132C804.056 53.0212 804.44 48.3172 804.488 43.0372L808.52 42.9892ZM846.92 60.2692C846.92 57.5812 846.92 36.3652 846.92 32.3812C846.92 30.9892 846.824 28.8772 846.584 27.3412H851.288C851.096 28.8292 850.952 30.8932 850.952 32.3812C850.952 39.8212 851 58.0132 851 60.2692C851 61.8052 851.096 64.3972 851.288 65.9812H846.632C846.872 64.4452 846.92 62.0452 846.92 60.2692ZM850.088 39.9652C856.424 41.7892 866.12 45.4852 871.448 48.0772L869.768 52.1572C864.296 49.2292 855.32 45.8212 850.088 44.1892V39.9652ZM891.32 28.7812C892.568 28.9252 894.056 29.0212 895.592 29.0212C898.184 29.0212 911.672 29.0212 914.504 29.0212C915.992 29.0212 917.672 28.9252 918.824 28.7812V32.7652C917.72 32.6692 916.04 32.6212 914.408 32.6212C911.72 32.6212 898.232 32.6212 895.592 32.6212C894.152 32.6212 892.616 32.6692 891.32 32.7652V28.7812ZM922.376 41.4052C922.136 41.8852 921.8 42.4612 921.704 42.8452C920.456 47.5492 918.296 52.5412 914.696 56.4772C909.704 61.9972 903.656 64.7812 897.56 66.5092L894.584 63.1012C901.352 61.7092 907.352 58.5892 911.48 54.2692C914.36 51.2452 916.28 47.1652 917.144 43.6612C914.792 43.6612 894.584 43.6612 891.704 43.6612C890.552 43.6612 888.728 43.7092 887 43.8532V39.8212C888.728 39.9652 890.36 40.1092 891.704 40.1092C894.056 40.1092 914.504 40.1092 916.952 40.1092C918.056 40.1092 919.112 39.9652 919.64 39.7252L922.376 41.4052ZM948.209 57.2932C946.609 57.2932 945.233 56.7332 944.081 55.6132C942.961 54.4612 942.401 53.0852 942.401 51.4852C942.401 49.8852 942.961 48.5412 944.081 47.4532C945.233 46.3332 946.609 45.7732 948.209 45.7732C949.809 45.7732 951.169 46.3332 952.289 47.4532C953.409 48.5412 953.969 49.8852 953.969 51.4852C953.969 53.0852 953.409 54.4612 952.289 55.6132C951.169 56.7332 949.809 57.2932 948.209 57.2932ZM989.909 50.1412C990.581 51.4852 990.917 53.0852 990.917 54.9412C990.917 56.9892 990.469 58.7812 989.573 60.3172C988.805 61.7572 987.653 62.8772 986.117 63.6772C984.613 64.4772 982.837 64.8772 980.789 64.8772C978.741 64.8772 976.933 64.4772 975.365 63.6772C973.797 62.8452 972.613 61.6612 971.813 60.1252C970.949 58.6212 970.517 56.8772 970.517 54.8932C970.517 53.1332 970.869 51.5172 971.573 50.0452C972.277 48.5732 973.317 47.4692 974.693 46.7332C974.853 46.6692 974.853 46.5892 974.693 46.4932C973.669 45.7252 972.901 44.9252 972.389 44.0932C971.493 42.7492 971.045 41.2132 971.045 39.4852C971.045 37.5972 971.589 35.8692 972.677 34.3012C973.477 33.0852 974.581 32.1252 975.989 31.4212C977.429 30.7172 979.029 30.3652 980.789 30.3652C982.581 30.3652 984.165 30.7172 985.541 31.4212C986.917 32.1252 988.005 33.0852 988.805 34.3012C989.861 35.8692 990.389 37.5972 990.389 39.4852C990.389 41.2132 989.941 42.7812 989.045 44.1892C988.469 45.0852 987.717 45.8532 986.789 46.4932C986.629 46.5892 986.629 46.6692 986.789 46.7332C988.133 47.4692 989.173 48.6052 989.909 50.1412ZM976.277 37.0372C975.829 37.8692 975.605 38.6852 975.605 39.4852C975.605 40.7652 975.909 41.8372 976.517 42.7012C977.381 44.1412 978.789 44.8612 980.741 44.8612C982.661 44.8612 984.085 44.1252 985.013 42.6532C985.557 41.8852 985.829 40.8132 985.829 39.4372C985.829 38.5412 985.621 37.7252 985.205 36.9892C984.789 36.1892 984.197 35.5492 983.429 35.0692C982.661 34.5892 981.749 34.3492 980.693 34.3492C979.701 34.3492 978.821 34.5892 978.053 35.0692C977.285 35.5492 976.693 36.2052 976.277 37.0372ZM985.157 58.6852C985.893 57.6612 986.261 56.2852 986.261 54.5572C986.261 53.0212 985.989 51.7572 985.445 50.7652C984.549 49.1012 982.981 48.2692 980.741 48.2692C978.565 48.2692 977.029 49.0532 976.133 50.6212C975.525 51.6452 975.221 52.9732 975.221 54.6052C975.221 56.2052 975.557 57.5172 976.229 58.5412C977.157 60.0772 978.677 60.8452 980.789 60.8452C982.773 60.8452 984.229 60.1252 985.157 58.6852ZM1019.06 51.3412C1019.38 51.3412 1019.54 51.5012 1019.54 51.8212V54.9892C1019.54 55.3092 1019.38 55.4692 1019.06 55.4692H1017C1016.87 55.4692 1016.81 55.5332 1016.81 55.6612V64.0132C1016.81 64.3332 1016.65 64.4932 1016.33 64.4932H1012.68C1012.36 64.4932 1012.2 64.3332 1012.2 64.0132V55.6612C1012.2 55.5332 1012.13 55.4692 1012.01 55.4692H997.413C997.093 55.4692 996.933 55.3092 996.933 54.9892V52.3972C996.933 52.2372 996.981 52.0452 997.077 51.8212L1006.53 31.2292C1006.63 31.0052 1006.81 30.8932 1007.06 30.8932H1010.9C1011.06 30.8932 1011.17 30.9572 1011.24 31.0852C1011.33 31.1812 1011.35 31.3092 1011.29 31.4692L1002.26 51.1012C1002.23 51.1652 1002.23 51.2292 1002.26 51.2932C1002.29 51.3252 1002.34 51.3412 1002.41 51.3412H1012.01C1012.13 51.3412 1012.2 51.2772 1012.2 51.1492V43.9972C1012.2 43.6772 1012.36 43.5172 1012.68 43.5172H1016.33C1016.65 43.5172 1016.81 43.6772 1016.81 43.9972V51.1492C1016.81 51.2772 1016.87 51.3412 1017 51.3412H1019.06ZM1045.33 47.9332C1046.23 49.6292 1046.68 51.6612 1046.68 54.0292C1046.68 55.9812 1046.36 57.6932 1045.72 59.1652C1044.98 60.9892 1043.83 62.3972 1042.26 63.3892C1040.72 64.3492 1038.85 64.8292 1036.64 64.8292C1034.28 64.8292 1032.26 64.2852 1030.6 63.1972C1028.96 62.1092 1027.81 60.5732 1027.14 58.5892C1026.66 57.2452 1026.42 55.6932 1026.42 53.9332V39.1492C1026.42 36.5252 1027.33 34.4292 1029.16 32.8612C1030.98 31.2932 1033.36 30.5092 1036.31 30.5092C1038.2 30.5092 1039.86 30.8612 1041.3 31.5652C1042.77 32.2692 1043.91 33.2612 1044.71 34.5412C1045.51 35.7892 1045.91 37.2292 1045.91 38.8612V39.8212C1045.91 40.1412 1045.75 40.3012 1045.43 40.3012H1041.78C1041.46 40.3012 1041.3 40.1412 1041.3 39.8212V39.3892C1041.3 37.9492 1040.84 36.7812 1039.91 35.8852C1038.98 34.9892 1037.78 34.5412 1036.31 34.5412C1034.74 34.5412 1033.46 35.0052 1032.47 35.9332C1031.51 36.8612 1031.03 38.0932 1031.03 39.6292V45.6772C1031.03 45.7412 1031.04 45.7892 1031.08 45.8212C1031.14 45.8212 1031.2 45.7892 1031.27 45.7252C1032.64 44.1892 1034.64 43.4212 1037.27 43.4212C1041.04 43.4212 1043.73 44.9252 1045.33 47.9332ZM1041.35 57.7252C1041.83 56.7012 1042.07 55.4692 1042.07 54.0292C1042.07 52.3972 1041.78 51.0852 1041.2 50.0932C1040.28 48.2372 1038.71 47.3092 1036.5 47.3092C1035.38 47.3092 1034.42 47.5652 1033.62 48.0772C1032.82 48.5572 1032.21 49.2612 1031.8 50.1892C1031.28 51.2452 1031.03 52.6052 1031.03 54.2692C1031.03 55.6132 1031.24 56.7492 1031.65 57.6772C1032.07 58.7012 1032.69 59.4852 1033.52 60.0292C1034.36 60.5412 1035.36 60.7972 1036.55 60.7972C1038.88 60.7972 1040.48 59.7732 1041.35 57.7252ZM1071.99 36.7972C1072.47 38.1412 1072.71 39.6932 1072.71 41.4532V56.2372C1072.71 58.8612 1071.8 60.9572 1069.98 62.5252C1068.15 64.0932 1065.77 64.8772 1062.83 64.8772C1060.94 64.8772 1059.26 64.5252 1057.79 63.8212C1056.35 63.1172 1055.23 62.1412 1054.43 60.8932C1053.63 59.6132 1053.23 58.1572 1053.23 56.5252V55.5652C1053.23 55.2452 1053.39 55.0852 1053.71 55.0852H1057.35C1057.67 55.0852 1057.83 55.2452 1057.83 55.5652V55.9972C1057.83 57.4372 1058.3 58.6052 1059.23 59.5012C1060.15 60.3972 1061.35 60.8452 1062.83 60.8452C1064.36 60.8452 1065.63 60.3812 1066.62 59.4532C1067.61 58.5252 1068.11 57.2932 1068.11 55.7572V49.7092C1068.11 49.6452 1068.07 49.5972 1068.01 49.5652C1067.98 49.5332 1067.93 49.5492 1067.87 49.6132C1066.49 51.1812 1064.49 51.9652 1061.87 51.9652C1059.98 51.9652 1058.35 51.5812 1056.97 50.8132C1055.63 50.0452 1054.57 48.9252 1053.8 47.4532C1052.91 45.7572 1052.46 43.7252 1052.46 41.3572C1052.46 39.4372 1052.76 37.7252 1053.37 36.2212C1054.11 34.3972 1055.26 33.0052 1056.83 32.0452C1058.39 31.0532 1060.28 30.5572 1062.49 30.5572C1064.86 30.5572 1066.86 31.1012 1068.49 32.1892C1070.12 33.2772 1071.29 34.8132 1071.99 36.7972ZM1067.34 45.1972C1067.85 44.1412 1068.11 42.7812 1068.11 41.1172C1068.11 39.7732 1067.9 38.6372 1067.48 37.7092C1067.07 36.6852 1066.44 35.9172 1065.61 35.4052C1064.78 34.8612 1063.77 34.5892 1062.59 34.5892C1061.4 34.5892 1060.39 34.8612 1059.56 35.4052C1058.76 35.9172 1058.17 36.6692 1057.79 37.6612C1057.31 38.6532 1057.07 39.8852 1057.07 41.3572C1057.07 42.9572 1057.34 44.2692 1057.88 45.2932C1058.87 47.1492 1060.44 48.0772 1062.59 48.0772C1064.86 48.0772 1066.44 47.1172 1067.34 45.1972ZM1098.7 50.1412C1099.37 51.4852 1099.71 53.0852 1099.71 54.9412C1099.71 56.9892 1099.26 58.7812 1098.36 60.3172C1097.6 61.7572 1096.44 62.8772 1094.91 63.6772C1093.4 64.4772 1091.63 64.8772 1089.58 64.8772C1087.53 64.8772 1085.72 64.4772 1084.16 63.6772C1082.59 62.8452 1081.4 61.6612 1080.6 60.1252C1079.74 58.6212 1079.31 56.8772 1079.31 54.8932C1079.31 53.1332 1079.66 51.5172 1080.36 50.0452C1081.07 48.5732 1082.11 47.4692 1083.48 46.7332C1083.64 46.6692 1083.64 46.5892 1083.48 46.4932C1082.46 45.7252 1081.69 44.9252 1081.18 44.0932C1080.28 42.7492 1079.84 41.2132 1079.84 39.4852C1079.84 37.5972 1080.38 35.8692 1081.47 34.3012C1082.27 33.0852 1083.37 32.1252 1084.78 31.4212C1086.22 30.7172 1087.82 30.3652 1089.58 30.3652C1091.37 30.3652 1092.96 30.7172 1094.33 31.4212C1095.71 32.1252 1096.8 33.0852 1097.6 34.3012C1098.65 35.8692 1099.18 37.5972 1099.18 39.4852C1099.18 41.2132 1098.73 42.7812 1097.84 44.1892C1097.26 45.0852 1096.51 45.8532 1095.58 46.4932C1095.42 46.5892 1095.42 46.6692 1095.58 46.7332C1096.92 47.4692 1097.96 48.6052 1098.7 50.1412ZM1085.07 37.0372C1084.62 37.8692 1084.4 38.6852 1084.4 39.4852C1084.4 40.7652 1084.7 41.8372 1085.31 42.7012C1086.17 44.1412 1087.58 44.8612 1089.53 44.8612C1091.45 44.8612 1092.88 44.1252 1093.8 42.6532C1094.35 41.8852 1094.62 40.8132 1094.62 39.4372C1094.62 38.5412 1094.41 37.7252 1094 36.9892C1093.58 36.1892 1092.99 35.5492 1092.22 35.0692C1091.45 34.5892 1090.54 34.3492 1089.48 34.3492C1088.49 34.3492 1087.61 34.5892 1086.84 35.0692C1086.08 35.5492 1085.48 36.2052 1085.07 37.0372ZM1093.95 58.6852C1094.68 57.6612 1095.05 56.2852 1095.05 54.5572C1095.05 53.0212 1094.78 51.7572 1094.24 50.7652C1093.34 49.1012 1091.77 48.2692 1089.53 48.2692C1087.36 48.2692 1085.82 49.0532 1084.92 50.6212C1084.32 51.6452 1084.01 52.9732 1084.01 54.6052C1084.01 56.2052 1084.35 57.5172 1085.02 58.5412C1085.95 60.0772 1087.47 60.8452 1089.58 60.8452C1091.56 60.8452 1093.02 60.1252 1093.95 58.6852ZM1127.85 51.3412C1128.17 51.3412 1128.33 51.5012 1128.33 51.8212V54.9892C1128.33 55.3092 1128.17 55.4692 1127.85 55.4692H1125.79C1125.66 55.4692 1125.6 55.5332 1125.6 55.6612V64.0132C1125.6 64.3332 1125.44 64.4932 1125.12 64.4932H1121.47C1121.15 64.4932 1120.99 64.3332 1120.99 64.0132V55.6612C1120.99 55.5332 1120.92 55.4692 1120.8 55.4692H1106.2C1105.88 55.4692 1105.72 55.3092 1105.72 54.9892V52.3972C1105.72 52.2372 1105.77 52.0452 1105.87 51.8212L1115.32 31.2292C1115.42 31.0052 1115.6 30.8932 1115.85 30.8932H1119.69C1119.85 30.8932 1119.96 30.9572 1120.03 31.0852C1120.12 31.1812 1120.14 31.3092 1120.08 31.4692L1111.05 51.1012C1111.02 51.1652 1111.02 51.2292 1111.05 51.2932C1111.08 51.3252 1111.13 51.3412 1111.2 51.3412H1120.8C1120.92 51.3412 1120.99 51.2772 1120.99 51.1492V43.9972C1120.99 43.6772 1121.15 43.5172 1121.47 43.5172H1125.12C1125.44 43.5172 1125.6 43.6772 1125.6 43.9972V51.1492C1125.6 51.2772 1125.66 51.3412 1125.79 51.3412H1127.85ZM1154.27 50.1412C1154.94 51.4852 1155.28 53.0852 1155.28 54.9412C1155.28 56.9892 1154.83 58.7812 1153.93 60.3172C1153.16 61.7572 1152.01 62.8772 1150.48 63.6772C1148.97 64.4772 1147.2 64.8772 1145.15 64.8772C1143.1 64.8772 1141.29 64.4772 1139.72 63.6772C1138.16 62.8452 1136.97 61.6612 1136.17 60.1252C1135.31 58.6212 1134.88 56.8772 1134.88 54.8932C1134.88 53.1332 1135.23 51.5172 1135.93 50.0452C1136.64 48.5732 1137.68 47.4692 1139.05 46.7332C1139.21 46.6692 1139.21 46.5892 1139.05 46.4932C1138.03 45.7252 1137.26 44.9252 1136.75 44.0932C1135.85 42.7492 1135.4 41.2132 1135.4 39.4852C1135.4 37.5972 1135.95 35.8692 1137.04 34.3012C1137.84 33.0852 1138.94 32.1252 1140.35 31.4212C1141.79 30.7172 1143.39 30.3652 1145.15 30.3652C1146.94 30.3652 1148.52 30.7172 1149.9 31.4212C1151.28 32.1252 1152.36 33.0852 1153.16 34.3012C1154.22 35.8692 1154.75 37.5972 1154.75 39.4852C1154.75 41.2132 1154.3 42.7812 1153.4 44.1892C1152.83 45.0852 1152.08 45.8532 1151.15 46.4932C1150.99 46.5892 1150.99 46.6692 1151.15 46.7332C1152.49 47.4692 1153.53 48.6052 1154.27 50.1412ZM1140.64 37.0372C1140.19 37.8692 1139.96 38.6852 1139.96 39.4852C1139.96 40.7652 1140.27 41.8372 1140.88 42.7012C1141.74 44.1412 1143.15 44.8612 1145.1 44.8612C1147.02 44.8612 1148.44 44.1252 1149.37 42.6532C1149.92 41.8852 1150.19 40.8132 1150.19 39.4372C1150.19 38.5412 1149.98 37.7252 1149.56 36.9892C1149.15 36.1892 1148.56 35.5492 1147.79 35.0692C1147.02 34.5892 1146.11 34.3492 1145.05 34.3492C1144.06 34.3492 1143.18 34.5892 1142.41 35.0692C1141.64 35.5492 1141.05 36.2052 1140.64 37.0372ZM1149.52 58.6852C1150.25 57.6612 1150.62 56.2852 1150.62 54.5572C1150.62 53.0212 1150.35 51.7572 1149.8 50.7652C1148.91 49.1012 1147.34 48.2692 1145.1 48.2692C1142.92 48.2692 1141.39 49.0532 1140.49 50.6212C1139.88 51.6452 1139.58 52.9732 1139.58 54.6052C1139.58 56.2052 1139.92 57.5172 1140.59 58.5412C1141.52 60.0772 1143.04 60.8452 1145.15 60.8452C1147.13 60.8452 1148.59 60.1252 1149.52 58.6852ZM1167.82 60.2692C1167.79 60.3332 1167.79 60.3972 1167.82 60.4612C1167.85 60.4932 1167.9 60.5092 1167.96 60.5092H1182.41C1182.73 60.5092 1182.89 60.6692 1182.89 60.9892V64.0132C1182.89 64.3332 1182.73 64.4932 1182.41 64.4932H1162.3C1161.98 64.4932 1161.82 64.3332 1161.82 64.0132V61.0852C1161.82 60.8612 1161.9 60.6692 1162.06 60.5092C1163.15 59.2612 1165.64 56.3332 1169.55 51.7252L1172.86 47.7412C1175.84 44.1892 1177.32 41.4372 1177.32 39.4852C1177.32 37.9812 1176.81 36.7812 1175.79 35.8852C1174.8 34.9572 1173.47 34.4932 1171.8 34.4932C1170.14 34.4932 1168.81 34.9572 1167.82 35.8852C1166.83 36.8132 1166.35 38.0292 1166.38 39.5332V40.9732C1166.38 41.2932 1166.22 41.4532 1165.9 41.4532H1162.2C1161.88 41.4532 1161.72 41.2932 1161.72 40.9732V38.9092C1161.79 37.2452 1162.25 35.7732 1163.12 34.4932C1164.01 33.2132 1165.21 32.2372 1166.72 31.5652C1168.22 30.8612 1169.92 30.5092 1171.8 30.5092C1173.85 30.5092 1175.64 30.8932 1177.18 31.6612C1178.72 32.4292 1179.9 33.4852 1180.73 34.8292C1181.56 36.1732 1181.98 37.6932 1181.98 39.3892C1181.98 42.0452 1180.54 45.1812 1177.66 48.7972C1176.38 50.4292 1174.86 52.2692 1173.1 54.3172C1171.34 56.3332 1169.58 58.3172 1167.82 60.2692ZM1208.43 47.9332C1209.32 49.6292 1209.77 51.6612 1209.77 54.0292C1209.77 55.9812 1209.45 57.6932 1208.81 59.1652C1208.07 60.9892 1206.92 62.3972 1205.35 63.3892C1203.82 64.3492 1201.95 64.8292 1199.74 64.8292C1197.37 64.8292 1195.35 64.2852 1193.69 63.1972C1192.06 62.1092 1190.91 60.5732 1190.23 58.5892C1189.75 57.2452 1189.51 55.6932 1189.51 53.9332V39.1492C1189.51 36.5252 1190.43 34.4292 1192.25 32.8612C1194.07 31.2932 1196.46 30.5092 1199.4 30.5092C1201.29 30.5092 1202.95 30.8612 1204.39 31.5652C1205.87 32.2692 1207 33.2612 1207.8 34.5412C1208.6 35.7892 1209 37.2292 1209 38.8612V39.8212C1209 40.1412 1208.84 40.3012 1208.52 40.3012H1204.87C1204.55 40.3012 1204.39 40.1412 1204.39 39.8212V39.3892C1204.39 37.9492 1203.93 36.7812 1203 35.8852C1202.07 34.9892 1200.87 34.5412 1199.4 34.5412C1197.83 34.5412 1196.55 35.0052 1195.56 35.9332C1194.6 36.8612 1194.12 38.0932 1194.12 39.6292V45.6772C1194.12 45.7412 1194.14 45.7892 1194.17 45.8212C1194.23 45.8212 1194.3 45.7892 1194.36 45.7252C1195.74 44.1892 1197.74 43.4212 1200.36 43.4212C1204.14 43.4212 1206.83 44.9252 1208.43 47.9332ZM1204.44 57.7252C1204.92 56.7012 1205.16 55.4692 1205.16 54.0292C1205.16 52.3972 1204.87 51.0852 1204.3 50.0932C1203.37 48.2372 1201.8 47.3092 1199.59 47.3092C1198.47 47.3092 1197.51 47.5652 1196.71 48.0772C1195.91 48.5572 1195.31 49.2612 1194.89 50.1892C1194.38 51.2452 1194.12 52.6052 1194.12 54.2692C1194.12 55.6132 1194.33 56.7492 1194.75 57.6772C1195.16 58.7012 1195.79 59.4852 1196.62 60.0292C1197.45 60.5412 1198.46 60.7972 1199.64 60.7972C1201.98 60.7972 1203.58 59.7732 1204.44 57.7252ZM1235.81 49.6132C1236.16 51.0212 1236.33 52.4772 1236.33 53.9812C1236.33 55.4852 1236.14 56.8772 1235.76 58.1572C1235.15 60.2052 1233.98 61.8372 1232.25 63.0532C1230.56 64.2372 1228.53 64.8292 1226.16 64.8292C1223.82 64.8292 1221.82 64.2532 1220.16 63.1012C1218.49 61.9492 1217.33 60.3812 1216.65 58.3972C1216.33 57.5012 1216.16 56.7172 1216.13 56.0452V55.9492C1216.13 55.6932 1216.27 55.5652 1216.56 55.5652H1220.35C1220.64 55.5652 1220.8 55.7092 1220.83 55.9972C1220.86 56.2212 1220.94 56.5572 1221.07 57.0052C1221.42 58.1892 1222.03 59.1332 1222.89 59.8372C1223.79 60.5092 1224.86 60.8452 1226.11 60.8452C1227.42 60.8452 1228.53 60.4932 1229.42 59.7892C1230.35 59.0532 1230.97 58.0452 1231.29 56.7652C1231.52 56.0932 1231.63 55.1652 1231.63 53.9812C1231.63 52.9252 1231.53 51.9492 1231.34 51.0532C1231.12 49.8372 1230.54 48.9092 1229.61 48.2692C1228.72 47.5972 1227.6 47.2612 1226.25 47.2612C1225.01 47.2612 1223.89 47.5492 1222.89 48.1252C1221.9 48.6692 1221.26 49.4052 1220.97 50.3332C1220.88 50.6212 1220.7 50.7652 1220.45 50.7652H1216.61C1216.29 50.7652 1216.13 50.6052 1216.13 50.2852V31.3732C1216.13 31.0532 1216.29 30.8932 1216.61 30.8932H1234.56C1234.88 30.8932 1235.04 31.0532 1235.04 31.3732V34.3972C1235.04 34.7172 1234.88 34.8772 1234.56 34.8772H1220.93C1220.8 34.8772 1220.73 34.9412 1220.73 35.0692L1220.69 45.1012C1220.69 45.2932 1220.77 45.3412 1220.93 45.2452C1221.69 44.5732 1222.57 44.0772 1223.57 43.7572C1224.59 43.4052 1225.66 43.2292 1226.78 43.2292C1229.02 43.2292 1230.94 43.7892 1232.54 44.9092C1234.17 46.0292 1235.26 47.5972 1235.81 49.6132ZM1261.56 47.9332C1262.45 49.6292 1262.9 51.6612 1262.9 54.0292C1262.9 55.9812 1262.58 57.6932 1261.94 59.1652C1261.2 60.9892 1260.05 62.3972 1258.48 63.3892C1256.95 64.3492 1255.08 64.8292 1252.87 64.8292C1250.5 64.8292 1248.48 64.2852 1246.82 63.1972C1245.19 62.1092 1244.04 60.5732 1243.36 58.5892C1242.88 57.2452 1242.64 55.6932 1242.64 53.9332V39.1492C1242.64 36.5252 1243.56 34.4292 1245.38 32.8612C1247.2 31.2932 1249.59 30.5092 1252.53 30.5092C1254.42 30.5092 1256.08 30.8612 1257.52 31.5652C1259 32.2692 1260.13 33.2612 1260.93 34.5412C1261.73 35.7892 1262.13 37.2292 1262.13 38.8612V39.8212C1262.13 40.1412 1261.97 40.3012 1261.65 40.3012H1258C1257.68 40.3012 1257.52 40.1412 1257.52 39.8212V39.3892C1257.52 37.9492 1257.06 36.7812 1256.13 35.8852C1255.2 34.9892 1254 34.5412 1252.53 34.5412C1250.96 34.5412 1249.68 35.0052 1248.69 35.9332C1247.73 36.8612 1247.25 38.0932 1247.25 39.6292V45.6772C1247.25 45.7412 1247.27 45.7892 1247.3 45.8212C1247.36 45.8212 1247.43 45.7892 1247.49 45.7252C1248.87 44.1892 1250.87 43.4212 1253.49 43.4212C1257.27 43.4212 1259.96 44.9252 1261.56 47.9332ZM1257.57 57.7252C1258.05 56.7012 1258.29 55.4692 1258.29 54.0292C1258.29 52.3972 1258 51.0852 1257.43 50.0932C1256.5 48.2372 1254.93 47.3092 1252.72 47.3092C1251.6 47.3092 1250.64 47.5652 1249.84 48.0772C1249.04 48.5572 1248.44 49.2612 1248.02 50.1892C1247.51 51.2452 1247.25 52.6052 1247.25 54.2692C1247.25 55.6132 1247.46 56.7492 1247.88 57.6772C1248.29 58.7012 1248.92 59.4852 1249.75 60.0292C1250.58 60.5412 1251.59 60.7972 1252.77 60.7972C1255.11 60.7972 1256.71 59.7732 1257.57 57.7252ZM1288.94 49.6132C1289.29 51.0212 1289.46 52.4772 1289.46 53.9812C1289.46 55.4852 1289.27 56.8772 1288.89 58.1572C1288.28 60.2052 1287.11 61.8372 1285.38 63.0532C1283.69 64.2372 1281.66 64.8292 1279.29 64.8292C1276.95 64.8292 1274.95 64.2532 1273.29 63.1012C1271.62 61.9492 1270.46 60.3812 1269.78 58.3972C1269.46 57.5012 1269.29 56.7172 1269.26 56.0452V55.9492C1269.26 55.6932 1269.4 55.5652 1269.69 55.5652H1273.48C1273.77 55.5652 1273.93 55.7092 1273.96 55.9972C1273.99 56.2212 1274.07 56.5572 1274.2 57.0052C1274.55 58.1892 1275.16 59.1332 1276.02 59.8372C1276.92 60.5092 1277.99 60.8452 1279.24 60.8452C1280.55 60.8452 1281.66 60.4932 1282.55 59.7892C1283.48 59.0532 1284.1 58.0452 1284.42 56.7652C1284.65 56.0932 1284.76 55.1652 1284.76 53.9812C1284.76 52.9252 1284.66 51.9492 1284.47 51.0532C1284.25 49.8372 1283.67 48.9092 1282.74 48.2692C1281.85 47.5972 1280.73 47.2612 1279.38 47.2612C1278.14 47.2612 1277.02 47.5492 1276.02 48.1252C1275.03 48.6692 1274.39 49.4052 1274.1 50.3332C1274.01 50.6212 1273.83 50.7652 1273.58 50.7652H1269.74C1269.42 50.7652 1269.26 50.6052 1269.26 50.2852V31.3732C1269.26 31.0532 1269.42 30.8932 1269.74 30.8932H1287.69C1288.01 30.8932 1288.17 31.0532 1288.17 31.3732V34.3972C1288.17 34.7172 1288.01 34.8772 1287.69 34.8772H1274.06C1273.93 34.8772 1273.86 34.9412 1273.86 35.0692L1273.82 45.1012C1273.82 45.2932 1273.9 45.3412 1274.06 45.2452C1274.82 44.5732 1275.7 44.0772 1276.7 43.7572C1277.72 43.4052 1278.79 43.2292 1279.91 43.2292C1282.15 43.2292 1284.07 43.7892 1285.67 44.9092C1287.3 46.0292 1288.39 47.5972 1288.94 49.6132ZM1306.57 64.9732C1303.34 64.9732 1300.77 64.0612 1298.85 62.2372C1296.96 60.3812 1296.01 57.9012 1296.01 54.7972V40.5892C1296.01 37.4852 1296.96 35.0212 1298.85 33.1972C1300.77 31.3732 1303.34 30.4612 1306.57 30.4612C1309.81 30.4612 1312.38 31.3732 1314.3 33.1972C1316.25 35.0212 1317.23 37.4852 1317.23 40.5892V54.7972C1317.23 57.9012 1316.25 60.3812 1314.3 62.2372C1312.38 64.0612 1309.81 64.9732 1306.57 64.9732ZM1306.57 60.9892C1308.43 60.9892 1309.9 60.4612 1310.99 59.4052C1312.08 58.3172 1312.62 56.8772 1312.62 55.0852V40.3972C1312.62 38.6052 1312.08 37.1812 1310.99 36.1252C1309.9 35.0372 1308.43 34.4932 1306.57 34.4932C1304.78 34.4932 1303.34 35.0372 1302.25 36.1252C1301.17 37.1812 1300.62 38.6052 1300.62 40.3972V55.0852C1300.62 56.8772 1301.17 58.3172 1302.25 59.4052C1303.34 60.4612 1304.78 60.9892 1306.57 60.9892ZM1328.75 31.0372C1328.94 30.9412 1329.15 30.8932 1329.37 30.8932H1333.16C1333.48 30.8932 1333.64 31.0532 1333.64 31.3732V64.0132C1333.64 64.3332 1333.48 64.4932 1333.16 64.4932H1329.51C1329.19 64.4932 1329.03 64.3332 1329.03 64.0132V35.8372C1329.03 35.7732 1329 35.7252 1328.94 35.6932C1328.91 35.6612 1328.86 35.6612 1328.79 35.6932L1323.75 37.4212C1323.69 37.4532 1323.61 37.4692 1323.51 37.4692C1323.32 37.4692 1323.21 37.3412 1323.18 37.0852L1322.99 34.3492C1322.99 34.0292 1323.08 33.8372 1323.27 33.7732L1328.75 31.0372Z" fill="white"/>
</svg>
