<svg width="22" height="22" viewBox="0 0 22 22" fill="none" xmlns="http://www.w3.org/2000/svg">
<g clip-path="url(#clip0_44_32)">
<path d="M0.0114156 21.9999C0.0296805 21.9725 0.0479455 21.945 0.0684935 21.9199C2.0822 19.5723 4.09591 17.2247 6.11191 14.8771C6.84707 14.0214 7.58223 13.1633 8.3174 12.3076C8.33794 12.2847 8.35621 12.2618 8.38132 12.2321C5.58907 8.16156 2.7991 4.09105 0 0.00451442C0.0502286 0.00222633 0.0844753 -6.17618e-05 0.116439 -6.17618e-05C1.00001 -6.17618e-05 1.88129 -6.17618e-05 2.76486 -6.17618e-05C3.93609 -6.17618e-05 5.10733 -6.17618e-05 6.28086 -0.00234985C6.36077 -0.00234985 6.40871 0.0205311 6.45437 0.0891738C8.26032 2.72963 10.0685 5.3678 11.8768 8.00597C11.8928 8.03114 11.911 8.05402 11.9339 8.08605C11.959 8.0586 11.9795 8.03572 12.0001 8.01055C12.9658 6.88481 13.9316 5.75906 14.8996 4.63104C16.201 3.11403 17.5024 1.59931 18.8015 0.0823095C18.8517 0.0228192 18.9042 -0.00234985 18.9841 -6.17618e-05C19.5389 0.00222633 20.0937 0.00222633 20.6485 0.00222633C20.6805 0.00222633 20.7124 0.00222633 20.7695 0.00222633C18.0983 3.11632 15.4384 6.21439 12.7786 9.31705C12.8014 9.35366 12.8243 9.38569 12.8448 9.41772C14.3174 11.5662 15.79 13.7148 17.2604 15.861C18.6371 17.8676 20.0115 19.8766 21.3882 21.8832C21.4134 21.9199 21.4293 21.961 21.4476 21.9999H15.0572C15.0435 21.9725 15.032 21.9404 15.0138 21.9153C13.8403 20.2038 12.6667 18.4923 11.4932 16.7808C10.7535 15.7008 10.0138 14.6231 9.27631 13.5432C9.25804 13.518 9.23978 13.4928 9.21923 13.4654C9.19183 13.4951 9.17128 13.518 9.15302 13.5409C8.22379 14.6208 7.29684 15.7008 6.3699 16.7831C4.89729 18.5014 3.42239 20.2175 1.94978 21.9359C1.9338 21.9542 1.92238 21.9793 1.9064 22.0022L0.0114156 21.9999ZM18.87 20.6385C18.838 20.5905 18.8152 20.5562 18.7923 20.5218C17.5001 18.6708 16.2101 16.8174 14.9179 14.9663C12.4613 11.4427 10.0069 7.92131 7.55027 4.39765C6.87675 3.43208 6.20323 2.4665 5.53199 1.50093C5.50231 1.45745 5.47492 1.42771 5.41327 1.42771C4.49318 1.43 3.5708 1.43 2.64842 1.43C2.63015 1.43 2.6096 1.43457 2.57992 1.43915C2.61189 1.4872 2.63928 1.5261 2.66668 1.56499C4.3676 4.0041 6.06624 6.44092 7.76488 8.87773C10.4772 12.7675 13.1896 16.6572 15.8996 20.5493C15.9453 20.6156 15.9932 20.6408 16.0731 20.6385C16.9681 20.6362 17.8608 20.6362 18.7558 20.6362C18.7878 20.6385 18.8197 20.6385 18.87 20.6385Z" fill="black"/>
</g>
<defs>
<clipPath id="clip0_44_32">
<rect width="21.443" height="22" fill="white"/>
</clipPath>
</defs>
</svg>
