<?xml version="1.0" encoding="UTF-8" standalone="no"?>
<svg width="60px" height="60px" viewBox="0 0 60 60" version="1.1" xmlns="http://www.w3.org/2000/svg" xmlns:xlink="http://www.w3.org/1999/xlink" xmlns:sketch="http://www.bohemiancoding.com/sketch/ns">
    <!-- Generator: Sketch 3.2.2 (9983) - http://www.bohemiancoding.com/sketch -->
    <title>Editpoint</title>
    <desc>Created with Sketch.</desc>
    <defs></defs>
    <g id="outlined" stroke="none" stroke-width="1" fill="none" fill-rule="evenodd" sketch:type="MSPage">
        <g id="Interface" sketch:type="MSLayerGroup" transform="translate(-837.000000, -1195.000000)" stroke="#535353" stroke-width="2" stroke-linejoin="round">
            <g id="Editpoint" transform="translate(843.000000, 1201.000000)" sketch:type="MSShapeGroup">
                <polygon id="Triangle-95" stroke-linecap="round" transform="translate(24.050253, 27.449747) rotate(-135.000000) translate(-24.050253, -27.449747) " points="24.0502525 12.9497475 39.0502525 41.9497475 9.05025253 41.9497475 "></polygon>
                <path d="M29.2530483,5.24695167 L49.2530483,5.24695167 L47.2530483,19.2469517 L31.2530483,19.2469517 L29.2530483,5.24695167 Z" id="Rectangle-2301" stroke-linecap="round" transform="translate(39.253048, 12.246952) rotate(-135.000000) translate(-39.253048, -12.246952) "></path>
                <path d="M19.8076118,24.1923882 L19.8076118,39.1923882" id="Line" stroke-linecap="square" transform="translate(19.807612, 31.692388) rotate(-135.000000) translate(-19.807612, -31.692388) "></path>
                <circle id="Oval-1800" stroke-linecap="round" transform="translate(28.646447, 22.853553) rotate(-135.000000) translate(-28.646447, -22.853553) " cx="28.6464466" cy="22.8535534" r="4"></circle>
                <rect id="Rectangle-2302" stroke-linecap="round" x="0" y="42" width="8" height="8"></rect>
                <path d="M4,41 L4,36" id="Line" stroke-linecap="square"></path>
                <path d="M14,46 L9,46" id="Line" stroke-linecap="square"></path>
            </g>
        </g>
        <g id="Interface_sliced" sketch:type="MSLayerGroup" transform="translate(-840.000000, -1200.000000)"></g>
    </g>
</svg>