<?xml version="1.0" encoding="UTF-8" standalone="no"?>
<svg width="60px" height="60px" viewBox="0 0 60 60" version="1.1" xmlns="http://www.w3.org/2000/svg" xmlns:xlink="http://www.w3.org/1999/xlink" xmlns:sketch="http://www.bohemiancoding.com/sketch/ns">
    <!-- Generator: Sketch 3.2.2 (9983) - http://www.bohemiancoding.com/sketch -->
    <title>Library</title>
    <desc>Created with Sketch.</desc>
    <defs></defs>
    <g id="outlined" stroke="none" stroke-width="1" fill="none" fill-rule="evenodd" sketch:type="MSPage">
        <g id="Interface" sketch:type="MSLayerGroup" transform="translate(-237.000000, -2155.000000)" stroke="#535353" stroke-width="2" stroke-linejoin="round">
            <g id="Library" transform="translate(240.000000, 2165.000000)" sketch:type="MSShapeGroup">
                <rect id="Rectangle-2410" stroke-linecap="round" x="0" y="0" width="54" height="40"></rect>
                <rect id="Rectangle-2468" stroke-linecap="round" x="5" y="4" width="20" height="33"></rect>
                <path d="M6,11 L0.900980473,11" id="Line" stroke-linecap="square"></path>
                <path d="M30,11 L24.9009805,11" id="Line" stroke-linecap="square"></path>
                <path d="M54,11 L48.9009805,11" id="Line" stroke-linecap="square"></path>
                <path d="M11,18 L19,18" id="Line" stroke-linecap="square"></path>
                <path d="M11,22 L19,22" id="Line" stroke-linecap="square"></path>
                <path d="M11,26 L19,26" id="Line" stroke-linecap="square"></path>
                <path d="M11,30 L19,30" id="Line" stroke-linecap="square"></path>
                <path d="M35,18 L43,18" id="Line-415" stroke-linecap="square"></path>
                <path d="M35,22 L43,22" id="Line-412" stroke-linecap="square"></path>
                <path d="M35,26 L43,26" id="Line-413" stroke-linecap="square"></path>
                <path d="M35,30 L43,30" id="Line-414" stroke-linecap="square"></path>
                <rect id="Rectangle-2468" stroke-linecap="round" x="29" y="4" width="20" height="33"></rect>
            </g>
        </g>
        <g id="Interface_sliced" sketch:type="MSLayerGroup" transform="translate(-240.000000, -2160.000000)"></g>
    </g>
</svg>