<?xml version="1.0" encoding="UTF-8" standalone="no"?>
<svg width="60px" height="60px" viewBox="0 0 60 60" version="1.1" xmlns="http://www.w3.org/2000/svg" xmlns:xlink="http://www.w3.org/1999/xlink" xmlns:sketch="http://www.bohemiancoding.com/sketch/ns">
    <!-- Generator: Sketch 3.2.2 (9983) - http://www.bohemiancoding.com/sketch -->
    <title>Maleprofile</title>
    <desc>Created with Sketch.</desc>
    <defs></defs>
    <g id="outlined" stroke="none" stroke-width="1" fill="none" fill-rule="evenodd" sketch:type="MSPage">
        <g id="Interface" sketch:type="MSLayerGroup" transform="translate(-717.000000, -1795.000000)" stroke="#535353" stroke-width="2" stroke-linejoin="round">
            <g id="Maleprofile" transform="translate(719.000000, 1802.000000)" sketch:type="MSShapeGroup">
                <rect id="Rectangle-2375" stroke-linecap="round" x="0" y="0" width="56" height="45"></rect>
                <path d="M11.1176471,15.2012572 L11.1176471,12.5581055 C11.1176471,8.93616383 14.0513567,6 17.6691899,6 L31,6 L31,15.2215966 L31,15.2215966 C32.1393974,15.4430421 33,16.4526825 33,17.6533528 L33,18.3466472 C33,19.5631677 32.1327324,20.5748493 30.9743805,20.7839179 C30.6058999,25.9352707 26.308446,30 21.0588235,30 C15.8169317,30 11.5226228,25.9363942 11.1446773,20.8020478 C9.93424721,20.6412474 9,19.5976358 9,18.3466472 L9,17.6533528 C9,16.404824 9.91350603,15.3720551 11.1176471,15.2012572 Z" id="Rectangle-2323" stroke-linecap="round"></path>
                <path d="M16.3041498,30 L13.9657895,34.7727273 L8.39891814,34.7727273 C5.542082,34.7727273 2.99999999,37.1758166 2.99999999,40 L2.99999999,44.5 M39,45 L39,39.8863636 C39,37.0679269 36.6888598,34.7727273 33.837924,34.7727273 L27.5832996,34.7727273 L25.2449393,30" id="Rectangle-2326" stroke-linecap="round"></path>
                <path d="M37.3581291,9 L51,9" id="Line" stroke-linecap="square"></path>
                <path d="M37.3581291,13 L51,13" id="Line" stroke-linecap="square"></path>
                <path d="M37.3581291,17 L46.9999996,17" id="Line" stroke-linecap="square"></path>
            </g>
        </g>
        <g id="Interface_sliced" sketch:type="MSLayerGroup" transform="translate(-720.000000, -1800.000000)"></g>
    </g>
</svg>