<?xml version="1.0" encoding="UTF-8" standalone="no"?>
<svg width="60px" height="60px" viewBox="0 0 60 60" version="1.1" xmlns="http://www.w3.org/2000/svg" xmlns:xlink="http://www.w3.org/1999/xlink" xmlns:sketch="http://www.bohemiancoding.com/sketch/ns">
    <!-- Generator: Sketch 3.2.2 (9983) - http://www.bohemiancoding.com/sketch -->
    <title>Orientation</title>
    <desc>Created with Sketch.</desc>
    <defs></defs>
    <g id="outlined" stroke="none" stroke-width="1" fill="none" fill-rule="evenodd" sketch:type="MSPage">
        <g id="Interface" sketch:type="MSLayerGroup" transform="translate(-837.000000, -955.000000)" stroke="#535353" stroke-width="2" stroke-linecap="round" stroke-linejoin="round">
            <g id="Orientation" transform="translate(841.000000, 959.000000)" sketch:type="MSShapeGroup">
                <path d="M24,27 L24,0 L0,0 L0,34 L17,34 L17,27 L24,27 Z" id="Rectangle-2292"></path>
                <rect id="Rectangle-2295" transform="translate(34.000000, 39.000000) rotate(-90.000000) translate(-34.000000, -39.000000) " x="22" y="22" width="24" height="34"></rect>
                <path d="M45,17 C45,11.4771525 40.5228475,7 35,7" id="Oval-1786"></path>
                <path d="M32,10 L32,4 L38,4" id="Rectangle-2295" transform="translate(35.000000, 7.000000) rotate(-45.000000) translate(-35.000000, -7.000000) "></path>
                <path d="M42,20 L42,14 L48,14" id="Rectangle-2295" transform="translate(45.000000, 17.000000) rotate(-135.000000) translate(-45.000000, -17.000000) "></path>
            </g>
        </g>
        <g id="Interface_sliced" sketch:type="MSLayerGroup" transform="translate(-840.000000, -960.000000)"></g>
    </g>
</svg>