<?xml version="1.0" encoding="UTF-8" standalone="no"?>
<svg width="60px" height="60px" viewBox="0 0 60 60" version="1.1" xmlns="http://www.w3.org/2000/svg" xmlns:xlink="http://www.w3.org/1999/xlink" xmlns:sketch="http://www.bohemiancoding.com/sketch/ns">
    <!-- Generator: Sketch 3.2.2 (9983) - http://www.bohemiancoding.com/sketch -->
    <title>Profile</title>
    <desc>Created with Sketch.</desc>
    <defs></defs>
    <g id="outlined" stroke="none" stroke-width="1" fill="none" fill-rule="evenodd" sketch:type="MSPage">
        <g id="Interface" sketch:type="MSLayerGroup" transform="translate(3.000000, -2155.000000)" stroke="#535353" stroke-width="2" stroke-linejoin="round">
            <g id="Profile" transform="translate(0.000000, 2165.000000)" sketch:type="MSShapeGroup">
                <rect id="Rectangle-2425" stroke-linecap="round" x="0" y="0" width="54" height="40"></rect>
                <path d="M21.2483149,10.3655293 C21.4493708,7.36876069 23.953545,5 27,5 L32.7647059,5 L32.7647059,10.3676496 L32.7647059,10.3676496 C33.4631194,10.4682838 34,11.0726455 34,11.7882065 L34,12.2117935 C34,12.9397354 33.4605256,13.5411046 32.7516851,13.6344707 C32.5506292,16.6312393 30.046455,19 27,19 C23.9475219,19 21.4491677,16.6245864 21.2483205,13.6341663 C20.5435675,13.539216 20,12.9317969 20,12.2117935 L20,11.7882065 C20,11.0602646 20.5394744,10.4588954 21.2483149,10.3655293 Z" id="Rectangle-2325" stroke-linecap="round"></path>
                <path d="M24.9807692,19 L24,20.9090909 L21.6651092,20.9090909 C20.4668777,20.9090909 19.5,21.8248721 19.5,22.9545455 L19.5,25 L34.5,25 L34.5,22.9545455 C34.5,21.8271708 33.5306476,20.9090909 32.3348908,20.9090909 L29.7115385,20.9090909 L28.7307692,19" id="Rectangle-2327" stroke-linecap="round"></path>
                <path d="M14,30 L40,30" id="Line" stroke-linecap="square"></path>
                <path d="M18,34 L36,34" id="Line" stroke-linecap="square"></path>
            </g>
        </g>
        <g id="Interface_sliced" sketch:type="MSLayerGroup" transform="translate(0.000000, -2160.000000)"></g>
    </g>
</svg>