<?xml version="1.0" encoding="UTF-8" standalone="no"?>
<svg width="60px" height="60px" viewBox="0 0 60 60" version="1.1" xmlns="http://www.w3.org/2000/svg" xmlns:xlink="http://www.w3.org/1999/xlink" xmlns:sketch="http://www.bohemiancoding.com/sketch/ns">
    <!-- Generator: Sketch 3.2.2 (9983) - http://www.bohemiancoding.com/sketch -->
    <title>Warp</title>
    <desc>Created with Sketch.</desc>
    <defs></defs>
    <g id="outlined" stroke="none" stroke-width="1" fill="none" fill-rule="evenodd" sketch:type="MSPage">
        <g id="Interface" sketch:type="MSLayerGroup" transform="translate(-237.000000, -1195.000000)" stroke="#535353" stroke-width="2" stroke-linecap="round" stroke-linejoin="round">
            <g id="Warp" transform="translate(243.000000, 1200.000000)" sketch:type="MSShapeGroup">
                <rect id="Rectangle-2297" x="0" y="0" width="49" height="49"></rect>
                <path d="M0,14.5 C0,14.5 7.5,9 14.5,9 C21.5,9 32.5,13.5 38.5,13.5 C44.5,13.5 49,13 49,13" id="Path-5122"></path>
                <path d="M0.5,31.5 C0.5,31.5 12.5,34.5 21,34.5 C29.5,34.5 30.5,29.5 36.5,29.5 C42.5,29.5 49,31.5 49,31.5" id="Path-5123"></path>
                <path d="M17.5,0 C17.5,0 10.5,12.5 14,20.5 C17.5,28.5 19,35.5 18.5,40.5 C18,45.5 16,49 16,49" id="Path-5124"></path>
                <path d="M35,0 C35,0 31.5,13.5 34,20.5 C36.5,27.5 37,36 36,40.5 C35,45 37,49 37,49" id="Path-5125"></path>
            </g>
        </g>
        <g id="Interface_sliced" sketch:type="MSLayerGroup" transform="translate(-240.000000, -1200.000000)"></g>
    </g>
</svg>