<svg width="25" height="24" viewBox="0 0 25 24" fill="none" xmlns="http://www.w3.org/2000/svg">
<path fill-rule="evenodd" clip-rule="evenodd" d="M11.8335 3.28516C12.5256 2.90495 13.3628 2.90495 14.0549 3.28516L20.1997 6.66479C20.4178 6.78461 20.6121 6.93746 20.7773 7.11489C21.1675 7.53504 21.3933 8.09268 21.3933 8.68412V15.3159C21.3933 16.1569 20.9355 16.9304 20.1997 17.3352L14.0549 20.7148C13.3628 21.0951 12.5256 21.0951 11.8335 20.7148L5.68874 17.3352C4.9529 16.9304 4.49512 16.1569 4.49512 15.3159V8.68412C4.49512 8.09268 4.72094 7.53504 5.11113 7.11489C5.27627 6.93746 5.4706 6.78461 5.68874 6.66479L11.8335 3.28516ZM13.3144 4.63086C13.084 4.50413 12.8044 4.50413 12.574 4.63086L7.13814 7.6203L12.9442 11.1044L18.7503 7.62107L13.3144 4.63086ZM19.8571 8.74787L13.7123 12.4347V19.1502L19.4592 15.9895C19.705 15.8543 19.8571 15.5962 19.8571 15.3159V8.74787ZM12.1761 19.1502V12.4347L6.03131 8.74787V15.3159C6.03131 15.5962 6.1834 15.8543 6.42919 15.9895L12.1761 19.1502Z" fill="#131313"/>
</svg>
