<svg width="2041" height="298" viewBox="0 0 2041 298" fill="none" xmlns="http://www.w3.org/2000/svg">
<path d="M244.74 292.461L207.658 117.884H205.992L168.91 292.461H67.6635L0.582645 5.80502H96.4124L129.328 168.299H130.994L163.493 5.80502H254.323L288.905 168.299H290.572L321.404 5.80502H413.067L345.986 292.461H244.74ZM604.727 292.461L592.644 252.046H492.231L480.148 292.461H385.985L490.564 5.80502H597.644L702.223 292.461H604.727ZM511.397 187.882H573.478L543.479 85.802H541.812L511.397 187.882ZM975.68 93.7184C975.68 111.218 970.958 127.05 961.513 141.217C952.069 155.383 938.32 165.799 920.265 172.465L984.013 292.461H880.683L829.852 187.882H795.686V292.461H703.606V5.80502H879.017C899.571 5.80502 917.071 9.83264 931.515 17.8879C946.236 25.6654 957.208 36.3594 964.43 49.97C971.93 63.3029 975.68 77.8856 975.68 93.7184ZM881.933 97.4682C881.933 89.9685 879.433 83.7188 874.433 78.719C869.434 73.7191 863.323 71.2192 856.101 71.2192H795.686V124.134H856.101C863.323 124.134 869.434 121.634 874.433 116.634C879.433 111.357 881.933 104.968 881.933 97.4682ZM1199.55 292.461L1079.14 153.299V292.461H994.562V5.80502H1074.98L1195.39 147.05V5.80502H1279.97V292.461H1199.55ZM1312.47 292.461V5.80502H1404.55V292.461H1312.47ZM1641.9 292.461L1521.49 153.299V292.461H1436.91V5.80502H1517.33L1637.74 147.05V5.80502H1722.32V292.461H1641.9ZM1894.81 0.805196C1922.31 0.805196 1947.04 4.97171 1968.98 13.3047C1990.92 21.6378 2008.28 33.9984 2021.06 50.3867C2034.12 66.4972 2040.64 86.2187 2040.64 109.551H1952.73C1952.73 97.6071 1947.45 88.0242 1936.9 80.8022C1926.34 73.3025 1913.56 69.5526 1898.56 69.5526C1876.9 69.5526 1860.51 75.3857 1849.4 87.052C1838.29 98.4404 1832.73 114.69 1832.73 135.8V162.466C1832.73 183.576 1838.29 199.964 1849.4 211.631C1860.51 223.019 1876.9 228.713 1898.56 228.713C1913.56 228.713 1926.34 225.241 1936.9 218.297C1947.45 211.075 1952.73 201.909 1952.73 190.798H1887.73V132.467H2040.64V292.461H1993.14L1983.98 264.129C1957.87 286.35 1923.7 297.461 1881.48 297.461C1833.98 297.461 1798.29 285.1 1774.4 260.379C1750.51 235.38 1738.57 198.298 1738.57 149.133C1738.57 100.524 1752.04 63.7195 1778.99 38.7204C1806.21 13.4436 1844.82 0.805196 1894.81 0.805196Z" fill="#F0F4F7"/>
</svg>
