<?xml version="1.0" encoding="UTF-8" standalone="no"?>
<svg width="60px" height="60px" viewBox="0 0 60 60" version="1.1" xmlns="http://www.w3.org/2000/svg" xmlns:xlink="http://www.w3.org/1999/xlink" xmlns:sketch="http://www.bohemiancoding.com/sketch/ns">
    <!-- Generator: Sketch 3.2.2 (9983) - http://www.bohemiancoding.com/sketch -->
    <title>Chat</title>
    <desc>Created with Sketch.</desc>
    <defs></defs>
    <g id="filled" stroke="none" stroke-width="1" fill="none" fill-rule="evenodd" sketch:type="MSPage">
        <g id="Interface" sketch:type="MSLayerGroup" transform="translate(-357.000000, -2155.000000)" stroke="#535353" stroke-width="2" stroke-linecap="round" stroke-linejoin="round">
            <g id="Chat" transform="translate(360.000000, 2165.000000)" sketch:type="MSShapeGroup">
                <rect id="Rectangle-2411" x="0" y="0" width="54" height="40"></rect>
                <path d="M44.6363636,13 L45.9982716,13 C48.2108635,13 50,11.209139 50,9 C50,6.79535615 48.2083651,5 45.9982716,5 L8.00172845,5 C5.78913646,5 4,6.790861 4,9 C4,11.2046438 5.79163485,13 8.00172845,13 L41,13 L41,17 L44.6363636,13 Z" id="Rectangle-2470" fill="#D8D8D8"></path>
                <path d="M44.6363636,31 L45.9982716,31 C48.2108635,31 50,29.209139 50,27 C50,24.7953562 48.2083651,23 45.9982716,23 L8.00172845,23 C5.78913646,23 4,24.790861 4,27 C4,29.2046438 5.79163485,31 8.00172845,31 L41,31 L41,35 L44.6363636,31 Z" id="Rectangle-2470" fill="#D8D8D8" transform="translate(27.000000, 29.000000) scale(-1, 1) translate(-27.000000, -29.000000) "></path>
                <circle id="Oval-1827" cx="9" cy="9" r="1"></circle>
                <circle id="Oval-1828" cx="15" cy="9" r="1"></circle>
                <circle id="Oval-1829" cx="21" cy="9" r="1"></circle>
                <circle id="Oval-1832" cx="33" cy="27" r="1"></circle>
                <circle id="Oval-1830" cx="39" cy="27" r="1"></circle>
                <circle id="Oval-1831" cx="45" cy="27" r="1"></circle>
            </g>
        </g>
        <g id="Interface_sliced" sketch:type="MSLayerGroup" transform="translate(-360.000000, -2160.000000)"></g>
    </g>
</svg>