<?xml version="1.0" encoding="UTF-8" standalone="no"?>
<svg width="60px" height="60px" viewBox="0 0 60 60" version="1.1" xmlns="http://www.w3.org/2000/svg" xmlns:xlink="http://www.w3.org/1999/xlink" xmlns:sketch="http://www.bohemiancoding.com/sketch/ns">
    <!-- Generator: Sketch 3.2.2 (9983) - http://www.bohemiancoding.com/sketch -->
    <title>Editpoint</title>
    <desc>Created with Sketch.</desc>
    <defs></defs>
    <g id="filled" stroke="none" stroke-width="1" fill="none" fill-rule="evenodd" sketch:type="MSPage">
        <g id="Interface" sketch:type="MSLayerGroup" transform="translate(-837.000000, -1195.000000)" stroke="#535353" stroke-width="2" stroke-linejoin="round">
            <g id="Editpoint" transform="translate(843.000000, 1201.000000)" sketch:type="MSShapeGroup">
                <path d="M13.7972042,37.7027958 L23.6966991,6.59009742 L44.9099026,27.8033009 L13.7972042,37.7027958 Z M31.4748737,20.0251263 C29.9127766,18.4630291 27.3801167,18.4630291 25.8180195,20.0251263 C24.2559223,21.5872234 24.2559223,24.1198833 25.8180195,25.6819805 C27.3801167,27.2440777 29.9127766,27.2440777 31.4748737,25.6819805 C33.0369709,24.1198833 33.0369709,21.5872234 31.4748737,20.0251263 Z" id="Triangle-95" stroke-linecap="round" fill="#D8D8D8"></path>
                <path d="M29.2530483,5.24695167 L49.2530483,5.24695167 L47.2530483,19.2469517 L31.2530483,19.2469517 L29.2530483,5.24695167 Z" id="Rectangle-2301" stroke-linecap="round" fill="#D8D8D8" transform="translate(39.253048, 12.246952) rotate(-135.000000) translate(-39.253048, -12.246952) "></path>
                <path d="M19.8076118,24.1923882 L19.8076118,39.1923882" id="Line" stroke-linecap="square" transform="translate(19.807612, 31.692388) rotate(-135.000000) translate(-19.807612, -31.692388) "></path>
                <rect id="Rectangle-2302" stroke-linecap="round" fill="#D8D8D8" x="0" y="42" width="8" height="8"></rect>
                <path d="M4,41 L4,36" id="Line" stroke-linecap="square"></path>
                <path d="M14,46 L9,46" id="Line" stroke-linecap="square"></path>
            </g>
        </g>
        <g id="Interface_sliced" sketch:type="MSLayerGroup" transform="translate(-840.000000, -1200.000000)"></g>
    </g>
</svg>