<?xml version="1.0" encoding="UTF-8" standalone="no"?>
<svg width="60px" height="60px" viewBox="0 0 60 60" version="1.1" xmlns="http://www.w3.org/2000/svg" xmlns:xlink="http://www.w3.org/1999/xlink" xmlns:sketch="http://www.bohemiancoding.com/sketch/ns">
    <!-- Generator: Sketch 3.2.2 (9983) - http://www.bohemiancoding.com/sketch -->
    <title>Scale</title>
    <desc>Created with Sketch.</desc>
    <defs></defs>
    <g id="filled" stroke="none" stroke-width="1" fill="none" fill-rule="evenodd" sketch:type="MSPage">
        <g id="Interface" sketch:type="MSLayerGroup" transform="translate(-237.000000, -595.000000)" stroke="#535353" stroke-width="2" stroke-linejoin="round">
            <g id="Scale" transform="translate(242.000000, 600.000000)" sketch:type="MSShapeGroup">
                <rect id="Rectangle-2236" stroke-linecap="round" fill="#D8D8D8" x="0" y="0" width="8" height="8"></rect>
                <rect id="Rectangle-2236" stroke-linecap="round" fill="#D8D8D8" x="0" y="21" width="8" height="8"></rect>
                <rect id="Rectangle-2236" stroke-linecap="round" fill="#D8D8D8" x="0" y="42" width="8" height="8"></rect>
                <rect id="Rectangle-2236" stroke-linecap="round" fill="#D8D8D8" x="21" y="0" width="8" height="8"></rect>
                <rect id="Rectangle-2236" stroke-linecap="round" fill="#D8D8D8" x="21" y="42" width="8" height="8"></rect>
                <rect id="Rectangle-2236" stroke-linecap="round" fill="#D8D8D8" x="42" y="0" width="8" height="8"></rect>
                <rect id="Rectangle-2236" stroke-linecap="round" fill="#D8D8D8" x="42" y="21" width="8" height="8"></rect>
                <rect id="Rectangle-2236" stroke-linecap="round" fill="#D8D8D8" x="42" y="42" width="8" height="8"></rect>
                <path d="M4,8 L4,21.0384045" id="Line" stroke-linecap="square"></path>
                <path d="M46,8 L46,21.0384045" id="Line" stroke-linecap="square"></path>
                <path d="M4,29 L4,42.0384045" id="Line" stroke-linecap="square"></path>
                <path d="M46,29 L46,42.0384045" id="Line" stroke-linecap="square"></path>
                <path d="M8,4 L21,4" id="Line" stroke-linecap="square"></path>
                <path d="M8,46 L21,46" id="Line" stroke-linecap="square"></path>
                <path d="M29,4 L42,4" id="Line" stroke-linecap="square"></path>
                <path d="M29,46 L42,46" id="Line" stroke-linecap="square"></path>
            </g>
        </g>
        <g id="Interface_sliced" sketch:type="MSLayerGroup" transform="translate(-240.000000, -600.000000)"></g>
    </g>
</svg>