<?xml version="1.0" encoding="utf-8"?>
<!-- Generator: Adobe Illustrator 16.0.4, SVG Export Plug-In . SVG Version: 6.00 Build 0)  -->
<!DOCTYPE svg PUBLIC "-//W3C//DTD SVG 1.1//EN" "http://www.w3.org/Graphics/SVG/1.1/DTD/svg11.dtd">
<svg version="1.1" id="Layer_1" xmlns="http://www.w3.org/2000/svg" xmlns:xlink="http://www.w3.org/1999/xlink" x="0px" y="0px"
	 width="186.342px" height="30.37px" viewBox="0 0 186.342 30.37" enable-background="new 0 0 186.342 30.37" xml:space="preserve">
<g>
	<path fill="#FFFFFF" d="M5.228,19.213v5.129H0v-5.129H5.228z"/>
	<path fill="#FFFFFF" d="M7.259,10.289V7.126h2.831V5.794c0-1.532,0.477-2.786,1.432-3.763s2.398-1.466,4.329-1.466
		c0.421,0,0.843,0.018,1.265,0.051s0.833,0.061,1.232,0.083v3.529c-0.555-0.066-1.132-0.1-1.731-0.1
		c-0.645,0-1.105,0.149-1.382,0.449c-0.278,0.3-0.416,0.806-0.416,1.516v1.032h3.263v3.163h-3.263v14.053H10.09V10.289H7.259z"/>
	<path fill="#FFFFFF" d="M24.641,7.126v3.196h0.067c0.222-0.532,0.521-1.026,0.899-1.481c0.377-0.455,0.81-0.844,1.299-1.165
		c0.488-0.322,1.01-0.571,1.565-0.75c0.555-0.177,1.132-0.266,1.731-0.266c0.311,0,0.655,0.056,1.032,0.166v4.396
		c-0.222-0.044-0.488-0.083-0.799-0.116c-0.312-0.033-0.611-0.05-0.899-0.05c-0.866,0-1.598,0.145-2.198,0.433
		c-0.599,0.289-1.082,0.683-1.448,1.182c-0.366,0.5-0.627,1.083-0.783,1.749c-0.156,0.666-0.233,1.388-0.233,2.164v7.759h-4.729
		V7.126H24.641z"/>
	<path fill="#FFFFFF" d="M32.6,12.004c0.421-1.12,1.021-2.075,1.798-2.863c0.777-0.788,1.709-1.398,2.797-1.832
		c1.087-0.433,2.309-0.648,3.663-0.648s2.581,0.216,3.68,0.648c1.099,0.434,2.037,1.044,2.814,1.832
		c0.777,0.788,1.376,1.743,1.798,2.863c0.422,1.122,0.633,2.37,0.633,3.747c0,1.376-0.211,2.619-0.633,3.73
		c-0.422,1.109-1.021,2.059-1.798,2.846c-0.777,0.789-1.715,1.395-2.814,1.814c-1.099,0.422-2.326,0.633-3.68,0.633
		s-2.575-0.211-3.663-0.633c-1.088-0.42-2.021-1.025-2.797-1.814c-0.777-0.787-1.377-1.736-1.798-2.846
		c-0.422-1.111-0.632-2.354-0.632-3.73C31.968,14.374,32.178,13.126,32.6,12.004z M36.896,17.765
		c0.133,0.655,0.36,1.244,0.683,1.765c0.321,0.521,0.749,0.938,1.282,1.248c0.533,0.312,1.199,0.467,1.998,0.467
		c0.799,0,1.471-0.154,2.015-0.467c0.544-0.311,0.977-0.727,1.299-1.248c0.321-0.521,0.549-1.11,0.683-1.765
		c0.133-0.654,0.2-1.326,0.2-2.014c0-0.688-0.066-1.366-0.2-2.032c-0.133-0.665-0.361-1.254-0.683-1.765
		c-0.322-0.51-0.755-0.927-1.299-1.248c-0.544-0.322-1.215-0.483-2.015-0.483c-0.799,0-1.465,0.161-1.998,0.483
		c-0.533,0.321-0.96,0.738-1.282,1.248c-0.322,0.511-0.549,1.1-0.683,1.765c-0.133,0.666-0.2,1.344-0.2,2.032
		C36.696,16.438,36.763,17.11,36.896,17.765z"/>
	<path fill="#FFFFFF" d="M57.341,7.126v2.397h0.1c0.599-0.999,1.376-1.726,2.331-2.181c0.954-0.455,1.931-0.683,2.93-0.683
		c1.266,0,2.303,0.172,3.114,0.516c0.81,0.345,1.448,0.821,1.915,1.432c0.466,0.611,0.793,1.354,0.982,2.231
		c0.188,0.877,0.283,1.848,0.283,2.914v10.589h-4.729v-9.724c0-1.42-0.222-2.48-0.666-3.18c-0.444-0.699-1.232-1.049-2.364-1.049
		c-1.288,0-2.22,0.383-2.797,1.148c-0.578,0.766-0.866,2.026-0.866,3.779v9.025h-4.729V7.126H57.341z"/>
	<path fill="#FFFFFF" d="M82.049,7.126v3.163h-3.463v8.526c0,0.799,0.133,1.332,0.4,1.598c0.266,0.266,0.799,0.4,1.598,0.4
		c0.267,0,0.521-0.012,0.766-0.035c0.244-0.021,0.477-0.055,0.699-0.1v3.664c-0.4,0.066-0.844,0.109-1.332,0.133
		c-0.489,0.021-0.966,0.033-1.432,0.033c-0.732,0-1.426-0.051-2.081-0.15c-0.655-0.1-1.232-0.293-1.731-0.582
		s-0.894-0.699-1.182-1.232c-0.289-0.533-0.433-1.232-0.433-2.098V10.289h-2.864V7.126h2.864V1.965h4.729v5.161H82.049z"/>
	<path fill="#FFFFFF" d="M94.303,13.22v4.062H84.28V13.22H94.303z"/>
	<path fill="#FFFFFF" d="M102.927,20.213c0.711,0.688,1.732,1.031,3.064,1.031c0.955,0,1.775-0.238,2.465-0.715
		c0.688-0.479,1.109-0.982,1.266-1.516h4.162c-0.666,2.064-1.688,3.541-3.064,4.428c-1.377,0.889-3.041,1.332-4.994,1.332
		c-1.355,0-2.576-0.215-3.664-0.648s-2.01-1.049-2.764-1.848s-1.338-1.754-1.748-2.865c-0.41-1.109-0.616-2.331-0.616-3.662
		c0-1.288,0.211-2.486,0.633-3.597c0.42-1.11,1.02-2.07,1.797-2.881c0.777-0.81,1.703-1.448,2.781-1.914
		c1.076-0.467,2.27-0.699,3.58-0.699c1.465,0,2.74,0.282,3.828,0.849s1.982,1.327,2.682,2.281c0.699,0.955,1.203,2.043,1.516,3.264
		c0.311,1.221,0.42,2.497,0.332,3.829h-12.42C101.829,18.414,102.218,19.524,102.927,20.213z M108.272,11.155
		c-0.566-0.621-1.428-0.933-2.58-0.933c-0.756,0-1.383,0.128-1.883,0.383c-0.5,0.256-0.898,0.572-1.199,0.949
		c-0.299,0.378-0.51,0.777-0.631,1.199c-0.123,0.422-0.195,0.799-0.217,1.132h7.691C109.231,12.687,108.839,11.777,108.272,11.155z"
		/>
	<path fill="#FFFFFF" d="M121.476,7.126v2.397h0.1c0.6-0.999,1.376-1.726,2.331-2.181c0.954-0.455,1.932-0.683,2.931-0.683
		c1.265,0,2.303,0.172,3.113,0.516c0.81,0.345,1.448,0.821,1.914,1.432c0.467,0.611,0.794,1.354,0.982,2.231
		s0.283,1.848,0.283,2.914v10.589h-4.729v-9.724c0-1.42-0.222-2.48-0.666-3.18s-1.231-1.049-2.364-1.049
		c-1.287,0-2.22,0.383-2.797,1.148s-0.866,2.026-0.866,3.779v9.025h-4.729V7.126H121.476z"/>
	<path fill="#FFFFFF" d="M148.281,22.143c-0.556,0.934-1.282,1.605-2.182,2.016s-1.915,0.615-3.047,0.615
		c-1.288,0-2.42-0.248-3.396-0.748c-0.978-0.5-1.781-1.178-2.414-2.031c-0.633-0.855-1.11-1.838-1.432-2.947
		c-0.322-1.11-0.483-2.264-0.483-3.463c0-1.154,0.161-2.27,0.483-3.347c0.321-1.076,0.799-2.025,1.432-2.847
		s1.426-1.482,2.381-1.981c0.954-0.5,2.064-0.749,3.33-0.749c1.021,0,1.992,0.216,2.913,0.648c0.921,0.434,1.648,1.071,2.182,1.915
		h0.066V0.565h4.729v23.777h-4.495v-2.199H148.281z M148.081,13.636c-0.133-0.654-0.361-1.231-0.683-1.731
		c-0.322-0.499-0.738-0.904-1.249-1.216c-0.511-0.311-1.154-0.466-1.931-0.466c-0.777,0-1.433,0.155-1.965,0.466
		c-0.533,0.312-0.961,0.722-1.282,1.232c-0.322,0.511-0.556,1.094-0.699,1.748c-0.145,0.655-0.217,1.338-0.217,2.048
		c0,0.666,0.078,1.332,0.233,1.998s0.404,1.26,0.749,1.782c0.344,0.521,0.777,0.943,1.299,1.266s1.148,0.482,1.882,0.482
		c0.776,0,1.426-0.154,1.947-0.467c0.521-0.311,0.938-0.727,1.249-1.248c0.311-0.521,0.533-1.116,0.666-1.782s0.2-1.354,0.2-2.064
		C148.281,14.974,148.214,14.291,148.081,13.636z"/>
	<path fill="#FFFFFF" d="M163.898,3.729c-0.4,0-0.717,0.078-0.949,0.233c-0.233,0.155-0.416,0.35-0.55,0.582
		c-0.133,0.233-0.217,0.494-0.25,0.783c-0.033,0.288-0.05,0.565-0.05,0.832v5.062c0,0.821-0.128,1.481-0.383,1.981
		c-0.256,0.499-0.555,0.888-0.899,1.165c-0.344,0.278-0.705,0.473-1.082,0.583c-0.378,0.111-0.688,0.178-0.933,0.2v0.1
		c0.244,0.022,0.555,0.095,0.933,0.217c0.377,0.122,0.738,0.321,1.082,0.599c0.345,0.278,0.644,0.645,0.899,1.1
		c0.255,0.455,0.383,1.038,0.383,1.749v5.328c0,0.244,0.017,0.51,0.05,0.799c0.033,0.287,0.117,0.549,0.25,0.781
		c0.134,0.234,0.316,0.428,0.55,0.584c0.232,0.154,0.549,0.232,0.949,0.232h1.798v3.73h-4.229c-0.377,0-0.805-0.096-1.281-0.283
		c-0.479-0.189-0.922-0.467-1.332-0.832c-0.411-0.367-0.761-0.834-1.05-1.4c-0.288-0.564-0.433-1.227-0.433-1.98v-6.461
		c0-0.51-0.111-0.943-0.333-1.297c-0.222-0.355-0.488-0.639-0.799-0.85c-0.312-0.211-0.645-0.366-0.999-0.466
		c-0.355-0.101-0.654-0.15-0.899-0.15v-2.896c0.245,0,0.544-0.051,0.899-0.15c0.354-0.1,0.688-0.267,0.999-0.499
		c0.311-0.233,0.577-0.544,0.799-0.933s0.333-0.86,0.333-1.415V4.495c0-0.754,0.145-1.415,0.433-1.981
		c0.289-0.565,0.639-1.032,1.05-1.398c0.41-0.366,0.854-0.644,1.332-0.832C160.662,0.095,161.09,0,161.467,0h4.229v3.729H163.898z"
		/>
	<path fill="#FFFFFF" d="M176.751,26.639c0.4,0,0.716-0.078,0.949-0.232c0.233-0.156,0.416-0.35,0.55-0.584
		c0.133-0.232,0.216-0.494,0.25-0.781c0.033-0.289,0.05-0.555,0.05-0.799v-5.328c0-0.71,0.127-1.293,0.383-1.749
		c0.255-0.455,0.555-0.821,0.898-1.1c0.345-0.277,0.705-0.477,1.083-0.599c0.377-0.122,0.688-0.194,0.932-0.217v-0.1
		c-0.244-0.022-0.555-0.089-0.932-0.2c-0.378-0.11-0.738-0.305-1.083-0.583c-0.344-0.277-0.644-0.666-0.898-1.165
		c-0.256-0.5-0.383-1.16-0.383-1.981V6.16c0-0.267-0.017-0.544-0.05-0.832c-0.034-0.289-0.117-0.55-0.25-0.783
		c-0.134-0.232-0.316-0.427-0.55-0.582s-0.549-0.233-0.949-0.233h-1.798V0h4.229c0.377,0,0.804,0.095,1.281,0.283
		s0.921,0.466,1.332,0.832s0.761,0.833,1.049,1.398c0.289,0.566,0.434,1.228,0.434,1.981v6.261c0,0.555,0.11,1.026,0.333,1.415
		c0.222,0.389,0.487,0.699,0.799,0.933c0.311,0.232,0.644,0.399,0.999,0.499c0.354,0.1,0.666,0.15,0.933,0.15v2.896
		c-0.267,0-0.578,0.05-0.933,0.15c-0.355,0.1-0.688,0.255-0.999,0.466c-0.312,0.211-0.577,0.494-0.799,0.85
		c-0.223,0.354-0.333,0.788-0.333,1.297v6.461c0,0.754-0.145,1.416-0.434,1.98c-0.288,0.566-0.638,1.033-1.049,1.4
		c-0.411,0.365-0.854,0.643-1.332,0.832c-0.478,0.188-0.904,0.283-1.281,0.283h-4.229v-3.73H176.751z"/>
</g>
</svg>
