<svg xmlns="http://www.w3.org/2000/svg" xmlns:xlink="http://www.w3.org/1999/xlink" width="4676.3" height="140" viewBox="2032 327 4676.3 140"><path fill="#FFF" d="M4274.2 328.6h49v49h-49z"/><path d="M4322.7 329.1v48h-48v-48h48m1-1h-50v50h50v-50z"/><path fill="#FFF" d="M4379 328.6h49v49h-49z"/><path d="M4427.5 329.1v48h-48v-48h48m1-1h-50v50h50v-50z"/><path fill="#FFF" d="M3959.2 328.6h49v49h-49z"/><path d="M4007.7 329.1v48h-48v-48h48m1-1h-50v50h50v-50z"/><path fill="#FFF" d="M3749.3 328.6h49v49h-49z"/><path d="M3797.8 329.1v48h-48v-48h48m1-1h-50v50h50v-50z"/><path fill="#FFF" d="M3539.3 328.6h49v49h-49z"/><path d="M3587.8 329.1v48h-48v-48h48m1-1h-50v50h50v-50zM2526.3 328.1l27.7 27.7-2 2-27.7-27.7 2-2zm25.8 0l2 2-27.7 27.7-2-2 27.7-27.7z"/><path fill="#FFF" d="M2628.8 357.8l-27.7-27.7 2-2 27.7 27.7-2 2zm-25.7 0l-2-2 27.7-27.7 2 2-27.7 27.7z"/><path d="M2818.8 357.6c-8.1 0-14.8-6.6-14.8-14.8 0-8.1 6.6-14.8 14.8-14.8 8.2 0 14.8 6.6 14.8 14.8 0 8.2-6.7 14.8-14.8 14.8zm0-28.5c-7.6 0-13.8 6.2-13.8 13.8 0 7.6 6.2 13.8 13.8 13.8 7.6 0 13.8-6.2 13.8-13.8 0-7.6-6.2-13.8-13.8-13.8zm-.5 11.6h1v9.9h-1v-9.9zm0-5.6h1v2.8h-1v-2.8zM3098.8 357.9c-8.3 0-15-6.7-15-15s6.7-15 15-15 15 6.7 15 15-6.7 15-15 15zm0-29c-7.7 0-14 6.3-14 14s6.3 14 14 14 14-6.3 14-14-6.3-14-14-14zm-.5 6.1h1v15.8h-1V335zm-7.4 7.4h15.8v1h-15.8v-1z"/><path fill="#FFF" d="M3168.8 357.5c-8.3 0-15-6.7-15-15s6.7-15 15-15 15 6.7 15 15-6.7 15-15 15zm0-29c-7.7 0-14 6.3-14 14s6.3 14 14 14 14-6.3 14-14-6.3-14-14-14zm-.5 6.2h1v15.8h-1v-15.8zm-7.4 7.3h15.8v1h-15.8v-1z"/><path fill="#231F20" d="M3239.3 358.3c-8.3 0-15-6.7-15-15s6.7-15 15-15 15 6.7 15 15-6.7 15-15 15zm0-29c-7.7 0-14 6.3-14 14s6.3 14 14 14 14-6.3 14-14-6.3-14-14-14zM3235 350v-13.6l12.3 6.8-12.3 6.8zm.9-11.9v10.3l9.3-5.1-9.3-5.2z"/><path fill="#FFF" d="M3309.3 358.6c-8.3 0-15-6.7-15-15s6.7-15 15-15 15 6.7 15 15-6.7 15-15 15zm0-29c-7.7 0-14 6.3-14 14s6.3 14 14 14 14-6.3 14-14-6.3-14-14-14zm-4.3 20.8v-13.6l12.3 6.8-12.3 6.8zm.9-11.9v10.3l9.3-5.1-9.3-5.2z"/><path d="M3483.8 378.1h-49.9l-.1-50h50v50z"/><path fill="#FFF" d="M3468.6 357.7c2-1.4 3.2-3.3 3.2-5.3 0-4.6-6.1-8.3-13.6-8.3s-13.6 3.7-13.6 8.3 6.1 8.3 13.6 8.3c1.6 0 3.2-.2 4.7-.5l7.7 3.6-2-6.1z"/><path d="M3693.8 378.1h-49.9l-.1-50h50v50z"/><path fill="#FFF" d="M3681.3 345.1h-25l12.5 10 12.5-10zm-12.4 12.8l-13.5-10.8v16h27v-16l-13.5 10.8z"/><path d="M3777.4 343.9c1.1 0 2.3.3 2.3.3l.7-4.2s-1.8-.5-5-.5c-2.2 0-3.3.7-4.2 1.9-.9 1.1-.8 2.9-.8 4.1v3h-3v4h3v14h5v-14h4l.5-4.1h-4.5v-3.2c-.1-.9.9-1.3 2-1.3z"/><path opacity=".75" fill="#FFF" d="M3893.1 328.1h50v50h-50v-50z"/><path fill="#231F20" d="M3932.3 368.1h-27v-1h26V341h1v27.1zm-3-3h-27v-27h27v27zm-26-1h25v-25h-25v25z"/><path fill="#231F20" d="M3909.6 354.3h1.4v-3.5c0-1.3-.6-1.8-1.4-2.1l1.4-1.6h2v7.2h1.2v1.8h-4.6v-1.8zm5.1-.2v-.6h2.1v.3c0 .3.1.4.3.4h3.2v-1.8h-2.8v-1.8h2.8v-1.8h-3.1c-.2 0-.3.2-.3.4v.4h-2.1v-.6c0-1.3.9-2 2.1-2h3.3c1.1 0 2.2.7 2.2 2v1.2c0 .7-.6 1.1-1.1 1.2.5.1 1.1.5 1.1 1.2v1.3c0 1.3-.9 2-2.1 2h-3.4c-1.2.2-2.2-.5-2.2-1.8z"/><path fill="none" d="M3984.3 339.1h.1z"/><path fill="#231F20" d="M3984.3 339.1c-8 0-12 5.7-12 10.5 0 2.9 1.1 5.5 3.4 6.4.4.2.7 0 .8-.4.1-.3.3-1 .4-1.3.1-.4.1-.6-.2-.9-.7-.8-1.1-1.8-1.1-3.3 0-4.2 3.2-8.1 8.3-8.1 4.5 0 7 2.8 7 6.4 0 4.9-2.1 8.9-5.3 8.9-1.8 0-3.1-1.5-2.6-3.2.5-2.1 1.5-4.4 1.5-6 0-1.4-.7-2.5-2.3-2.5-1.8 0-3.2 1.9-3.2 4.4 0 1.6.5 2.7.5 2.7l-2.2 9.2c-.6 2.7-.1 6.1-.1 6.4 0 .2.3.2.4.1.2-.2 2.3-2.9 3-5.5.2-.7 1.2-4.6 1.2-4.6.6 1.1 2.3 2.1 4.1 2.1 5.4 0 9.1-4.9 9.1-11.5 0-5.2-4.2-9.8-10.7-9.8z"/><path fill="none" d="M4310.4 344.7z"/><path d="M4311.4 344.7c-1 .5-2.2.8-3.3.9-.8-1.1-2.1-1.8-3.5-2-2.8-.3-5.3 1.7-5.6 4.5v1.2c-4.2-.7-7.7-3.1-9.8-6.4-.5.7-.9 1.5-1 2.5-.2 1.8.5 3.4 1.8 4.4-.8-.1-1.6-.4-2.2-.9v.1c-.3 2.4 1.2 4.7 3.5 5.4-.4.1-.9.1-1.4 0-.3 0-.6-.1-.9-.2.4 2.1 2.1 3.7 4.3 4-1.9 1.2-4.1 1.7-6.5 1.5-.4 0-.8-.1-1.2-.2 2.1 1.7 4.6 2.8 7.5 3.1 9.3 1 15.2-6.1 15.9-12.8 0-.2.1-.4.1-.7 1.1-.6 2-1.4 2.8-2.3-.9.3-1.9.5-3 .5 1.1-.6 2-1.5 2.5-2.6z"/><path fill="#FFF" d="M4412.9 357.7z"/><path d="M4417.1 352.4c0-4.6-6.1-8.3-13.6-8.3s-13.6 3.7-13.6 8.3c0 4.6 6.1 8.3 13.6 8.3 1.6 0 3.2-.2 4.7-.5l7.7 3.6-2-6c2-1.5 3.2-3.4 3.2-5.4zM3576.3 345.1h-25l12.6 10z"/><path d="M3550.3 347.1v16h27v-16l-13.4 10.8zM5343.9 332.9h-29v32.3h29v-32.3zm-1.9 30.4h-25.2v-28.6h25.2v28.6z"/><path d="M5340.5 336.3h-22.2v22.2h22.2v-22.2zm-1.8 20.3h-18.4v-18.5h18.4v18.5z"/><path d="M5328.5 350.7h1.9v-2.4h2.4v-1.9h-2.4V344h-1.9v2.4h-2.4v1.9h2.4zM5345.4 337.2v29.5h-26.1v1.9h28v-31.4z"/><path fill="#FFF" d="M4274.2 328.6h49v49h-49z"/><path d="M4322.7 329.1v48h-48v-48h48m1-1h-50v50h50v-50z"/><path fill="#FFF" d="M4379 328.6h49v49h-49z"/><path d="M4427.5 329.1v48h-48v-48h48m1-1h-50v50h50v-50z"/><path fill="#FFF" d="M3959.2 328.6h49v49h-49z"/><path d="M4007.7 329.1v48h-48v-48h48m1-1h-50v50h50v-50z"/><path fill="#FFF" d="M3749.3 328.6h49v49h-49z"/><path d="M3797.8 329.1v48h-48v-48h48m1-1h-50v50h50v-50z"/><path fill="#FFF" d="M3539.3 328.6h49v49h-49z"/><path d="M3587.8 329.1v48h-48v-48h48m1-1h-50v50h50v-50zM2526.3 328.1l27.7 27.7-2 2-27.7-27.7 2-2zm25.8 0l2 2-27.7 27.7-2-2 27.7-27.7z"/><path fill="#FFF" d="M2628.8 357.8l-27.7-27.7 2-2 27.7 27.7-2 2zm-25.7 0l-2-2 27.7-27.7 2 2-27.7 27.7z"/><path d="M2818.8 357.6c-8.1 0-14.8-6.6-14.8-14.8 0-8.1 6.6-14.8 14.8-14.8 8.2 0 14.8 6.6 14.8 14.8 0 8.2-6.7 14.8-14.8 14.8zm0-28.5c-7.6 0-13.8 6.2-13.8 13.8 0 7.6 6.2 13.8 13.8 13.8 7.6 0 13.8-6.2 13.8-13.8 0-7.6-6.2-13.8-13.8-13.8zm-.5 11.6h1v9.9h-1v-9.9zm0-5.6h1v2.8h-1v-2.8zM3098.8 357.9c-8.3 0-15-6.7-15-15s6.7-15 15-15 15 6.7 15 15-6.7 15-15 15zm0-29c-7.7 0-14 6.3-14 14s6.3 14 14 14 14-6.3 14-14-6.3-14-14-14zm-.5 6.1h1v15.8h-1V335zm-7.4 7.4h15.8v1h-15.8v-1z"/><path fill="#FFF" d="M3168.8 357.5c-8.3 0-15-6.7-15-15s6.7-15 15-15 15 6.7 15 15-6.7 15-15 15zm0-29c-7.7 0-14 6.3-14 14s6.3 14 14 14 14-6.3 14-14-6.3-14-14-14zm-.5 6.2h1v15.8h-1v-15.8zm-7.4 7.3h15.8v1h-15.8v-1z"/><path fill="#231F20" d="M3239.3 358.3c-8.3 0-15-6.7-15-15s6.7-15 15-15 15 6.7 15 15-6.7 15-15 15zm0-29c-7.7 0-14 6.3-14 14s6.3 14 14 14 14-6.3 14-14-6.3-14-14-14zM3235 350v-13.6l12.3 6.8-12.3 6.8zm.9-11.9v10.3l9.3-5.1-9.3-5.2z"/><path fill="#FFF" d="M3309.3 358.6c-8.3 0-15-6.7-15-15s6.7-15 15-15 15 6.7 15 15-6.7 15-15 15zm0-29c-7.7 0-14 6.3-14 14s6.3 14 14 14 14-6.3 14-14-6.3-14-14-14zm-4.3 20.8v-13.6l12.3 6.8-12.3 6.8zm.9-11.9v10.3l9.3-5.1-9.3-5.2z"/><path d="M3483.8 378.1h-49.9l-.1-50h50v50z"/><path fill="#FFF" d="M3468.6 357.7c2-1.4 3.2-3.3 3.2-5.3 0-4.6-6.1-8.3-13.6-8.3s-13.6 3.7-13.6 8.3 6.1 8.3 13.6 8.3c1.6 0 3.2-.2 4.7-.5l7.7 3.6-2-6.1z"/><path d="M3693.8 378.1h-49.9l-.1-50h50v50z"/><path fill="#FFF" d="M3681.3 345.1h-25l12.5 10 12.5-10zm-12.4 12.8l-13.5-10.8v16h27v-16l-13.5 10.8z"/><path d="M3777.4 343.9c1.1 0 2.3.3 2.3.3l.7-4.2s-1.8-.5-5-.5c-2.2 0-3.3.7-4.2 1.9-.9 1.1-.8 2.9-.8 4.1v3h-3v4h3v14h5v-14h4l.5-4.1h-4.5v-3.2c-.1-.9.9-1.3 2-1.3z"/><path opacity=".75" fill="#FFF" d="M3893.1 328.1h50v50h-50v-50z"/><path fill="#231F20" d="M3932.3 368.1h-27v-1h26V341h1v27.1zm-3-3h-27v-27h27v27zm-26-1h25v-25h-25v25z"/><path fill="#231F20" d="M3909.6 354.3h1.4v-3.5c0-1.3-.6-1.8-1.4-2.1l1.4-1.6h2v7.2h1.2v1.8h-4.6v-1.8zm5.1-.2v-.6h2.1v.3c0 .3.1.4.3.4h3.2v-1.8h-2.8v-1.8h2.8v-1.8h-3.1c-.2 0-.3.2-.3.4v.4h-2.1v-.6c0-1.3.9-2 2.1-2h3.3c1.1 0 2.2.7 2.2 2v1.2c0 .7-.6 1.1-1.1 1.2.5.1 1.1.5 1.1 1.2v1.3c0 1.3-.9 2-2.1 2h-3.4c-1.2.2-2.2-.5-2.2-1.8z"/><path fill="none" d="M3984.3 339.1h.1z"/><path fill="#231F20" d="M3984.3 339.1c-8 0-12 5.7-12 10.5 0 2.9 1.1 5.5 3.4 6.4.4.2.7 0 .8-.4.1-.3.3-1 .4-1.3.1-.4.1-.6-.2-.9-.7-.8-1.1-1.8-1.1-3.3 0-4.2 3.2-8.1 8.3-8.1 4.5 0 7 2.8 7 6.4 0 4.9-2.1 8.9-5.3 8.9-1.8 0-3.1-1.5-2.6-3.2.5-2.1 1.5-4.4 1.5-6 0-1.4-.7-2.5-2.3-2.5-1.8 0-3.2 1.9-3.2 4.4 0 1.6.5 2.7.5 2.7l-2.2 9.2c-.6 2.7-.1 6.1-.1 6.4 0 .2.3.2.4.1.2-.2 2.3-2.9 3-5.5.2-.7 1.2-4.6 1.2-4.6.6 1.1 2.3 2.1 4.1 2.1 5.4 0 9.1-4.9 9.1-11.5 0-5.2-4.2-9.8-10.7-9.8z"/><path fill="none" d="M4310.4 344.7z"/><path d="M4311.4 344.7c-1 .5-2.2.8-3.3.9-.8-1.1-2.1-1.8-3.5-2-2.8-.3-5.3 1.7-5.6 4.5v1.2c-4.2-.7-7.7-3.1-9.8-6.4-.5.7-.9 1.5-1 2.5-.2 1.8.5 3.4 1.8 4.4-.8-.1-1.6-.4-2.2-.9v.1c-.3 2.4 1.2 4.7 3.5 5.4-.4.1-.9.1-1.4 0-.3 0-.6-.1-.9-.2.4 2.1 2.1 3.7 4.3 4-1.9 1.2-4.1 1.7-6.5 1.5-.4 0-.8-.1-1.2-.2 2.1 1.7 4.6 2.8 7.5 3.1 9.3 1 15.2-6.1 15.9-12.8 0-.2.1-.4.1-.7 1.1-.6 2-1.4 2.8-2.3-.9.3-1.9.5-3 .5 1.1-.6 2-1.5 2.5-2.6z"/><path fill="#FFF" d="M4412.9 357.7z"/><path d="M4417.1 352.4c0-4.6-6.1-8.3-13.6-8.3s-13.6 3.7-13.6 8.3c0 4.6 6.1 8.3 13.6 8.3 1.6 0 3.2-.2 4.7-.5l7.7 3.6-2-6c2-1.5 3.2-3.4 3.2-5.4zM3576.3 345.1h-25l12.6 10z"/><path d="M3550.3 347.1v16h27v-16l-13.4 10.8z"/><g fill="#A7A9AC"><path d="M5501.7 359c-8.3 0-15-6.7-15-15s6.7-15 15-15 15 6.7 15 15-6.8 15-15 15zm0-29c-7.7 0-14 6.3-14 14s6.3 14 14 14 14-6.3 14-14-6.3-14-14-14zm-1.6 21.6h-6.2v-6h1v4.2l4.4-4.4.7.7-4.4 4.4h4.5v1.1zm3.9-9.1l-.7-.7 4.5-4.5h-4.5v-1h6.2v6h-1v-4.2l-4.5 4.4z"/><path d="M5501.7 359c-8.3 0-15-6.7-15-15s6.7-15 15-15 15 6.7 15 15-6.8 15-15 15zm0-29c-7.7 0-14 6.3-14 14s6.3 14 14 14 14-6.3 14-14-6.3-14-14-14zm7.6 21.7h-6v-1h4.2l-4.4-4.4.7-.7 4.4 4.4v-4.5h1l.1 6.2zm-14.3-9.3h-1v-6.2h6v1h-4.2l4.5 4.4-.7.7-4.5-4.4-.1 4.5z"/></g><g fill="#FFF"><path d="M5549 358.7c-8.3 0-15-6.7-15-15s6.7-15 15-15 15 6.7 15 15-6.7 15-15 15zm0-29c-7.7 0-14 6.3-14 14s6.3 14 14 14 14-6.3 14-14-6.3-14-14-14zm-1.6 21.7h-6.2v-6h1v4.2l4.4-4.4.7.7-4.4 4.4h4.5v1.1zm3.9-9.2l-.7-.7 4.5-4.5h-4.5v-1h6.2v6h-1v-4.2l-4.5 4.4z"/><path d="M5549 358.7c-8.3 0-15-6.7-15-15s6.7-15 15-15 15 6.7 15 15-6.7 15-15 15zm0-29c-7.7 0-14 6.3-14 14s6.3 14 14 14 14-6.3 14-14-6.3-14-14-14zm7.7 21.8h-6v-1h4.2l-4.4-4.4.7-.7 4.4 4.4v-4.5h1l.1 6.2zm-14.4-9.4h-1v-6.2h6v1h-4.2l4.5 4.4-.7.7-4.5-4.4-.1 4.5z"/></g><path fill="#FFF" d="M5691.6 337.9c.8 0 1.6.2 1.6.2l.5-2.9s-1.2-.4-3.5-.4c-1.5 0-2.3.5-3 1.3-.6.8-.6 2.1-.6 2.9v2.1h-2.1v2.8h2.1v9.8h3.5v-9.8h2.8l.4-2.9h-3.2v-2.2c0-.6.7-.9 1.5-.9zM5732.3 334.6c-5.6 0-8.4 4-8.4 7.4 0 2 .8 3.8 2.4 4.5.3.1.5 0 .6-.3.1-.2.2-.7.2-.9.1-.3.1-.4-.2-.7-.5-.6-.8-1.3-.8-2.3 0-3 2.2-5.6 5.8-5.6 3.2 0 4.9 1.9 4.9 4.5 0 3.4-1.5 6.3-3.7 6.3-1.2 0-2.2-1-1.9-2.3.4-1.5 1-3.1 1-4.2 0-1-.5-1.8-1.6-1.8-1.3 0-2.3 1.3-2.3 3 0 1.1.4 1.9.4 1.9l-1.5 6.4c-.4 1.9-.1 4.2 0 4.5 0 .1.2.2.3.1.1-.2 1.6-2 2.1-3.9.1-.5.8-3.2.8-3.2.4.8 1.6 1.5 2.9 1.5 3.8 0 6.4-3.4 6.4-8.1 0-3.6-3-6.8-7.4-6.8zM5780 338.7c-.7.3-1.5.5-2.3.6-.6-.8-1.4-1.3-2.5-1.4-1.9-.2-3.7 1.2-3.9 3.1v.8c-2.9-.5-5.4-2.2-6.9-4.5-.4.5-.6 1.1-.7 1.7-.1 1.2.4 2.4 1.3 3.1-.6-.1-1.1-.3-1.6-.6-.2 1.7.9 3.3 2.5 3.8-.3 0-.6.1-.9 0-.2 0-.4-.1-.7-.1.3 1.4 1.5 2.6 3 2.8-1.3.8-2.9 1.2-4.5 1-.3 0-.6-.1-.8-.1 1.5 1.2 3.3 2 5.2 2.2 6.5.7 10.6-4.3 11.1-9v-.5c.7-.4 1.4-1 2-1.6-.7.2-1.4.3-2.1.3.8-.2 1.4-.8 1.8-1.6zM5649.6 336.4c-5 0-9.2 3.1-9.2 6.9 0 2.2 1.4 4.1 3.5 5.3 0 1.1-.6 2.3-1 2.9v.2c0 .3.3.6.6.6h.2c1.8-.3 3.7-1.7 4.4-2.3.5.1 1.1.1 1.6.1 4.7.1 9.2-3.2 9.2-7s-4.4-6.7-9.3-6.7M5802.8 338.8v12l9.2-6z"/><path d="M5972.2 328.1h35v35h-35z"/><path fill="#FFF" d="M5988.2 339.5v-4.4l13.9 12.3-10.7-5.2z"/><path fill="#FFF" d="M6002.1 351.7l-9.7-5.1-9.6-7.3 19.3 8.1zM5996.7 351.6l-13.9-12.3v4.4l3.4 2.6zM5977.4 343.4v4.6l19.3 8v-4.4z"/><path fill="#A7A9AC" d="M6015.8 327.8h35v35h-35z"/><path fill="#FFF" d="M6031.8 339.2v-4.4l13.9 12.3-10.7-5.3z"/><path fill="#FFF" d="M6045.7 351.4l-9.8-5.1-9.5-7.3 19.3 8.1z"/><path fill="#FFF" d="M6040.3 351.3l-13.9-12.3v4.4l3.4 2.6zM6020.9 343.1v4.6l19.4 8v-4.4z"/><circle fill="#09D809" cx="5249.8" cy="343" r="14.9"/><path fill="#FFF" d="M5248.4 347.5l-5-5 .7-.7 4.3 4.3 6.8-6.8.7.7z"/><defs><path id="a" transform="rotate(134.999 5287.698 343.19)" d="M5272.7 328.2h30v30h-30z"/></defs><clipPath id="b"><use xlink:href="#a" overflow="visible"/></clipPath><path clip-path="url(#b)" fill="#ED1C24" d="M5277 353.9c-5.9-5.9-5.9-15.4 0-21.2 5.9-5.9 15.4-5.9 21.2 0 5.9 5.9 5.9 15.4 0 21.2-5.9 5.8-15.3 5.9-21.2 0"/><path fill="#FFF" d="M5292.6 347.6l-.7.7-4.3-4.3-4.3 4.3-.7-.7 4.3-4.3-4.3-4.3.7-.7 4.3 4.3 4.3-4.3.7.7-4.3 4.3z"/><path d="M2153 338.9l3.8 3.4v-2.9h8v-1h-8v-3z"/><path fill="#FFF" d="M2073.5 338.9l3.8 3.4v-2.9h8v-1h-8v-3z"/><path d="M2127.3 339l-3.8-3.5v3h-8v1h8v2.9z"/><path fill="#FFF" d="M2046.8 339l-3.8-3.5v3h-8v1h8v2.9zM6158.2 338l-.7-.6 4.9-4.5-4.9-4.5.7-.6 5.7 5.1z"/><path d="M6083.9 338l-.6-.6 4.8-4.5-4.8-4.5.6-.6 5.7 5.1zM6122.9 327.8l.6.6-4.8 4.5 4.8 4.5-.6.6-5.7-5.1z"/><path fill="#FFF" d="M6194.9 327.8l.7.6-4.9 4.5 4.9 4.5-.7.6-5.7-5.1z"/><defs><path id="c" d="M3834.2 327h30v30h-30z"/></defs><clipPath id="d"><use xlink:href="#c" overflow="visible"/></clipPath><path clip-path="url(#d)" d="M3834.3 342c0-8.2 6.7-14.9 14.9-14.9s14.9 6.7 14.9 14.9-6.7 14.9-14.9 14.9-14.9-6.7-14.9-14.9"/><path fill="#FFF" d="M3855 342l-3.8-3.5v3h-8v1h8v3z"/><path d="M2264.8 347.2l-.7.7-4.3-4.3-4.3 4.3-.7-.7 4.3-4.3-4.3-4.3.7-.7 4.3 4.3 4.3-4.3.7.7-4.3 4.3z"/><path d="M2270.3 353.4c-5.8 5.8-15.2 5.8-21 0-5.8-5.8-5.8-15.2 0-21 5.8-5.8 15.2-5.8 21 0 5.8 5.8 5.8 15.2 0 21zm-20.4-20.3c-5.4 5.4-5.4 14.3 0 19.7 5.4 5.4 14.3 5.4 19.7 0 5.4-5.4 5.4-14.3 0-19.7-5.4-5.5-14.2-5.5-19.7 0z"/><path fill="#FFF" d="M2404.8 347.2l-.7.7-4.3-4.3-4.3 4.3-.7-.7 4.3-4.3-4.3-4.3.7-.7 4.3 4.3 4.3-4.3.7.7-4.3 4.3z"/><path fill="#FFF" d="M2410.3 353.4c-5.8 5.8-15.2 5.8-21 0-5.8-5.8-5.8-15.2 0-21 5.8-5.8 15.2-5.8 21 0 5.8 5.8 5.8 15.2 0 21zm-20.4-20.3c-5.4 5.4-5.4 14.3 0 19.7 5.4 5.4 14.3 5.4 19.7 0 5.4-5.4 5.4-14.3 0-19.7-5.4-5.5-14.2-5.5-19.7 0z"/><defs><path id="e" transform="rotate(134.999 5376.026 342.99)" d="M5361 328h30v30h-30z"/></defs><clipPath id="f"><use xlink:href="#e" overflow="visible"/></clipPath><path clip-path="url(#f)" d="M5365.5 353.6c-5.8-5.8-5.8-15.2 0-21 5.8-5.8 15.2-5.8 21 0 5.8 5.8 5.8 15.2 0 21-5.8 5.8-15.2 5.8-21 0"/><path fill="#FFF" d="M5376.5 349.6h-1v-6h-6v-1h6v-6h1v6h6v1h-6z"/><path d="M3011.4 347.8l-2.6-2.6 6.3-6.4c-.6-1-.9-2.2-.9-3.5 0-4 3.2-7.3 7.2-7.3s7.3 3.2 7.3 7.2-3.2 7.3-7.2 7.3c-1.4 0-2.7-.4-3.8-1.1l-6.3 6.4zm-1.2-2.6l1.2 1.2 3.3-3.4-1.2-1.2-3.3 3.4zm4.1-4.1l1.2 1.2 1.4-1.4-1.2-1.2-1.4 1.4zm7.1-12c-3.4 0-6.2 2.8-6.2 6.3 0 3.4 2.8 6.2 6.3 6.2s6.2-2.8 6.2-6.3c-.1-3.5-2.9-6.3-6.3-6.2z"/><path fill="#FFF" d="M2946.1 347.8l-2.6-2.6 6.3-6.4c-.6-1-.9-2.2-.9-3.5 0-4 3.2-7.3 7.2-7.3s7.3 3.2 7.3 7.2-3.2 7.3-7.2 7.3c-1.4 0-2.7-.4-3.8-1.1l-6.3 6.4zm-1.2-2.6l1.2 1.2 3.3-3.4-1.2-1.2-3.3 3.4zm4.1-4.1l1.2 1.2 1.4-1.4-1.2-1.2-1.4 1.4zm7.1-12c-3.4 0-6.2 2.8-6.2 6.3 0 3.4 2.8 6.2 6.3 6.2s6.2-2.8 6.2-6.3c-.1-3.5-2.9-6.3-6.3-6.2z"/><defs><path id="g" d="M2739.8 327h20v20h-20z"/></defs><clipPath id="h"><use xlink:href="#g" overflow="visible"/></clipPath><path d="M2753.9 347h5.9v-5.9zM2753.9 339.9h5.9v-5.8zM2759.8 327l-5.9 5.9h5.9zM2746.8 347h5.9v-5.9zM2746.8 339.9h5.9v-5.8M2752.7 327l-5.9 5.9h5.9zM2739.8 347h5.8v-5.9zM2739.8 339.9h5.8v-5.8zM2745.6 327l-5.8 5.9h5.8z"/><defs><path id="i" d="M2194.8 327h20v20h-20z"/></defs><clipPath id="j"><use xlink:href="#i" overflow="visible"/></clipPath><path fill="#FCFCFC" d="M2208.9 347h5.9v-5.9zM2208.9 339.9h5.9v-5.8zM2214.8 327l-5.9 5.9h5.9zM2201.8 347h5.9v-5.9zM2201.8 339.9h5.9v-5.8M2207.7 327l-5.9 5.9h5.9zM2194.8 347h5.8v-5.9zM2194.8 339.9h5.8v-5.8zM2200.6 327l-5.8 5.9h5.8z"/><path d="M2477.9 348l-9.3-9.2-9.2 9.2-.6-.8 9.1-9.1-9.1-9.2.6-.9 9.2 9.3 9.3-9.2.7.8-9.2 9.2 9.2 9.1z"/><path fill="#FFF" d="M2695.9 348l-9.1-9.2-9.2 9.2-.7-.8 9-9.1-9-9.2.7-.9 9.2 9.3 9.1-9.2.7.8-9 9.2 9 9.1z"/><path d="M5174.8 332.6h-2.5l-2-2h-3.9l-2 2h-1.8v-1.2h-1.2v1.2H5158.8V345.4H5174.8v-12.8zm-9.9 1.2l2-2h2.9l2 2h1.8v4.2h-1.6c-.3-1.8-1.8-3.2-3.7-3.2s-3.5 1.4-3.8 3.2h-4.5v-4.2h4.9zm6 4.8c0 1.5-1.2 2.6-2.6 2.6-1.4 0-2.7-1.1-2.7-2.6s1.2-2.6 2.6-2.6c1.4 0 2.7 1.1 2.7 2.6zm-10.9 5.6v-5h4.5c.3 1.8 1.8 3.2 3.7 3.2s3.4-1.4 3.7-3.2h1.6v5H5160zM5206.5 345.3c-4.2 0-8.1-2.8-8.9-6.4-.3-1.6.2-3.5 1.5-5 1.7-2 4.4-3.2 7.3-3.2 1.8 0 2.8.3 3.4 1 .6.7.5 1.5.4 2.2-.1.4-.1.7 0 .9.4.8 1.1.9 2.4 1 1.2.1 2.9.2 2.9 2.3-.2 4.5-4.6 7.2-9 7.2zm-.1-13.3c-2.7 0-5 1-6.3 2.8-1 1.2-1.5 2.7-1.2 4 .6 3 4 5.3 7.7 5.3 3.8 0 7.7-2.3 7.7-6 0-.8-.2-.9-1.7-1-1.2-.1-2.8-.2-3.5-1.8-.2-.5-.1-1.1-.1-1.6.1-.6.1-.9-.1-1.2-.2-.3-.8-.5-2.5-.5z"/><circle cx="5210" cy="340.1" r="1.1"/><circle cx="5206.4" cy="341.4" r="1.1"/><circle cx="5202.6" cy="340.1" r="1.1"/><path d="M5205.9 337.9c-1.3 0-2.3-1-2.3-2.3 0-1.3 1-2.3 2.3-2.3 1.3 0 2.3 1 2.3 2.3-.1 1.3-1.1 2.3-2.3 2.3zm0-3.4c-.6 0-1 .5-1 1 0 .6.5 1 1 1 .6 0 1-.5 1-1s-.6-1-1-1z"/><path fill="#FFF" d="M5423.9 332.6h-2.5l-2-2h-3.9l-2 2h-1.8v-1.2h-1.2v1.2H5407.9V345.4H5423.9v-12.8zm-9.9 1.2l2-2h2.9l2 2h1.8v4.2h-1.6c-.3-1.8-1.8-3.2-3.7-3.2s-3.5 1.4-3.8 3.2h-4.5v-4.2h4.9zm6 4.8c0 1.5-1.2 2.6-2.6 2.6-1.4 0-2.7-1.1-2.7-2.6s1.2-2.6 2.6-2.6c1.4 0 2.7 1.1 2.7 2.6zm-10.9 5.6v-5h4.5c.3 1.8 1.8 3.2 3.7 3.2s3.4-1.4 3.7-3.2h1.6v5h-13.5zM5454.5 345.3c-4.2 0-8.1-2.8-8.9-6.4-.3-1.6.2-3.5 1.5-5 1.7-2 4.4-3.2 7.3-3.2 1.8 0 2.8.3 3.4 1 .6.7.5 1.5.4 2.2-.1.4-.1.7 0 .9.4.8 1.1.9 2.4 1 1.2.1 2.9.2 2.9 2.3-.2 4.5-4.6 7.2-9 7.2zm-.1-13.3c-2.7 0-5 1-6.3 2.8-1 1.2-1.5 2.7-1.2 4 .6 3 4 5.3 7.7 5.3 3.8 0 7.7-2.3 7.7-6 0-.8-.2-.9-1.7-1-1.2-.1-2.8-.2-3.5-1.8-.2-.5-.1-1.1-.1-1.6.1-.6.1-.9-.1-1.2-.2-.3-.8-.5-2.5-.5z"/><circle fill="#FFF" cx="5458" cy="340.1" r="1.1"/><g><circle fill="#FFF" cx="5454.4" cy="341.4" r="1.1"/></g><g><circle fill="#FFF" cx="5450.6" cy="340.1" r="1.1"/></g><g><path fill="#FFF" d="M5453.9 337.9c-1.3 0-2.3-1-2.3-2.3 0-1.3 1-2.3 2.3-2.3 1.3 0 2.3 1 2.3 2.3-.1 1.3-1.1 2.3-2.3 2.3zm0-3.4c-.6 0-1 .5-1 1 0 .6.5 1 1 1 .6 0 1-.5 1-1s-.6-1-1-1z"/></g><path fill="#FFF" d="M5619.7 347c-.3.2-.6.4-1 .4s-.7-.1-1-.4l-8.1-6.3v8.6c0 .9 1 1.9 2 1.9h15c.9 0 1.4-1 1.4-1.9v-8.6l-8.3 6.3z"/><path fill="#FFF" d="M5627.4 338.2h-17.2c-.3 0-.5.2-.5.4 0 .3.1.4.3.5l8.5 6.4c.1.1.2.1.3.1s.2 0 .3-.1l8.5-6.4c.1-.1.3-.2.3-.5 0-.2-.2-.3-.5-.4"/><path fill="#3C589A" d="M4483.8 327h50v50h-50z"/><path fill="#E72C2E" d="M5084.4 327h50v50h-50z"/><path fill="#31506D" d="M5015.3 327h50v50h-50z"/><path fill="#527FA3" d="M4942.8 327h50v50h-50z"/><path fill="#D24835" d="M4869.4 327h50v50h-50z"/><g><path fill="#DE2127" d="M4113.8 377h-49.9l-.1-50h50v50z"/><path fill="#FFF" d="M4090.2 338c-8 0-12 5.7-12 10.5 0 2.9 1.1 5.5 3.4 6.4.4.2.7 0 .8-.4.1-.3.3-1 .3-1.3.1-.4.1-.6-.2-.9-.7-.8-1.1-1.8-1.1-3.3 0-4.2 3.2-8.1 8.3-8.1 4.5 0 7 2.8 7 6.4 0 4.9-2.1 8.9-5.3 8.9-1.8 0-3.1-1.5-2.7-3.2.5-2.1 1.5-4.4 1.5-6 0-1.4-.7-2.5-2.3-2.5-1.8 0-3.2 1.9-3.2 4.4 0 1.6.5 2.7.5 2.7l-2.2 9.2c-.6 2.7-.1 6.1-.1 6.4 0 .2.3.2.4.1.2-.2 2.3-2.9 3-5.5.2-.7 1.2-4.6 1.2-4.6.6 1.1 2.3 2.1 4.1 2.1 5.4 0 9.1-4.9 9.1-11.5.2-5.2-4.1-9.8-10.5-9.8z"/></g><g><path fill="#68ACD2" d="M4218.8 377h-49.9l-.1-50h50v50z"/><path fill="#FFF" d="M4206.3 343.9c-1 .5-2.2.8-3.3.9-.8-1.1-2.1-1.8-3.5-2-2.8-.3-5.3 1.7-5.6 4.5-.1.4 0 .8 0 1.2-4.2-.7-7.7-3.1-9.8-6.4-.5.7-.9 1.5-1 2.5-.2 1.8.5 3.4 1.8 4.4-.8-.1-1.6-.4-2.2-.9v.1c-.3 2.4 1.2 4.7 3.5 5.4-.4.1-.9.1-1.4 0-.3 0-.6-.1-.9-.2.4 2.1 2.1 3.7 4.4 4-1.9 1.2-4.1 1.7-6.5 1.5-.4 0-.8-.1-1.2-.2 2.1 1.7 4.6 2.8 7.5 3.1 9.3 1 15.2-6.1 15.9-12.8 0-.2.1-.4.1-.7 1.1-.6 2-1.4 2.8-2.3-.9.3-2 .5-3 .5 1-.6 1.9-1.5 2.4-2.6z"/></g><g><path fill="#FFF" d="M4512.4 342.8c1.1 0 2.3.3 2.3.3l.7-4.2s-1.8-.5-5-.5c-2.2 0-3.3.7-4.2 1.9-.9 1.1-.8 2.9-.8 4.1v3h-3v4h3v14h5v-14h4l.5-4.1h-4.5v-3.2c-.1-.9.9-1.3 2-1.3z"/></g><g><path fill="#FFF" d="M4907.6 350h-3.2v-3.2h-2.6v3.2h-3.2v2.6h3.2v3.2h2.6v-3.2h3.2V350zm-12.1 4c-.8-.5-2.2-1.8-2.2-2.6 0-.9.3-1.3 1.6-2.4 1.4-1.1 2.3-2.6 2.3-4.3 0-2.1-.9-4.1-2.7-4.8h2.6l1.9-1.3h-8.3c-3.7 0-7.2 2.8-7.2 6.1s2.5 6 6.3 6h.8c-.2.5-.4 1-.4 1.5 0 .9.5 1.7 1.1 2.3h-1.4c-4.6 0-8.1 2.9-8.1 6 0 3 3.9 4.9 8.5 4.9 5.2 0 8.1-3 8.1-6 0-2.4-.7-3.9-2.9-5.4m-4.4-4.2c-2.1-.1-4.2-2.4-4.5-5.2-.4-2.8 1.1-4.9 3.2-4.9 2.1.1 4.2 2.3 4.5 5.1.4 2.9-1.1 5.2-3.2 5m-.8 14.2c-3.2 0-5.5-2-5.5-4.4 0-2.4 2.8-4.3 6-4.3.7 0 1.4.1 2.1.3 1.7 1.2 3 1.9 3.3 3.2.1.3.1.6.1.9 0 2.5-1.6 4.3-6 4.3"/></g><g><path fill="#FFF" d="M4977.2 360.6c0 .4-.3.7-.7.7h-17.3c-.4 0-.7-.3-.7-.7v-10.5h2.3c-.2.6-.3 1.3-.3 1.9 0 4 3.3 7.3 7.3 7.3s7.3-3.3 7.3-7.3c0-.7-.1-1.3-.3-1.9h2.3l.1 10.5zm-9.4-13.2c2.6 0 4.6 2.1 4.6 4.6s-2.1 4.6-4.6 4.6c-2.6 0-4.6-2.1-4.6-4.6s2.1-4.6 4.6-4.6m4.7-4c0-.4.3-.7.7-.7h3.3c.4 0 .7.3.7.7v3.3c0 .4-.3.7-.7.7h-3.3c-.4 0-.7-.3-.7-.7v-3.3zm4.5-3.4h-18.4c-1.6 0-2.9 1.3-2.9 2.9v18.4c0 1.6 1.3 2.9 2.9 2.9h18.4c1.6 0 2.9-1.3 2.9-2.9v-18.4c0-1.7-1.3-2.9-2.9-2.9"/></g><g><path fill="#FFF" d="M5041.3 337.8v6.9h6.5v4.3h-6.5v7c0 1.6.1 2.6.3 3 .2.5.5.8.9 1.1.6.4 1.3.5 2.1.5 1.4 0 2.8-.5 4.1-1.4v4.3c-1.2.5-2.2.9-3.2 1.2-.9.2-2 .3-3.1.3-1.2 0-2.4-.2-3.3-.5-1-.3-1.8-.8-2.5-1.4-.7-.6-1.1-1.2-1.4-1.9-.3-.7-.4-1.6-.4-2.9V349h-3v-3.9c1.1-.4 2-.9 2.8-1.5.8-.6 1.4-1.4 1.8-2.3.5-.9.8-2.1 1-3.5h3.9z"/></g><g><path fill="#FFF" d="M5122.1 346.1c-.5-2-1.4-2.8-3.1-3-1-.1-5.7-.3-9.5-.3s-8.5.2-9.5.3c-1.7.3-2.6 1-3.1 3-.2.7-.4 4.3-.4 5.7v.3c0 1.4.2 5.1.4 5.7.5 2 1.4 2.8 3.1 3 1 .1 5.7.3 9.5.3s8.5-.2 9.5-.3c1.7-.3 2.7-1 3.1-3 .2-.7.4-4.3.4-5.7v-.3c0-1.4-.2-5-.4-5.7zm-15.4 10.5V347l7.6 4.9-7.6 4.7z"/></g><g><path fill="#FFF" d="M4090.2 338c-8 0-12 5.7-12 10.5 0 2.9 1.1 5.5 3.4 6.4.4.2.7 0 .8-.4.1-.3.3-1 .3-1.3.1-.4.1-.6-.2-.9-.7-.8-1.1-1.8-1.1-3.3 0-4.2 3.2-8.1 8.3-8.1 4.5 0 7 2.8 7 6.4 0 4.9-2.1 8.9-5.3 8.9-1.8 0-3.1-1.5-2.7-3.2.5-2.1 1.5-4.4 1.5-6 0-1.4-.7-2.5-2.3-2.5-1.8 0-3.2 1.9-3.2 4.4 0 1.6.5 2.7.5 2.7l-2.2 9.2c-.6 2.7-.1 6.1-.1 6.4 0 .2.3.2.4.1.2-.2 2.3-2.9 3-5.5.2-.7 1.2-4.6 1.2-4.6.6 1.1 2.3 2.1 4.1 2.1 5.4 0 9.1-4.9 9.1-11.5.2-5.2-4.1-9.8-10.5-9.8z"/></g><g><path fill="#FFF" d="M4206.3 343.9c-1 .5-2.2.8-3.3.9-.8-1.1-2.1-1.8-3.5-2-2.8-.3-5.3 1.7-5.6 4.5-.1.4 0 .8 0 1.2-4.2-.7-7.7-3.1-9.8-6.4-.5.7-.9 1.5-1 2.5-.2 1.8.5 3.4 1.8 4.4-.8-.1-1.6-.4-2.2-.9v.1c-.3 2.4 1.2 4.7 3.5 5.4-.4.1-.9.1-1.4 0-.3 0-.6-.1-.9-.2.4 2.1 2.1 3.7 4.4 4-1.9 1.2-4.1 1.7-6.5 1.5-.4 0-.8-.1-1.2-.2 2.1 1.7 4.6 2.8 7.5 3.1 9.3 1 15.2-6.1 15.9-12.8 0-.2.1-.4.1-.7 1.1-.6 2-1.4 2.8-2.3-.9.3-2 .5-3 .5 1-.6 1.9-1.5 2.4-2.6z"/></g><g><path fill="#FFF" d="M4512.4 342.8c1.1 0 2.3.3 2.3.3l.7-4.2s-1.8-.5-5-.5c-2.2 0-3.3.7-4.2 1.9-.9 1.1-.8 2.9-.8 4.1v3h-3v4h3v14h5v-14h4l.5-4.1h-4.5v-3.2c-.1-.9.9-1.3 2-1.3z"/></g><g><path fill="#FFF" d="M4907.6 350h-3.2v-3.2h-2.6v3.2h-3.2v2.6h3.2v3.2h2.6v-3.2h3.2V350zm-12.1 4c-.8-.5-2.2-1.8-2.2-2.6 0-.9.3-1.3 1.6-2.4 1.4-1.1 2.3-2.6 2.3-4.3 0-2.1-.9-4.1-2.7-4.8h2.6l1.9-1.3h-8.3c-3.7 0-7.2 2.8-7.2 6.1s2.5 6 6.3 6h.8c-.2.5-.4 1-.4 1.5 0 .9.5 1.7 1.1 2.3h-1.4c-4.6 0-8.1 2.9-8.1 6 0 3 3.9 4.9 8.5 4.9 5.2 0 8.1-3 8.1-6 0-2.4-.7-3.9-2.9-5.4m-4.4-4.2c-2.1-.1-4.2-2.4-4.5-5.2-.4-2.8 1.1-4.9 3.2-4.9 2.1.1 4.2 2.3 4.5 5.1.4 2.9-1.1 5.2-3.2 5m-.8 14.2c-3.2 0-5.5-2-5.5-4.4 0-2.4 2.8-4.3 6-4.3.7 0 1.4.1 2.1.3 1.7 1.2 3 1.9 3.3 3.2.1.3.1.6.1.9 0 2.5-1.6 4.3-6 4.3"/></g><g><path fill="#FFF" d="M4977.2 360.6c0 .4-.3.7-.7.7h-17.3c-.4 0-.7-.3-.7-.7v-10.5h2.3c-.2.6-.3 1.3-.3 1.9 0 4 3.3 7.3 7.3 7.3s7.3-3.3 7.3-7.3c0-.7-.1-1.3-.3-1.9h2.3l.1 10.5zm-9.4-13.2c2.6 0 4.6 2.1 4.6 4.6s-2.1 4.6-4.6 4.6c-2.6 0-4.6-2.1-4.6-4.6s2.1-4.6 4.6-4.6m4.7-4c0-.4.3-.7.7-.7h3.3c.4 0 .7.3.7.7v3.3c0 .4-.3.7-.7.7h-3.3c-.4 0-.7-.3-.7-.7v-3.3zm4.5-3.4h-18.4c-1.6 0-2.9 1.3-2.9 2.9v18.4c0 1.6 1.3 2.9 2.9 2.9h18.4c1.6 0 2.9-1.3 2.9-2.9v-18.4c0-1.7-1.3-2.9-2.9-2.9"/></g><g><path fill="#FFF" d="M5041.3 337.8v6.9h6.5v4.3h-6.5v7c0 1.6.1 2.6.3 3 .2.5.5.8.9 1.1.6.4 1.3.5 2.1.5 1.4 0 2.8-.5 4.1-1.4v4.3c-1.2.5-2.2.9-3.2 1.2-.9.2-2 .3-3.1.3-1.2 0-2.4-.2-3.3-.5-1-.3-1.8-.8-2.5-1.4-.7-.6-1.1-1.2-1.4-1.9-.3-.7-.4-1.6-.4-2.9V349h-3v-3.9c1.1-.4 2-.9 2.8-1.5.8-.6 1.4-1.4 1.8-2.3.5-.9.8-2.1 1-3.5h3.9z"/></g><g><path fill="#FFF" d="M5122.1 346.1c-.5-2-1.4-2.8-3.1-3-1-.1-5.7-.3-9.5-.3s-8.5.2-9.5.3c-1.7.3-2.6 1-3.1 3-.2.7-.4 4.3-.4 5.7v.3c0 1.4.2 5.1.4 5.7.5 2 1.4 2.8 3.1 3 1 .1 5.7.3 9.5.3s8.5-.2 9.5-.3c1.7-.3 2.7-1 3.1-3 .2-.7.4-4.3.4-5.7v-.3c0-1.4-.2-5-.4-5.7zm-15.4 10.5V347l7.6 4.9-7.6 4.7z"/></g><g><path fill="#FFF" d="M3375.1 327c-8.2 0-14.9 6.7-14.9 14.9s6.7 14.9 14.9 14.9 14.9-6.7 14.9-14.9-6.7-14.9-14.9-14.9zm2 18.4v-3h-8v-1h8v-3l3.8 3.5-3.8 3.5z"/></g><path d="M4766.1 342.6v2.3h-9.5v-2.3h3.4v-9.2h-3.4v-2.3h9.5v2.3h-3.4v9.2z"/><g><defs><path id="k" d="M4731.4 328h99.9v20h-99.9z"/></defs><clipPath id="l"><use xlink:href="#k" overflow="visible"/></clipPath><path clip-path="url(#l)" d="M4750 331.1h-2.6l-1.9 10.9-2.2-10.1c-.1-.7-.4-.8-1-.8h-1.4c-.6 0-.9.2-1 .8l-2.2 10.1-1.9-10.9h-2.8l2.7 13.1c.1.6.3.7 1 .7h1.9c.6 0 .8-.1 1-.7l2.1-9.5 2.1 9.5c.1.6.3.7 1 .7h1.8c.6 0 .9-.1 1-.7l2.4-13.1zm1.4 16.9h-20v-20h20v20z"/><g><defs><path id="m" d="M4731.4 328h99.9v20h-99.9z"/></defs><clipPath id="n"><use xlink:href="#m" overflow="visible"/></clipPath><path clip-path="url(#n)" d="M4784.3 341.3c0 1.5.1 2.6.3 3.5h2.7c-.1-.7-.2-2-.2-3.7-.1-2-.7-2.3-2.1-2.6 1.6-.3 2.3-1 2.3-3.5 0-2-.3-2.8-.9-3.3-.4-.4-1.1-.6-2.2-.6h-8.4v13.8h2.8v-5.4h3.9c.8 0 1.1.1 1.4.3.3.2.4.5.4 1.5m-5.7-4v-3.8h4.5c.6 0 .8.1.9.2.2.2.4.5.4 1.7s-.2 1.6-.4 1.8c-.1.1-.3.2-.9.2l-4.5-.1zm12.7 10.7h-20v-20h20v20z"/></g><g><defs><path id="o" d="M4731.4 328h99.9v20h-99.9z"/></defs><clipPath id="p"><use xlink:href="#o" overflow="visible"/></clipPath><path clip-path="url(#p)" d="M4815.7 331.1v13.8h6.8c1.9 0 3-.3 3.8-1 1-.9 1.5-2.5 1.5-5.9s-.5-5-1.5-5.9c-.8-.7-1.9-1-3.8-1h-6.8zm9.3 6.9c0 3-.2 3.7-.8 4.1-.4.3-.9.4-1.9.4h-3.8v-9.1h3.8c1 0 1.5 0 1.9.4.6.5.8 1.2.8 4.2m6.3 10h-20v-20h20v20z"/></g></g><path d="M4795 333.4v-2.3h11.8v4.4h-2.5v-2.1h-4.8v3.3h3.8v2.2h-3.8v3.7h4.9v-2.4h2.5v4.7H4795v-2.3h1.9v-9.2z"/><path fill="#FFF" d="M4628.2 342.6v2.3h-9.5v-2.3h3.4v-9.2h-3.4v-2.3h9.5v2.3h-3.4v9.2z"/><g><defs><path id="q" d="M4593.5 328h99.9v20h-99.9z"/></defs><clipPath id="r"><use xlink:href="#q" overflow="visible"/></clipPath><path clip-path="url(#r)" fill="#FFF" d="M4612.1 331.1h-2.6l-1.9 10.9-2.2-10.1c-.1-.7-.4-.8-1-.8h-1.4c-.6 0-.9.2-1 .8l-2.2 10.1-1.9-10.9h-2.8l2.7 13.1c.1.6.3.7 1 .7h1.9c.6 0 .8-.1 1-.7l2.1-9.5 2.1 9.5c.1.6.3.7 1 .7h1.8c.6 0 .9-.1 1-.7l2.4-13.1zm1.4 16.9h-20v-20h20v20z"/><g><defs><path id="s" d="M4593.5 328h99.9v20h-99.9z"/></defs><clipPath id="t"><use xlink:href="#s" overflow="visible"/></clipPath><path clip-path="url(#t)" fill="#FFF" d="M4646.4 341.3c0 1.5.1 2.6.3 3.5h2.7c-.1-.7-.2-2-.2-3.7-.1-2-.7-2.3-2.1-2.6 1.6-.3 2.3-1 2.3-3.5 0-2-.3-2.8-.9-3.3-.4-.4-1.1-.6-2.2-.6h-8.4v13.8h2.8v-5.4h3.9c.8 0 1.1.1 1.4.3.3.2.4.5.4 1.5m-5.7-4v-3.8h4.5c.6 0 .8.1.9.2.2.2.4.5.4 1.7s-.2 1.6-.4 1.8c-.1.1-.3.2-.9.2l-4.5-.1zm12.7 10.7h-20v-20h20v20z"/></g><g><defs><path id="u" d="M4593.5 328h99.9v20h-99.9z"/></defs><clipPath id="v"><use xlink:href="#u" overflow="visible"/></clipPath><path clip-path="url(#v)" fill="#FFF" d="M4677.8 331.1v13.8h6.8c1.9 0 3-.3 3.8-1 1-.9 1.5-2.5 1.5-5.9s-.5-5-1.5-5.9c-.8-.7-1.9-1-3.8-1h-6.8zm9.3 6.9c0 3-.2 3.7-.8 4.1-.4.3-.9.4-1.9.4h-3.8v-9.1h3.8c1 0 1.5 0 1.9.4.6.5.8 1.2.8 4.2m6.3 10h-20v-20h20v20z"/></g></g><path fill="#FFF" d="M4657.1 333.4v-2.3h11.8v4.4h-2.5v-2.1h-4.8v3.3h3.8v2.2h-3.8v3.7h4.9v-2.4h2.5v4.7h-11.9v-2.3h1.9v-9.2zM6242.4 327v4.9l26.3 15.1-22 12.7v-20.2l-4.3-2.4V367l34.8-20z"/><g><path d="M6327 345.4h-15v-14.8h1v13.8h14v1zm-1.8-2h-3.1v-9.1h3.1v9.1zm-2.1-1h1.1v-7.1h-1.1v7.1zm-1.9 1h-3.1v-12.1h3.1v12.1zm-2.1-1h1.1v-10.1h-1.1v10.1zm-1.9 1h-3.1v-5.9h3.1v5.9zm-2.1-1h1.1v-3.9h-1.1v3.9z"/></g><g><path fill="#FFF" d="M6378 345.4h-15v-14.8h1v13.8h14v1zm-1.8-2h-3.1v-9.1h3.1v9.1zm-2.1-1h1.1v-7.1h-1.1v7.1zm-1.9 1h-3.1v-12.1h3.1v12.1zm-2.1-1h1.1v-10.1h-1.1v10.1zm-1.9 1h-3.1v-5.9h3.1v5.9zm-2.1-1h1.1v-3.9h-1.1v3.9z"/></g><path fill="#FFF" d="M6450 327.4v14.1l75.6 43.5-63.4 36.6v-58.3l-12.2-6.9v86.2l100-57.6z"/><g><defs><path id="w" d="M5930.8 337.5v9.1h3.8c1 0 1.5-.1 1.9-.4.5-.4.8-1.2.8-4.1 0-3-.2-3.7-.8-4.2-.4-.3-.9-.4-1.9-.4h-3.8zm-41.7 0v3.8h4.5c.6 0 .8-.1.9-.2.2-.2.4-.5.4-1.8 0-1.2-.2-1.5-.4-1.7-.1-.1-.3-.2-.9-.2 0 .1-4.5.1-4.5.1zm-22.9-2.4v2.3h3.4v9.2h-3.4v2.3h9.5v-2.3h-3.4v-9.2h3.4v-2.3h-9.5zm40.9 0v2.3h1.9v9.2h-1.9v2.3h11.9v-4.7h-2.5v2.4h-4.9v-3.7h3.8v-2.2h-3.8v-3.3h4.8v2.1h2.5v-4.4h-11.8zm-20.9 0h8.4c1.1 0 1.7.2 2.2.6.6.6.9 1.3.9 3.3 0 2.5-.7 3.2-2.3 3.5 1.4.3 2.1.6 2.1 2.6.1 1.8.1 3 .2 3.7h-2.7c-.1-.9-.2-2.1-.3-3.5 0-1.1-.2-1.3-.4-1.6-.2-.2-.6-.3-1.4-.3h-3.9v5.4h-2.9l.1-13.7zm-4.7 16.9h21v-20h-21v20zm46.4-16.9h6.8c1.9 0 3 .3 3.9 1 1 .9 1.5 2.5 1.5 5.9s-.5 5-1.5 5.9c-.8.7-1.9 1-3.9 1h-6.8v-13.8zm-4.4 16.9h20v-20h-20v20zm-77.2-5.9l2.2-10.1c.1-.7.4-.8 1-.8h1.4c.6 0 .9.2 1 .8l2.2 10.1 1.9-10.9h2.6l-2.7 13.1c-.1.6-.3.7-1 .7h-1.8c-.6 0-.8-.1-1-.7l-2.1-9.5h-.1l-2.1 9.5c-.1.6-.4.7-1 .7h-1.9c-.6 0-.9-.1-1-.7l-2.7-13.1h2.8l1.8 10.9h.5zm-6.8 5.9h21v-20h-21v20z"/></defs><clipPath id="x"><use xlink:href="#w" overflow="visible"/></clipPath><linearGradient id="y" gradientUnits="userSpaceOnUse" x1="39753.055" y1="-554.433" x2="39753.855" y2="-554.433" gradientTransform="matrix(129.9494 0 0 -129.9494 -5160046.5 -71706.219)"><stop offset="0" stop-color="#ff3348"/><stop offset=".037" stop-color="#ff3947"/><stop offset=".085" stop-color="#ff4946"/><stop offset=".139" stop-color="#ff6343"/><stop offset=".197" stop-color="#ff883e"/><stop offset=".258" stop-color="#ffb739"/><stop offset=".301" stop-color="#ffdd35"/><stop offset=".583" stop-color="#23c2b5"/><stop offset=".753" stop-color="#1a7aff"/><stop offset="1" stop-color="#8e0074"/></linearGradient><path clip-path="url(#x)" fill="url(#y)" d="M5839.5 332h104v20h-104z"/></g><g><path fill="#FFF" d="M6596.7 335.5l.6-.7 4.5 4.9 4.5-4.9.6.7-5.1 5.7z"/></g><g><path fill="#FFF" d="M6645.6 340.5l-.6.7-4.5-4.9-4.5 4.9-.6-.7 5.1-5.7z"/></g></svg>