<?xml version="1.0" encoding="utf-8"?>
<!-- Generator: Adobe Illustrator 16.0.4, SVG Export Plug-In . SVG Version: 6.00 Build 0)  -->
<!DOCTYPE svg PUBLIC "-//W3C//DTD SVG 1.1//EN" "http://www.w3.org/Graphics/SVG/1.1/DTD/svg11.dtd">
<svg version="1.1" id="Layer_1" xmlns="http://www.w3.org/2000/svg" xmlns:xlink="http://www.w3.org/1999/xlink" x="0px" y="0px"
	 width="66.688px" height="77.004px" viewBox="0 0 66.688 77.004" enable-background="new 0 0 66.688 77.004" xml:space="preserve">
<g>
	<path fill="#FFFFFF" d="M33.344,77.004L0,57.753V19.251L33.344,0l33.344,19.251v38.502L33.344,77.004z M2,56.599l31.344,18.097
		l31.344-18.097V20.406L33.344,2.31L2,20.406V56.599z"/>
</g>
<g>
	<g>
		<path fill="#FFFFFF" d="M34.817,45.244c-1.449,1.261-3.452,1.892-6.008,1.892c-2.593,0-4.601-0.627-6.022-1.878
			c-1.422-1.251-2.132-3.183-2.132-5.794v-11.91h4.211v11.91c0,0.519,0.044,1.028,0.134,1.529c0.089,0.5,0.277,0.943,0.563,1.327
			c0.286,0.385,0.684,0.698,1.193,0.938c0.51,0.242,1.194,0.363,2.052,0.363c1.502,0,2.539-0.336,3.111-1.006
			c0.572-0.672,0.858-1.722,0.858-3.152v-11.91h4.211v11.91C36.99,42.056,36.266,43.983,34.817,45.244z"/>
	</g>
	<g>
		<path fill="#FFFFFF" d="M39.135,27.554h4.883l3.755,6.116l3.89-6.116h4.613l-6.143,9.147l6.68,10.005h-5.017l-4.185-6.625
			l-4.265,6.625h-4.722l6.68-10.032L39.135,27.554z"/>
	</g>
</g>
</svg>
