<?xml version="1.0" encoding="utf-8"?>
<!-- Generator: Adobe Illustrator 16.0.4, SVG Export Plug-In . SVG Version: 6.00 Build 0)  -->
<!DOCTYPE svg PUBLIC "-//W3C//DTD SVG 1.1//EN" "http://www.w3.org/Graphics/SVG/1.1/DTD/svg11.dtd">
<svg version="1.1" id="Layer_1" xmlns="http://www.w3.org/2000/svg" xmlns:xlink="http://www.w3.org/1999/xlink" x="0px" y="0px"
	 width="549.637px" height="75.933px" viewBox="0 0 549.637 75.933" enable-background="new 0 0 549.637 75.933"
	 xml:space="preserve">
<g>
	<path fill="#FFFFFF" d="M162.734,62.064l-41.722-22.632l41.722-22.632l41.722,22.632L162.734,62.064z M125.206,39.433
		l37.528,20.356l37.528-20.356l-37.528-20.356L125.206,39.433z"/>
</g>
<g>
	<path fill="#FFFFFF" d="M241.984,62.064l-41.723-22.632l41.723-22.632l41.724,22.632L241.984,62.064z M204.456,39.433
		l37.528,20.356l37.528-20.356l-37.528-20.356L204.456,39.433z"/>
</g>
<g>
	<path fill="#FFFFFF" d="M321.235,62.064l-41.723-22.632l41.723-22.632l41.724,22.632L321.235,62.064z M283.708,39.433
		l37.527,20.356l37.528-20.356l-37.528-20.356L283.708,39.433z"/>
</g>
<g>
	<g>
		<line fill="#FFFFFF" x1="124.109" y1="39.433" x2="51.716" y2="39.433"/>
	</g>
	<g>
		<g>
			<rect x="51.716" y="38.433" fill="#FFFFFF" width="72.393" height="2"/>
		</g>
		<g>
			<g>
				<circle fill="#FFFFFF" cx="51.716" cy="39.433" r="2.256"/>
			</g>
		</g>
	</g>
</g>
<g>
	<g>
		<line fill="#FFFFFF" x1="360.861" y1="39.433" x2="460.216" y2="39.433"/>
	</g>
	<g>
		<g>
			<rect x="360.861" y="38.433" fill="#FFFFFF" width="99.354" height="2"/>
		</g>
		<g>
			<g>
				<polygon fill="#FFFFFF" points="459.728,35.788 459.728,43.077 463.371,39.433 				"/>
			</g>
		</g>
	</g>
</g>
<g>
	<path fill="#FFFFFF" d="M1.884,0v8.568H0V0H1.884z"/>
	<path fill="#FFFFFF" d="M5.172,2.364v0.864h0.036c0.216-0.36,0.496-0.622,0.84-0.786c0.344-0.164,0.696-0.246,1.056-0.246
		c0.456,0,0.83,0.062,1.122,0.187s0.522,0.296,0.69,0.516S9.202,3.387,9.27,3.702c0.068,0.316,0.102,0.666,0.102,1.05v3.816H7.668
		V5.064c0-0.512-0.08-0.895-0.24-1.146S6.984,3.54,6.576,3.54c-0.464,0-0.8,0.139-1.008,0.414C5.36,4.23,5.256,4.685,5.256,5.316
		v3.252H3.552V2.364H5.172z"/>
	<path fill="#FFFFFF" d="M14.238,2.364v1.14H12.99v3.072c0,0.288,0.048,0.48,0.144,0.576c0.096,0.096,0.288,0.144,0.576,0.144
		c0.096,0,0.188-0.004,0.276-0.012c0.088-0.008,0.172-0.02,0.252-0.036v1.32c-0.144,0.024-0.304,0.04-0.48,0.048
		c-0.176,0.008-0.348,0.012-0.516,0.012c-0.264,0-0.514-0.018-0.75-0.054c-0.236-0.036-0.444-0.105-0.624-0.21
		c-0.18-0.104-0.322-0.252-0.426-0.444c-0.104-0.191-0.156-0.443-0.156-0.756v-3.66h-1.032v-1.14h1.032v-1.86h1.704v1.86H14.238z"/>
	<path fill="#FFFFFF" d="M17.022,7.08c0.256,0.248,0.624,0.372,1.104,0.372c0.344,0,0.64-0.086,0.888-0.258s0.4-0.354,0.456-0.546
		h1.5c-0.24,0.744-0.608,1.276-1.104,1.596c-0.496,0.32-1.096,0.48-1.8,0.48c-0.488,0-0.928-0.078-1.32-0.234
		s-0.724-0.378-0.996-0.666c-0.272-0.288-0.482-0.632-0.63-1.032c-0.148-0.399-0.222-0.84-0.222-1.319
		c0-0.464,0.076-0.896,0.228-1.296c0.152-0.4,0.368-0.746,0.648-1.038c0.28-0.292,0.614-0.522,1.002-0.69
		c0.388-0.168,0.818-0.252,1.29-0.252c0.528,0,0.988,0.103,1.38,0.306c0.392,0.204,0.714,0.479,0.966,0.822s0.434,0.736,0.546,1.176
		c0.112,0.44,0.152,0.9,0.12,1.38h-4.476C16.626,6.433,16.766,6.832,17.022,7.08z M18.948,3.816
		c-0.204-0.224-0.514-0.336-0.93-0.336c-0.272,0-0.498,0.046-0.678,0.138s-0.324,0.206-0.432,0.342
		C16.8,4.097,16.724,4.24,16.68,4.393c-0.044,0.151-0.07,0.288-0.078,0.408h2.772C19.294,4.368,19.152,4.04,18.948,3.816z"/>
	<path fill="#FFFFFF" d="M23.913,2.364v1.152h0.024c0.08-0.192,0.188-0.37,0.324-0.534c0.136-0.164,0.292-0.304,0.468-0.42
		c0.176-0.116,0.364-0.206,0.564-0.271c0.2-0.063,0.408-0.096,0.624-0.096c0.112,0,0.236,0.021,0.372,0.061v1.584
		c-0.08-0.017-0.176-0.03-0.288-0.042c-0.112-0.013-0.22-0.019-0.324-0.019c-0.312,0-0.576,0.052-0.792,0.156
		c-0.216,0.104-0.39,0.246-0.522,0.426c-0.132,0.18-0.226,0.39-0.282,0.63c-0.056,0.24-0.084,0.5-0.084,0.78v2.796h-1.704V2.364
		H23.913z"/>
	<path fill="#FFFFFF" d="M27.159,4.272c0.024-0.4,0.124-0.732,0.3-0.996c0.176-0.264,0.4-0.476,0.672-0.636s0.578-0.274,0.918-0.342
		c0.34-0.068,0.682-0.103,1.026-0.103c0.312,0,0.628,0.022,0.948,0.066s0.612,0.13,0.876,0.258s0.48,0.306,0.648,0.534
		c0.168,0.228,0.252,0.529,0.252,0.905v3.229c0,0.28,0.016,0.548,0.048,0.804c0.032,0.256,0.088,0.448,0.168,0.576h-1.728
		c-0.032-0.096-0.058-0.194-0.078-0.294s-0.034-0.202-0.042-0.306c-0.272,0.279-0.592,0.476-0.96,0.588
		c-0.368,0.111-0.744,0.168-1.128,0.168c-0.296,0-0.572-0.036-0.828-0.108s-0.48-0.184-0.672-0.336
		c-0.192-0.151-0.342-0.344-0.45-0.576c-0.108-0.231-0.162-0.508-0.162-0.828c0-0.352,0.062-0.642,0.186-0.869
		c0.124-0.229,0.284-0.41,0.48-0.547c0.196-0.136,0.42-0.237,0.672-0.306c0.252-0.067,0.506-0.122,0.762-0.162
		s0.508-0.072,0.756-0.096c0.248-0.024,0.468-0.061,0.66-0.108s0.344-0.117,0.456-0.21c0.112-0.092,0.164-0.226,0.156-0.401
		c0-0.185-0.03-0.33-0.09-0.438s-0.14-0.192-0.24-0.252c-0.1-0.06-0.216-0.1-0.348-0.12c-0.132-0.02-0.274-0.03-0.426-0.03
		c-0.336,0-0.6,0.072-0.792,0.217c-0.192,0.144-0.304,0.384-0.336,0.72H27.159z M31.095,5.532c-0.072,0.064-0.162,0.114-0.27,0.15
		c-0.108,0.036-0.224,0.065-0.348,0.09c-0.124,0.023-0.254,0.044-0.39,0.06c-0.136,0.017-0.272,0.036-0.408,0.061
		c-0.128,0.023-0.254,0.056-0.378,0.096s-0.232,0.094-0.324,0.162c-0.092,0.068-0.166,0.154-0.222,0.258
		c-0.056,0.104-0.084,0.236-0.084,0.396c0,0.151,0.028,0.28,0.084,0.384s0.132,0.186,0.228,0.246
		c0.096,0.06,0.208,0.102,0.336,0.126c0.128,0.023,0.26,0.036,0.396,0.036c0.336,0,0.596-0.057,0.78-0.168
		c0.184-0.112,0.32-0.246,0.408-0.402s0.142-0.313,0.162-0.474s0.03-0.288,0.03-0.385V5.532z"/>
	<path fill="#FFFFFF" d="M37.203,3.48c-0.272,0-0.5,0.062-0.684,0.186c-0.185,0.124-0.334,0.284-0.45,0.48
		c-0.116,0.196-0.198,0.412-0.246,0.647c-0.048,0.236-0.072,0.471-0.072,0.702c0,0.225,0.024,0.452,0.072,0.685
		c0.048,0.231,0.126,0.441,0.234,0.63c0.108,0.188,0.254,0.342,0.438,0.462s0.408,0.18,0.672,0.18c0.408,0,0.722-0.114,0.942-0.342
		c0.22-0.228,0.358-0.534,0.414-0.918h1.644c-0.112,0.824-0.432,1.452-0.96,1.884c-0.528,0.433-1.204,0.648-2.028,0.648
		c-0.464,0-0.89-0.078-1.278-0.234c-0.388-0.156-0.718-0.374-0.99-0.654c-0.272-0.279-0.484-0.613-0.636-1.002
		c-0.152-0.388-0.228-0.813-0.228-1.277c0-0.48,0.07-0.926,0.21-1.338c0.14-0.412,0.346-0.769,0.618-1.068
		c0.271-0.3,0.604-0.534,0.996-0.702s0.84-0.252,1.344-0.252c0.368,0,0.722,0.048,1.062,0.145c0.34,0.096,0.644,0.241,0.912,0.438
		c0.268,0.196,0.486,0.44,0.654,0.732s0.264,0.638,0.288,1.038h-1.668C38.351,3.836,37.931,3.48,37.203,3.48z"/>
	<path fill="#FFFFFF" d="M44.799,2.364v1.14h-1.248v3.072c0,0.288,0.048,0.48,0.144,0.576c0.096,0.096,0.288,0.144,0.576,0.144
		c0.096,0,0.188-0.004,0.276-0.012c0.088-0.008,0.172-0.02,0.252-0.036v1.32c-0.144,0.024-0.304,0.04-0.48,0.048
		c-0.176,0.008-0.348,0.012-0.516,0.012c-0.264,0-0.514-0.018-0.75-0.054c-0.236-0.036-0.444-0.105-0.624-0.21
		c-0.18-0.104-0.322-0.252-0.426-0.444c-0.104-0.191-0.156-0.443-0.156-0.756v-3.66h-1.032v-1.14h1.032v-1.86h1.704v1.86H44.799z"/>
	<path fill="#FFFFFF" d="M45.926,1.404V0h1.704v1.404H45.926z M47.63,2.364v6.204h-1.704V2.364H47.63z"/>
	<path fill="#FFFFFF" d="M49.161,4.122c0.152-0.403,0.368-0.748,0.648-1.031c0.28-0.284,0.616-0.505,1.008-0.66
		c0.392-0.156,0.832-0.234,1.32-0.234c0.488,0,0.93,0.078,1.326,0.234c0.396,0.155,0.734,0.376,1.014,0.66
		c0.28,0.283,0.496,0.628,0.648,1.031c0.152,0.404,0.228,0.854,0.228,1.351s-0.076,0.943-0.228,1.344s-0.368,0.742-0.648,1.026
		c-0.28,0.283-0.618,0.502-1.014,0.653c-0.396,0.152-0.838,0.229-1.326,0.229c-0.488,0-0.928-0.076-1.32-0.229
		c-0.392-0.151-0.728-0.37-1.008-0.653c-0.28-0.284-0.496-0.626-0.648-1.026c-0.152-0.4-0.228-0.848-0.228-1.344
		S49.008,4.526,49.161,4.122z M50.708,6.198c0.048,0.236,0.13,0.448,0.246,0.636c0.116,0.188,0.27,0.339,0.462,0.45
		c0.192,0.112,0.432,0.168,0.72,0.168s0.53-0.056,0.726-0.168c0.196-0.111,0.352-0.262,0.468-0.45
		c0.116-0.188,0.198-0.399,0.246-0.636c0.048-0.235,0.072-0.478,0.072-0.726S53.625,4.98,53.577,4.74
		c-0.048-0.24-0.13-0.452-0.246-0.636c-0.116-0.184-0.272-0.334-0.468-0.45c-0.196-0.116-0.438-0.174-0.726-0.174
		s-0.528,0.058-0.72,0.174s-0.346,0.267-0.462,0.45C50.838,4.288,50.756,4.5,50.708,4.74s-0.072,0.484-0.072,0.732
		S50.661,5.963,50.708,6.198z"/>
	<path fill="#FFFFFF" d="M58.237,2.364v0.864h0.036c0.216-0.36,0.496-0.622,0.84-0.786c0.344-0.164,0.696-0.246,1.056-0.246
		c0.456,0,0.83,0.062,1.122,0.187s0.522,0.296,0.69,0.516s0.286,0.488,0.354,0.804c0.068,0.316,0.102,0.666,0.102,1.05v3.816h-1.704
		V5.064c0-0.512-0.08-0.895-0.24-1.146S60.049,3.54,59.641,3.54c-0.464,0-0.8,0.139-1.008,0.414
		c-0.208,0.276-0.312,0.73-0.312,1.362v3.252h-1.704V2.364H58.237z"/>
	<path fill="#FFFFFF" d="M71.185,0c0.552,0,1.066,0.089,1.542,0.265s0.888,0.439,1.236,0.792c0.348,0.352,0.62,0.792,0.816,1.319
		c0.196,0.528,0.294,1.148,0.294,1.86c0,0.624-0.08,1.2-0.24,1.729c-0.16,0.527-0.402,0.983-0.726,1.367
		c-0.324,0.385-0.728,0.687-1.212,0.906s-1.054,0.33-1.71,0.33h-3.696V0H71.185z M71.053,6.984c0.272,0,0.536-0.044,0.792-0.132
		c0.256-0.088,0.484-0.234,0.684-0.438c0.2-0.204,0.36-0.47,0.48-0.798c0.12-0.328,0.18-0.728,0.18-1.2
		c0-0.432-0.042-0.821-0.126-1.17c-0.084-0.348-0.222-0.646-0.414-0.894c-0.192-0.248-0.446-0.438-0.762-0.57
		c-0.316-0.132-0.706-0.198-1.17-0.198h-1.344v5.4H71.053z"/>
	<path fill="#FFFFFF" d="M78.196,7.08c0.256,0.248,0.624,0.372,1.104,0.372c0.344,0,0.64-0.086,0.888-0.258s0.4-0.354,0.456-0.546
		h1.5c-0.24,0.744-0.608,1.276-1.104,1.596c-0.496,0.32-1.096,0.48-1.8,0.48c-0.488,0-0.928-0.078-1.32-0.234
		s-0.724-0.378-0.996-0.666c-0.272-0.288-0.482-0.632-0.63-1.032c-0.148-0.399-0.222-0.84-0.222-1.319
		c0-0.464,0.076-0.896,0.228-1.296c0.152-0.4,0.368-0.746,0.648-1.038c0.28-0.292,0.614-0.522,1.002-0.69
		c0.388-0.168,0.818-0.252,1.29-0.252c0.528,0,0.988,0.103,1.38,0.306c0.392,0.204,0.714,0.479,0.966,0.822S82.02,4.061,82.132,4.5
		c0.112,0.44,0.152,0.9,0.12,1.38h-4.476C77.8,6.433,77.939,6.832,78.196,7.08z M80.122,3.816c-0.204-0.224-0.514-0.336-0.93-0.336
		c-0.272,0-0.498,0.046-0.678,0.138s-0.324,0.206-0.432,0.342c-0.108,0.137-0.184,0.28-0.228,0.433
		c-0.044,0.151-0.07,0.288-0.078,0.408h2.772C80.468,4.368,80.326,4.04,80.122,3.816z"/>
	<path fill="#FFFFFF" d="M84.864,7.026c0.076,0.132,0.174,0.24,0.294,0.324s0.258,0.146,0.414,0.186
		c0.156,0.04,0.318,0.061,0.486,0.061c0.12,0,0.246-0.015,0.378-0.042c0.132-0.028,0.252-0.072,0.36-0.133
		c0.108-0.06,0.198-0.14,0.27-0.239c0.072-0.101,0.108-0.227,0.108-0.378c0-0.256-0.17-0.448-0.51-0.576
		c-0.34-0.128-0.814-0.256-1.422-0.384c-0.248-0.057-0.49-0.122-0.726-0.198s-0.446-0.176-0.63-0.3s-0.332-0.28-0.444-0.469
		C83.33,4.69,83.274,4.46,83.274,4.188c0-0.4,0.078-0.728,0.234-0.984c0.156-0.256,0.362-0.458,0.618-0.605
		c0.256-0.148,0.543-0.252,0.864-0.312c0.32-0.06,0.648-0.09,0.984-0.09s0.662,0.032,0.978,0.096
		c0.316,0.064,0.598,0.173,0.846,0.324c0.248,0.152,0.454,0.354,0.618,0.606s0.262,0.569,0.294,0.954h-1.62
		c-0.024-0.328-0.148-0.551-0.372-0.666c-0.224-0.116-0.488-0.175-0.792-0.175c-0.096,0-0.2,0.007-0.312,0.019
		c-0.112,0.012-0.214,0.038-0.306,0.078s-0.17,0.098-0.234,0.174s-0.096,0.178-0.096,0.306c0,0.152,0.056,0.276,0.168,0.372
		c0.112,0.096,0.258,0.174,0.438,0.234c0.18,0.06,0.386,0.114,0.618,0.162s0.468,0.1,0.708,0.155
		c0.248,0.057,0.49,0.125,0.726,0.204c0.236,0.08,0.446,0.187,0.63,0.318s0.332,0.296,0.444,0.492
		c0.112,0.196,0.168,0.438,0.168,0.726c0,0.408-0.083,0.75-0.246,1.026c-0.164,0.275-0.378,0.498-0.642,0.666
		s-0.566,0.286-0.906,0.354c-0.34,0.068-0.686,0.103-1.038,0.103c-0.36,0-0.712-0.036-1.056-0.108
		c-0.344-0.072-0.65-0.191-0.918-0.359c-0.268-0.169-0.488-0.391-0.66-0.666c-0.172-0.276-0.266-0.622-0.282-1.038h1.62
		C84.75,6.736,84.788,6.895,84.864,7.026z"/>
	<path fill="#FFFFFF" d="M90.131,1.404V0h1.704v1.404H90.131z M91.835,2.364v6.204h-1.704V2.364H91.835z"/>
	<path fill="#FFFFFF" d="M99.208,9.024c-0.068,0.319-0.214,0.618-0.438,0.894c-0.224,0.276-0.548,0.511-0.972,0.702
		c-0.424,0.192-0.992,0.288-1.704,0.288c-0.304,0-0.614-0.038-0.93-0.114S94.56,10.601,94.3,10.44
		c-0.26-0.16-0.476-0.366-0.648-0.618c-0.172-0.252-0.27-0.554-0.294-0.906h1.692c0.08,0.32,0.236,0.542,0.468,0.666
		s0.5,0.187,0.804,0.187c0.48,0,0.83-0.145,1.05-0.433c0.22-0.287,0.326-0.651,0.318-1.092V7.429h-0.024
		c-0.184,0.328-0.446,0.569-0.786,0.726c-0.34,0.156-0.698,0.234-1.074,0.234c-0.464,0-0.864-0.082-1.2-0.246
		c-0.336-0.164-0.612-0.388-0.828-0.672c-0.216-0.284-0.374-0.616-0.474-0.996s-0.15-0.782-0.15-1.206
		c0-0.4,0.058-0.786,0.174-1.158c0.116-0.372,0.286-0.7,0.51-0.984c0.224-0.283,0.502-0.51,0.834-0.678
		c0.332-0.168,0.714-0.252,1.146-0.252c0.408,0,0.766,0.076,1.074,0.229c0.308,0.151,0.566,0.407,0.774,0.768h0.024V2.364h1.62
		v5.808C99.31,8.421,99.276,8.704,99.208,9.024z M96.874,6.96c0.184-0.096,0.336-0.224,0.456-0.384c0.12-0.16,0.21-0.342,0.27-0.546
		s0.09-0.418,0.09-0.642c0-0.256-0.024-0.498-0.072-0.727c-0.048-0.228-0.128-0.43-0.24-0.605c-0.112-0.176-0.26-0.316-0.444-0.42
		C96.75,3.532,96.518,3.48,96.238,3.48c-0.24,0-0.446,0.048-0.618,0.144c-0.172,0.097-0.316,0.227-0.432,0.391
		c-0.116,0.164-0.2,0.352-0.252,0.563c-0.052,0.212-0.078,0.435-0.078,0.666c0,0.225,0.022,0.446,0.066,0.666
		c0.044,0.221,0.12,0.418,0.228,0.594c0.108,0.177,0.25,0.32,0.426,0.433s0.396,0.168,0.66,0.168
		C96.478,7.104,96.69,7.057,96.874,6.96z"/>
	<path fill="#FFFFFF" d="M102.481,2.364v0.864h0.036c0.216-0.36,0.496-0.622,0.84-0.786c0.344-0.164,0.696-0.246,1.056-0.246
		c0.456,0,0.83,0.062,1.122,0.187s0.522,0.296,0.69,0.516s0.286,0.488,0.354,0.804c0.068,0.316,0.102,0.666,0.102,1.05v3.816h-1.704
		V5.064c0-0.512-0.08-0.895-0.24-1.146s-0.444-0.378-0.852-0.378c-0.464,0-0.8,0.139-1.008,0.414
		c-0.208,0.276-0.312,0.73-0.312,1.362v3.252h-1.704V2.364H102.481z"/>
</g>
<g>
	<path fill="#FFFFFF" d="M30.481,72.568L27.709,64h1.932l1.908,6.024h0.024L33.505,64h1.944l-2.844,8.568H30.481z"/>
	<path fill="#FFFFFF" d="M36.325,65.404V64h1.704v1.404H36.325z M38.029,66.364v6.204h-1.704v-6.204H38.029z"/>
	<path fill="#FFFFFF" d="M41.011,71.026c0.076,0.132,0.174,0.24,0.294,0.324s0.258,0.146,0.414,0.186
		c0.156,0.04,0.318,0.061,0.486,0.061c0.12,0,0.246-0.015,0.378-0.042c0.132-0.028,0.252-0.072,0.36-0.133
		c0.108-0.06,0.198-0.14,0.27-0.239c0.072-0.101,0.108-0.227,0.108-0.378c0-0.256-0.17-0.448-0.51-0.576
		c-0.34-0.128-0.814-0.256-1.422-0.384c-0.248-0.057-0.49-0.122-0.726-0.198s-0.446-0.176-0.63-0.3s-0.332-0.28-0.444-0.469
		c-0.112-0.188-0.168-0.418-0.168-0.689c0-0.4,0.078-0.728,0.234-0.984c0.156-0.256,0.362-0.458,0.618-0.605
		c0.256-0.148,0.543-0.252,0.864-0.312c0.32-0.06,0.648-0.09,0.984-0.09s0.662,0.032,0.978,0.096
		c0.316,0.064,0.598,0.173,0.846,0.324c0.248,0.152,0.454,0.354,0.618,0.606s0.262,0.569,0.294,0.954h-1.62
		c-0.024-0.328-0.148-0.551-0.372-0.666c-0.224-0.116-0.488-0.175-0.792-0.175c-0.096,0-0.2,0.007-0.312,0.019
		c-0.112,0.012-0.214,0.038-0.306,0.078s-0.17,0.098-0.234,0.174s-0.096,0.178-0.096,0.306c0,0.152,0.056,0.276,0.168,0.372
		c0.112,0.096,0.258,0.174,0.438,0.234c0.18,0.06,0.386,0.114,0.618,0.162s0.468,0.1,0.708,0.155
		c0.248,0.057,0.49,0.125,0.726,0.204c0.236,0.08,0.446,0.187,0.63,0.318s0.332,0.296,0.444,0.492
		c0.112,0.196,0.168,0.438,0.168,0.726c0,0.408-0.083,0.75-0.246,1.026c-0.164,0.275-0.378,0.498-0.642,0.666
		s-0.566,0.286-0.906,0.354c-0.34,0.068-0.686,0.103-1.038,0.103c-0.36,0-0.712-0.036-1.056-0.108
		c-0.344-0.072-0.65-0.191-0.918-0.359c-0.268-0.169-0.488-0.391-0.66-0.666c-0.172-0.276-0.266-0.622-0.282-1.038h1.62
		C40.896,70.736,40.935,70.895,41.011,71.026z"/>
	<path fill="#FFFFFF" d="M50.401,72.568v-0.864h-0.036c-0.216,0.36-0.496,0.62-0.84,0.78c-0.344,0.16-0.696,0.24-1.056,0.24
		c-0.456,0-0.83-0.061-1.122-0.181c-0.292-0.119-0.522-0.289-0.69-0.51c-0.168-0.22-0.286-0.487-0.354-0.804
		s-0.102-0.666-0.102-1.05v-3.816h1.704v3.504c0,0.513,0.08,0.895,0.24,1.146s0.444,0.378,0.852,0.378
		c0.464,0,0.8-0.139,1.008-0.414c0.208-0.276,0.312-0.73,0.312-1.362v-3.252h1.704v6.204H50.401z"/>
	<path fill="#FFFFFF" d="M53.467,68.272c0.024-0.4,0.124-0.732,0.3-0.996c0.176-0.264,0.4-0.476,0.672-0.636
		s0.578-0.274,0.918-0.342c0.34-0.068,0.682-0.103,1.026-0.103c0.312,0,0.628,0.022,0.948,0.066s0.612,0.13,0.876,0.258
		s0.48,0.306,0.648,0.534c0.168,0.228,0.252,0.529,0.252,0.905v3.229c0,0.28,0.016,0.548,0.048,0.804
		c0.032,0.256,0.088,0.448,0.168,0.576h-1.728c-0.032-0.096-0.058-0.194-0.078-0.294s-0.034-0.202-0.042-0.306
		c-0.272,0.279-0.592,0.476-0.96,0.588c-0.368,0.111-0.744,0.168-1.128,0.168c-0.296,0-0.572-0.036-0.828-0.108
		s-0.48-0.184-0.672-0.336c-0.192-0.151-0.342-0.344-0.45-0.576c-0.108-0.231-0.162-0.508-0.162-0.828
		c0-0.352,0.062-0.642,0.186-0.869c0.124-0.229,0.284-0.41,0.48-0.547c0.196-0.136,0.42-0.237,0.672-0.306
		c0.252-0.067,0.506-0.122,0.762-0.162s0.508-0.072,0.756-0.096c0.248-0.024,0.468-0.061,0.66-0.108s0.344-0.117,0.456-0.21
		c0.112-0.092,0.164-0.226,0.156-0.401c0-0.185-0.03-0.33-0.09-0.438s-0.14-0.192-0.24-0.252c-0.1-0.06-0.216-0.1-0.348-0.12
		c-0.132-0.02-0.274-0.03-0.426-0.03c-0.336,0-0.6,0.072-0.792,0.217c-0.192,0.144-0.304,0.384-0.336,0.72H53.467z M57.403,69.532
		c-0.072,0.064-0.162,0.114-0.27,0.15c-0.108,0.036-0.224,0.065-0.348,0.09c-0.124,0.023-0.254,0.044-0.39,0.06
		c-0.136,0.017-0.272,0.036-0.408,0.061c-0.128,0.023-0.254,0.056-0.378,0.096s-0.232,0.094-0.324,0.162
		c-0.092,0.068-0.166,0.154-0.222,0.258c-0.056,0.104-0.084,0.236-0.084,0.396c0,0.151,0.028,0.28,0.084,0.384
		s0.132,0.186,0.228,0.246c0.096,0.06,0.208,0.102,0.336,0.126c0.128,0.023,0.26,0.036,0.396,0.036c0.336,0,0.596-0.057,0.78-0.168
		c0.184-0.112,0.32-0.246,0.408-0.402s0.142-0.313,0.162-0.474s0.03-0.288,0.03-0.385V69.532z"/>
	<path fill="#FFFFFF" d="M62.362,64v8.568h-1.704V64H62.362z"/>
	<path fill="#FFFFFF" d="M71.158,64c0.552,0,1.066,0.089,1.542,0.265s0.888,0.439,1.236,0.792c0.348,0.352,0.62,0.792,0.816,1.319
		c0.196,0.528,0.294,1.148,0.294,1.86c0,0.624-0.08,1.2-0.24,1.729c-0.16,0.527-0.402,0.983-0.726,1.367
		c-0.324,0.385-0.728,0.687-1.212,0.906s-1.054,0.33-1.71,0.33h-3.696V64H71.158z M71.026,70.984c0.272,0,0.536-0.044,0.792-0.132
		c0.256-0.088,0.484-0.234,0.684-0.438c0.2-0.204,0.36-0.47,0.48-0.798c0.12-0.328,0.18-0.728,0.18-1.2
		c0-0.432-0.042-0.821-0.126-1.17c-0.084-0.348-0.222-0.646-0.414-0.894c-0.192-0.248-0.446-0.438-0.762-0.57
		c-0.316-0.132-0.706-0.198-1.17-0.198h-1.344v5.4H71.026z"/>
	<path fill="#FFFFFF" d="M78.168,71.08c0.256,0.248,0.624,0.372,1.104,0.372c0.344,0,0.64-0.086,0.888-0.258s0.4-0.354,0.456-0.546
		h1.5c-0.24,0.744-0.608,1.276-1.104,1.596c-0.496,0.32-1.096,0.48-1.8,0.48c-0.488,0-0.928-0.078-1.32-0.234
		s-0.724-0.378-0.996-0.666c-0.272-0.288-0.482-0.632-0.63-1.032c-0.148-0.399-0.222-0.84-0.222-1.319
		c0-0.464,0.076-0.896,0.228-1.296c0.152-0.4,0.368-0.746,0.648-1.038c0.28-0.292,0.614-0.522,1.002-0.69
		c0.388-0.168,0.818-0.252,1.29-0.252c0.528,0,0.988,0.103,1.38,0.306c0.392,0.204,0.714,0.479,0.966,0.822s0.434,0.736,0.546,1.176
		c0.112,0.44,0.152,0.9,0.12,1.38h-4.476C77.772,70.433,77.912,70.832,78.168,71.08z M80.094,67.816
		c-0.204-0.224-0.514-0.336-0.93-0.336c-0.272,0-0.498,0.046-0.678,0.138s-0.324,0.206-0.432,0.342
		c-0.108,0.137-0.184,0.28-0.228,0.433c-0.044,0.151-0.07,0.288-0.078,0.408h2.772C80.44,68.368,80.298,68.04,80.094,67.816z"/>
	<path fill="#FFFFFF" d="M84.836,71.026c0.076,0.132,0.174,0.24,0.294,0.324s0.258,0.146,0.414,0.186
		c0.156,0.04,0.318,0.061,0.486,0.061c0.12,0,0.246-0.015,0.378-0.042c0.132-0.028,0.252-0.072,0.36-0.133
		c0.108-0.06,0.198-0.14,0.27-0.239c0.072-0.101,0.108-0.227,0.108-0.378c0-0.256-0.17-0.448-0.51-0.576
		c-0.34-0.128-0.814-0.256-1.422-0.384c-0.248-0.057-0.49-0.122-0.726-0.198s-0.446-0.176-0.63-0.3s-0.332-0.28-0.444-0.469
		c-0.112-0.188-0.168-0.418-0.168-0.689c0-0.4,0.078-0.728,0.234-0.984c0.156-0.256,0.362-0.458,0.618-0.605
		c0.256-0.148,0.543-0.252,0.864-0.312c0.32-0.06,0.648-0.09,0.984-0.09s0.662,0.032,0.978,0.096
		c0.316,0.064,0.598,0.173,0.846,0.324c0.248,0.152,0.454,0.354,0.618,0.606s0.262,0.569,0.294,0.954h-1.62
		c-0.024-0.328-0.148-0.551-0.372-0.666c-0.224-0.116-0.488-0.175-0.792-0.175c-0.096,0-0.2,0.007-0.312,0.019
		c-0.112,0.012-0.214,0.038-0.306,0.078s-0.17,0.098-0.234,0.174s-0.096,0.178-0.096,0.306c0,0.152,0.056,0.276,0.168,0.372
		c0.112,0.096,0.258,0.174,0.438,0.234c0.18,0.06,0.386,0.114,0.618,0.162s0.468,0.1,0.708,0.155
		c0.248,0.057,0.49,0.125,0.726,0.204c0.236,0.08,0.446,0.187,0.63,0.318s0.332,0.296,0.444,0.492
		c0.112,0.196,0.168,0.438,0.168,0.726c0,0.408-0.083,0.75-0.246,1.026c-0.164,0.275-0.378,0.498-0.642,0.666
		s-0.566,0.286-0.906,0.354c-0.34,0.068-0.686,0.103-1.038,0.103c-0.36,0-0.712-0.036-1.056-0.108
		c-0.344-0.072-0.65-0.191-0.918-0.359c-0.268-0.169-0.488-0.391-0.66-0.666c-0.172-0.276-0.266-0.622-0.282-1.038h1.62
		C84.722,70.736,84.76,70.895,84.836,71.026z"/>
	<path fill="#FFFFFF" d="M90.104,65.404V64h1.704v1.404H90.104z M91.808,66.364v6.204h-1.704v-6.204H91.808z"/>
	<path fill="#FFFFFF" d="M99.181,73.024c-0.068,0.319-0.214,0.618-0.438,0.894c-0.224,0.276-0.548,0.511-0.972,0.702
		c-0.424,0.192-0.992,0.288-1.704,0.288c-0.304,0-0.614-0.038-0.93-0.114s-0.604-0.193-0.864-0.354
		c-0.26-0.16-0.476-0.366-0.648-0.618c-0.172-0.252-0.27-0.554-0.294-0.906h1.692c0.08,0.32,0.236,0.542,0.468,0.666
		s0.5,0.187,0.804,0.187c0.48,0,0.83-0.145,1.05-0.433c0.22-0.287,0.326-0.651,0.318-1.092v-0.815h-0.024
		c-0.184,0.328-0.446,0.569-0.786,0.726c-0.34,0.156-0.698,0.234-1.074,0.234c-0.464,0-0.864-0.082-1.2-0.246
		c-0.336-0.164-0.612-0.388-0.828-0.672c-0.216-0.284-0.374-0.616-0.474-0.996s-0.15-0.782-0.15-1.206
		c0-0.4,0.058-0.786,0.174-1.158c0.116-0.372,0.286-0.7,0.51-0.984c0.224-0.283,0.502-0.51,0.834-0.678
		c0.332-0.168,0.714-0.252,1.146-0.252c0.408,0,0.766,0.076,1.074,0.229c0.308,0.151,0.566,0.407,0.774,0.768h0.024v-0.828h1.62
		v5.808C99.283,72.421,99.249,72.704,99.181,73.024z M96.847,70.96c0.184-0.096,0.336-0.224,0.456-0.384
		c0.12-0.16,0.21-0.342,0.27-0.546s0.09-0.418,0.09-0.642c0-0.256-0.024-0.498-0.072-0.727c-0.048-0.228-0.128-0.43-0.24-0.605
		c-0.112-0.176-0.26-0.316-0.444-0.42c-0.184-0.104-0.416-0.156-0.696-0.156c-0.24,0-0.446,0.048-0.618,0.144
		c-0.172,0.097-0.316,0.227-0.432,0.391c-0.116,0.164-0.2,0.352-0.252,0.563c-0.052,0.212-0.078,0.435-0.078,0.666
		c0,0.225,0.022,0.446,0.066,0.666c0.044,0.221,0.12,0.418,0.228,0.594c0.108,0.177,0.25,0.32,0.426,0.433s0.396,0.168,0.66,0.168
		C96.451,71.104,96.663,71.057,96.847,70.96z"/>
	<path fill="#FFFFFF" d="M102.454,66.364v0.864h0.036c0.216-0.36,0.496-0.622,0.84-0.786c0.344-0.164,0.696-0.246,1.056-0.246
		c0.456,0,0.83,0.062,1.122,0.187s0.522,0.296,0.69,0.516s0.286,0.488,0.354,0.804c0.068,0.316,0.102,0.666,0.102,1.05v3.816h-1.704
		v-3.504c0-0.512-0.08-0.895-0.24-1.146s-0.444-0.378-0.852-0.378c-0.464,0-0.8,0.139-1.008,0.414
		c-0.208,0.276-0.312,0.73-0.312,1.362v3.252h-1.704v-6.204H102.454z"/>
</g>
<g>
	<path fill="#FFFFFF" d="M69.366,27.643c0.99,0,1.751,0.252,2.286,0.756s0.801,1.272,0.801,2.304c0,0.54-0.06,1.019-0.18,1.436
		s-0.306,0.769-0.558,1.053c-0.252,0.285-0.573,0.503-0.963,0.653c-0.39,0.149-0.852,0.225-1.386,0.225h-2.205v-6.426H69.366z
		 M69.438,33.349c0.096,0,0.216-0.008,0.36-0.022c0.144-0.016,0.297-0.051,0.459-0.108c0.162-0.057,0.323-0.14,0.481-0.247
		c0.159-0.108,0.302-0.255,0.428-0.441c0.126-0.186,0.229-0.418,0.311-0.697s0.122-0.616,0.122-1.013
		c0-0.384-0.038-0.728-0.113-1.03s-0.198-0.562-0.369-0.774c-0.171-0.213-0.392-0.375-0.662-0.485
		c-0.27-0.111-0.603-0.167-0.999-0.167h-1.44v4.986H69.438z"/>
	<path fill="#FFFFFF" d="M73.505,28.578v-0.936h0.765v0.936H73.505z M74.271,29.415v4.653h-0.765v-4.653H74.271z"/>
	<path fill="#FFFFFF" d="M76.133,33.029c0.072,0.116,0.167,0.21,0.283,0.278c0.117,0.069,0.249,0.119,0.396,0.148
		c0.147,0.03,0.298,0.045,0.455,0.045c0.12,0,0.246-0.009,0.378-0.026c0.132-0.019,0.253-0.051,0.365-0.1
		c0.111-0.048,0.203-0.118,0.274-0.211s0.108-0.212,0.108-0.355c0-0.198-0.075-0.348-0.225-0.45
		c-0.15-0.102-0.337-0.185-0.562-0.247c-0.225-0.063-0.469-0.12-0.733-0.172c-0.264-0.051-0.508-0.122-0.733-0.216
		c-0.225-0.093-0.413-0.224-0.562-0.392s-0.225-0.401-0.225-0.702c0-0.233,0.053-0.435,0.158-0.603s0.24-0.305,0.405-0.409
		c0.165-0.105,0.351-0.184,0.558-0.234s0.413-0.076,0.617-0.076c0.264,0,0.507,0.022,0.729,0.067
		c0.222,0.045,0.418,0.123,0.589,0.233c0.171,0.111,0.307,0.262,0.409,0.45c0.102,0.189,0.162,0.425,0.18,0.707H78.23
		c-0.012-0.15-0.051-0.274-0.117-0.374c-0.066-0.099-0.15-0.178-0.252-0.238c-0.102-0.06-0.215-0.104-0.338-0.131
		c-0.123-0.026-0.247-0.04-0.373-0.04c-0.114,0-0.229,0.009-0.347,0.027c-0.117,0.018-0.224,0.049-0.319,0.094
		c-0.096,0.045-0.174,0.105-0.234,0.181s-0.09,0.172-0.09,0.292c0,0.132,0.046,0.242,0.14,0.329
		c0.093,0.087,0.211,0.158,0.355,0.216c0.144,0.057,0.306,0.104,0.486,0.144s0.36,0.08,0.54,0.122
		c0.192,0.042,0.379,0.093,0.562,0.152c0.183,0.061,0.345,0.14,0.486,0.239c0.141,0.099,0.255,0.223,0.342,0.373
		s0.13,0.336,0.13,0.558c0,0.282-0.059,0.517-0.175,0.702c-0.117,0.187-0.27,0.336-0.459,0.45s-0.402,0.193-0.639,0.238
		c-0.237,0.045-0.473,0.067-0.707,0.067c-0.258,0-0.504-0.026-0.738-0.081c-0.234-0.054-0.441-0.142-0.621-0.265
		c-0.18-0.123-0.324-0.285-0.432-0.486s-0.168-0.445-0.18-0.733h0.765C76.022,32.77,76.061,32.912,76.133,33.029z"/>
	<path fill="#FFFFFF" d="M82.919,30.226c-0.192-0.162-0.45-0.243-0.774-0.243c-0.276,0-0.507,0.051-0.693,0.153
		c-0.186,0.102-0.334,0.236-0.446,0.404c-0.111,0.168-0.19,0.362-0.238,0.581c-0.048,0.219-0.072,0.445-0.072,0.68
		c0,0.216,0.026,0.426,0.077,0.63s0.13,0.386,0.239,0.544c0.108,0.159,0.249,0.287,0.423,0.383c0.174,0.096,0.381,0.144,0.621,0.144
		c0.378,0,0.673-0.099,0.886-0.297c0.213-0.197,0.344-0.477,0.392-0.837h0.783c-0.084,0.576-0.299,1.021-0.644,1.332
		c-0.345,0.312-0.814,0.468-1.409,0.468c-0.354,0-0.667-0.057-0.94-0.171c-0.273-0.113-0.501-0.275-0.684-0.485
		s-0.321-0.461-0.414-0.752c-0.093-0.291-0.139-0.61-0.139-0.958c0-0.349,0.045-0.674,0.135-0.977
		c0.09-0.304,0.227-0.567,0.41-0.792c0.183-0.226,0.412-0.402,0.688-0.531c0.276-0.129,0.597-0.193,0.963-0.193
		c0.264,0,0.511,0.031,0.743,0.095c0.23,0.062,0.435,0.16,0.612,0.292c0.177,0.132,0.322,0.299,0.437,0.5
		c0.114,0.2,0.186,0.439,0.216,0.715h-0.792C83.237,30.615,83.111,30.388,82.919,30.226z"/>
	<path fill="#FFFFFF" d="M84.953,30.788c0.096-0.297,0.24-0.555,0.432-0.774c0.192-0.219,0.429-0.392,0.711-0.518
		c0.282-0.126,0.606-0.188,0.972-0.188c0.372,0,0.697,0.062,0.977,0.188c0.279,0.126,0.514,0.299,0.707,0.518
		c0.192,0.22,0.336,0.478,0.432,0.774c0.096,0.297,0.144,0.616,0.144,0.958s-0.048,0.66-0.144,0.954
		c-0.096,0.294-0.24,0.551-0.432,0.77c-0.192,0.219-0.428,0.391-0.707,0.513c-0.279,0.123-0.604,0.185-0.977,0.185
		c-0.366,0-0.69-0.062-0.972-0.185c-0.282-0.122-0.519-0.294-0.711-0.513s-0.336-0.476-0.432-0.77
		c-0.096-0.294-0.144-0.612-0.144-0.954S84.857,31.085,84.953,30.788z M85.732,32.498c0.075,0.219,0.178,0.402,0.311,0.549
		c0.132,0.147,0.286,0.26,0.463,0.338c0.177,0.078,0.364,0.116,0.562,0.116c0.198,0,0.385-0.038,0.562-0.116
		c0.177-0.078,0.332-0.19,0.463-0.338c0.132-0.146,0.235-0.33,0.311-0.549s0.113-0.47,0.113-0.752c0-0.281-0.038-0.532-0.113-0.751
		s-0.179-0.403-0.311-0.554s-0.287-0.264-0.463-0.342c-0.177-0.078-0.365-0.117-0.562-0.117c-0.198,0-0.386,0.039-0.562,0.117
		c-0.177,0.078-0.332,0.191-0.463,0.342c-0.132,0.15-0.236,0.335-0.311,0.554c-0.075,0.219-0.113,0.47-0.113,0.751
		C85.619,32.028,85.657,32.279,85.732,32.498z"/>
	<path fill="#FFFFFF" d="M91.595,34.068l-1.728-4.653h0.855l1.305,3.879h0.018l1.269-3.879h0.801l-1.701,4.653H91.595z"/>
	<path fill="#FFFFFF" d="M98.201,33.771c-0.348,0.264-0.786,0.396-1.314,0.396c-0.372,0-0.695-0.06-0.968-0.18
		s-0.502-0.288-0.688-0.504s-0.326-0.474-0.418-0.774c-0.093-0.3-0.146-0.627-0.157-0.98c0-0.354,0.054-0.678,0.162-0.972
		c0.108-0.294,0.26-0.55,0.455-0.766s0.426-0.384,0.693-0.504s0.56-0.18,0.878-0.18c0.414,0,0.757,0.085,1.03,0.256
		s0.492,0.389,0.657,0.653c0.165,0.264,0.279,0.552,0.342,0.863c0.063,0.312,0.088,0.609,0.077,0.892h-3.483
		c-0.006,0.204,0.018,0.397,0.072,0.58c0.054,0.184,0.141,0.345,0.261,0.486c0.12,0.141,0.273,0.253,0.459,0.337
		s0.405,0.126,0.657,0.126c0.324,0,0.589-0.074,0.796-0.225s0.344-0.378,0.41-0.684h0.756
		C98.774,33.114,98.549,33.508,98.201,33.771z M98.017,30.783c-0.069-0.162-0.162-0.302-0.279-0.418
		c-0.117-0.117-0.255-0.21-0.414-0.279c-0.159-0.069-0.335-0.104-0.527-0.104c-0.198,0-0.376,0.034-0.535,0.104
		c-0.159,0.069-0.296,0.163-0.41,0.283c-0.114,0.12-0.204,0.26-0.27,0.419s-0.105,0.328-0.117,0.508h2.673
		C98.126,31.116,98.085,30.945,98.017,30.783z"/>
	<path fill="#FFFFFF" d="M100.523,29.415v0.981h0.018c0.186-0.378,0.414-0.657,0.684-0.837c0.27-0.181,0.612-0.265,1.026-0.252v0.81
		c-0.306,0-0.567,0.042-0.783,0.126c-0.216,0.084-0.39,0.207-0.522,0.369s-0.228,0.358-0.288,0.59c-0.06,0.23-0.09,0.496-0.09,0.796
		v2.07h-0.765v-4.653H100.523z"/>
	<path fill="#FFFFFF" d="M104.744,34.689c-0.09,0.228-0.178,0.42-0.265,0.576c-0.087,0.155-0.183,0.283-0.288,0.382
		c-0.105,0.1-0.222,0.172-0.351,0.217s-0.278,0.067-0.445,0.067c-0.09,0-0.18-0.006-0.27-0.019c-0.09-0.012-0.177-0.033-0.261-0.062
		v-0.702c0.066,0.03,0.143,0.056,0.229,0.076c0.087,0.021,0.161,0.032,0.221,0.032c0.156,0,0.286-0.038,0.391-0.113
		s0.185-0.182,0.239-0.319l0.315-0.783l-1.845-4.626h0.864l1.359,3.808h0.018l1.305-3.808h0.81L104.744,34.689z"/>
</g>
<g>
	<path fill="#FFFFFF" d="M387.044,27.643v6.426h-0.855v-6.426H387.044z"/>
	<path fill="#FFFFFF" d="M389.168,29.415V30.1h0.019c0.348-0.528,0.849-0.792,1.502-0.792c0.289,0,0.55,0.06,0.783,0.18
		c0.234,0.12,0.399,0.324,0.496,0.612c0.155-0.252,0.361-0.447,0.615-0.585c0.256-0.139,0.536-0.207,0.842-0.207
		c0.234,0,0.445,0.025,0.635,0.076s0.352,0.131,0.486,0.238c0.135,0.108,0.24,0.248,0.314,0.419
		c0.075,0.171,0.113,0.376,0.113,0.616v3.411h-0.766v-3.051c0-0.145-0.012-0.279-0.036-0.405s-0.069-0.235-0.135-0.328
		c-0.065-0.094-0.157-0.167-0.274-0.221s-0.269-0.081-0.455-0.081c-0.377,0-0.674,0.108-0.891,0.324
		c-0.216,0.216-0.324,0.504-0.324,0.863v2.898h-0.765v-3.051c0-0.15-0.014-0.288-0.04-0.414c-0.027-0.126-0.074-0.235-0.141-0.329
		c-0.065-0.093-0.154-0.164-0.265-0.216c-0.111-0.051-0.254-0.076-0.428-0.076c-0.222,0-0.413,0.045-0.571,0.135
		c-0.159,0.09-0.288,0.198-0.387,0.324c-0.1,0.126-0.172,0.257-0.217,0.392s-0.067,0.247-0.067,0.337v2.898h-0.765v-4.653H389.168z"
		/>
	<path fill="#FFFFFF" d="M397.007,29.415v0.63h0.019c0.126-0.258,0.323-0.445,0.594-0.562c0.271-0.116,0.567-0.175,0.892-0.175
		c0.359,0,0.673,0.065,0.939,0.197c0.268,0.133,0.489,0.311,0.666,0.536c0.178,0.225,0.311,0.484,0.4,0.778s0.136,0.606,0.136,0.936
		c0,0.33-0.044,0.643-0.131,0.937s-0.219,0.551-0.396,0.77c-0.178,0.219-0.399,0.392-0.666,0.518
		c-0.268,0.126-0.578,0.188-0.932,0.188c-0.114,0-0.242-0.012-0.383-0.035c-0.141-0.024-0.28-0.063-0.418-0.117
		c-0.139-0.055-0.27-0.128-0.393-0.221s-0.227-0.208-0.31-0.347h-0.019v2.395h-0.765v-6.427H397.007z M399.757,31.066
		c-0.057-0.207-0.145-0.391-0.262-0.553s-0.267-0.291-0.449-0.388c-0.184-0.096-0.398-0.144-0.644-0.144
		c-0.259,0-0.478,0.051-0.657,0.153c-0.18,0.102-0.327,0.235-0.441,0.4c-0.113,0.165-0.196,0.353-0.247,0.562
		c-0.052,0.21-0.077,0.423-0.077,0.639c0,0.229,0.027,0.448,0.082,0.661c0.054,0.214,0.139,0.401,0.256,0.562
		c0.117,0.162,0.269,0.293,0.455,0.392c0.186,0.1,0.41,0.148,0.675,0.148c0.264,0,0.484-0.051,0.661-0.152
		c0.178-0.103,0.32-0.237,0.428-0.405s0.186-0.36,0.234-0.576c0.047-0.216,0.072-0.438,0.072-0.666
		C399.843,31.485,399.813,31.273,399.757,31.066z"/>
	<path fill="#FFFFFF" d="M402.452,27.643v6.426h-0.766v-6.426H402.452z"/>
	<path fill="#FFFFFF" d="M407.024,33.771c-0.349,0.264-0.787,0.396-1.314,0.396c-0.372,0-0.695-0.06-0.968-0.18
		s-0.503-0.288-0.688-0.504s-0.326-0.474-0.418-0.774c-0.094-0.3-0.146-0.627-0.158-0.98c0-0.354,0.055-0.678,0.162-0.972
		c0.108-0.294,0.26-0.55,0.455-0.766c0.194-0.216,0.426-0.384,0.692-0.504s0.56-0.18,0.878-0.18c0.414,0,0.758,0.085,1.03,0.256
		s0.491,0.389,0.657,0.653c0.164,0.264,0.279,0.552,0.342,0.863c0.062,0.312,0.088,0.609,0.076,0.892h-3.482
		c-0.006,0.204,0.018,0.397,0.072,0.58c0.053,0.184,0.141,0.345,0.26,0.486c0.121,0.141,0.273,0.253,0.459,0.337
		c0.187,0.084,0.406,0.126,0.658,0.126c0.324,0,0.589-0.074,0.796-0.225s0.344-0.378,0.409-0.684h0.756
		C407.597,33.114,407.372,33.508,407.024,33.771z M406.839,30.783c-0.068-0.162-0.162-0.302-0.278-0.418
		c-0.117-0.117-0.255-0.21-0.414-0.279s-0.335-0.104-0.526-0.104c-0.198,0-0.377,0.034-0.535,0.104
		c-0.16,0.069-0.297,0.163-0.41,0.283c-0.114,0.12-0.204,0.26-0.27,0.419c-0.066,0.159-0.105,0.328-0.117,0.508h2.673
		C406.948,31.116,406.908,30.945,406.839,30.783z"/>
	<path fill="#FFFFFF" d="M409.372,29.415V30.1h0.019c0.349-0.528,0.849-0.792,1.503-0.792c0.288,0,0.549,0.06,0.783,0.18
		s0.398,0.324,0.495,0.612c0.155-0.252,0.361-0.447,0.616-0.585c0.255-0.139,0.535-0.207,0.842-0.207
		c0.234,0,0.445,0.025,0.635,0.076c0.188,0.051,0.351,0.131,0.485,0.238c0.136,0.108,0.24,0.248,0.315,0.419
		c0.074,0.171,0.112,0.376,0.112,0.616v3.411h-0.765v-3.051c0-0.145-0.013-0.279-0.037-0.405c-0.023-0.126-0.068-0.235-0.135-0.328
		c-0.065-0.094-0.157-0.167-0.273-0.221c-0.117-0.054-0.27-0.081-0.455-0.081c-0.378,0-0.675,0.108-0.891,0.324
		c-0.217,0.216-0.324,0.504-0.324,0.863v2.898h-0.766v-3.051c0-0.15-0.014-0.288-0.04-0.414s-0.073-0.235-0.14-0.329
		c-0.066-0.093-0.154-0.164-0.266-0.216c-0.111-0.051-0.254-0.076-0.428-0.076c-0.222,0-0.412,0.045-0.57,0.135
		c-0.16,0.09-0.289,0.198-0.388,0.324s-0.171,0.257-0.216,0.392s-0.068,0.247-0.068,0.337v2.898h-0.764v-4.653H409.372z"/>
	<path fill="#FFFFFF" d="M419.714,33.771c-0.348,0.264-0.786,0.396-1.314,0.396c-0.371,0-0.694-0.06-0.967-0.18
		c-0.273-0.12-0.503-0.288-0.689-0.504c-0.186-0.216-0.325-0.474-0.418-0.774c-0.094-0.3-0.146-0.627-0.157-0.98
		c0-0.354,0.054-0.678,0.161-0.972c0.109-0.294,0.26-0.55,0.455-0.766s0.426-0.384,0.693-0.504c0.267-0.12,0.559-0.18,0.877-0.18
		c0.414,0,0.758,0.085,1.031,0.256c0.272,0.171,0.491,0.389,0.656,0.653c0.165,0.264,0.279,0.552,0.342,0.863
		c0.063,0.312,0.089,0.609,0.077,0.892h-3.483c-0.006,0.204,0.018,0.397,0.072,0.58c0.054,0.184,0.141,0.345,0.261,0.486
		c0.12,0.141,0.272,0.253,0.459,0.337s0.405,0.126,0.657,0.126c0.324,0,0.59-0.074,0.797-0.225s0.344-0.378,0.409-0.684h0.756
		C420.286,33.114,420.062,33.508,419.714,33.771z M419.529,30.783c-0.069-0.162-0.162-0.302-0.278-0.418
		c-0.117-0.117-0.256-0.21-0.414-0.279c-0.16-0.069-0.336-0.104-0.527-0.104c-0.197,0-0.377,0.034-0.535,0.104
		c-0.159,0.069-0.296,0.163-0.41,0.283c-0.113,0.12-0.203,0.26-0.27,0.419s-0.105,0.328-0.117,0.508h2.674
		C419.639,31.116,419.599,30.945,419.529,30.783z"/>
	<path fill="#FFFFFF" d="M422.062,29.415v0.738h0.019c0.317-0.563,0.821-0.846,1.512-0.846c0.306,0,0.561,0.042,0.765,0.126
		s0.369,0.201,0.495,0.351c0.126,0.15,0.215,0.329,0.266,0.536s0.076,0.437,0.076,0.688v3.06h-0.765v-3.15
		c0-0.288-0.084-0.516-0.252-0.684s-0.399-0.252-0.693-0.252c-0.233,0-0.437,0.036-0.607,0.108
		c-0.171,0.071-0.313,0.174-0.427,0.306c-0.115,0.132-0.2,0.286-0.258,0.463c-0.057,0.178-0.085,0.371-0.085,0.581v2.628h-0.765
		v-4.653H422.062z"/>
	<path fill="#FFFFFF" d="M428.425,29.415v0.676h-0.926v2.889c0,0.09,0.007,0.162,0.021,0.216c0.016,0.054,0.044,0.096,0.086,0.126
		s0.1,0.05,0.176,0.059c0.074,0.009,0.172,0.014,0.292,0.014h0.351v0.675h-0.584c-0.198,0-0.368-0.014-0.509-0.04
		c-0.142-0.027-0.255-0.077-0.343-0.149c-0.086-0.071-0.15-0.174-0.193-0.306c-0.041-0.132-0.062-0.306-0.062-0.521v-2.961h-0.792
		v-0.676h0.792v-1.395h0.766v1.395H428.425z"/>
	<path fill="#FFFFFF" d="M433.483,34.051c-0.132,0.077-0.314,0.116-0.549,0.116c-0.197,0-0.355-0.056-0.473-0.166
		c-0.117-0.111-0.176-0.293-0.176-0.545c-0.209,0.252-0.454,0.434-0.732,0.545c-0.279,0.11-0.581,0.166-0.905,0.166
		c-0.21,0-0.409-0.023-0.599-0.071c-0.188-0.048-0.352-0.123-0.49-0.226c-0.139-0.102-0.248-0.235-0.328-0.4
		c-0.082-0.165-0.121-0.364-0.121-0.599c0-0.264,0.045-0.479,0.135-0.647s0.208-0.305,0.355-0.41
		c0.146-0.104,0.314-0.185,0.504-0.238c0.188-0.054,0.383-0.099,0.58-0.135c0.21-0.042,0.41-0.073,0.599-0.095
		c0.188-0.021,0.355-0.051,0.499-0.09c0.145-0.039,0.258-0.096,0.342-0.171s0.127-0.185,0.127-0.328
		c0-0.168-0.031-0.304-0.095-0.405c-0.063-0.103-0.144-0.181-0.243-0.234s-0.21-0.09-0.333-0.107
		c-0.123-0.019-0.245-0.027-0.364-0.027c-0.324,0-0.594,0.062-0.811,0.185c-0.216,0.123-0.332,0.355-0.351,0.697h-0.765
		c0.012-0.288,0.072-0.531,0.18-0.729c0.107-0.198,0.252-0.358,0.432-0.481s0.386-0.212,0.617-0.266
		c0.23-0.055,0.479-0.081,0.742-0.081c0.21,0,0.418,0.015,0.625,0.045c0.207,0.029,0.395,0.091,0.562,0.184s0.303,0.224,0.405,0.391
		c0.103,0.168,0.153,0.387,0.153,0.656v2.389c0,0.18,0.01,0.312,0.031,0.395c0.021,0.084,0.092,0.126,0.211,0.126
		c0.066,0,0.145-0.012,0.234-0.036V34.051z M432.241,31.665c-0.096,0.072-0.222,0.124-0.377,0.157
		c-0.156,0.033-0.32,0.06-0.491,0.08c-0.171,0.021-0.343,0.045-0.518,0.072c-0.174,0.026-0.33,0.07-0.468,0.13
		c-0.139,0.06-0.25,0.145-0.338,0.255c-0.087,0.11-0.131,0.262-0.131,0.452c0,0.126,0.026,0.231,0.077,0.318s0.117,0.156,0.198,0.21
		c0.08,0.054,0.176,0.093,0.283,0.117c0.107,0.023,0.223,0.035,0.342,0.035c0.252,0,0.469-0.034,0.648-0.103
		c0.18-0.069,0.326-0.155,0.441-0.26c0.113-0.104,0.197-0.218,0.252-0.341c0.054-0.122,0.08-0.237,0.08-0.345V31.665z"/>
	<path fill="#FFFFFF" d="M436.273,29.415v0.676h-0.927v2.889c0,0.09,0.008,0.162,0.022,0.216s0.044,0.096,0.085,0.126
		c0.043,0.03,0.101,0.05,0.176,0.059s0.172,0.014,0.293,0.014h0.351v0.675h-0.585c-0.197,0-0.367-0.014-0.508-0.04
		c-0.142-0.027-0.256-0.077-0.343-0.149c-0.087-0.071-0.151-0.174-0.193-0.306s-0.063-0.306-0.063-0.521v-2.961h-0.791v-0.676h0.791
		v-1.395h0.766v1.395H436.273z"/>
	<path fill="#FFFFFF" d="M437.255,28.578v-0.936h0.765v0.936H437.255z M438.02,29.415v4.653h-0.765v-4.653H438.02z"/>
	<path fill="#FFFFFF" d="M439.188,30.788c0.097-0.297,0.24-0.555,0.433-0.774c0.192-0.219,0.429-0.392,0.711-0.518
		s0.606-0.188,0.972-0.188c0.373,0,0.697,0.062,0.977,0.188s0.515,0.299,0.707,0.518c0.191,0.22,0.336,0.478,0.432,0.774
		s0.145,0.616,0.145,0.958s-0.049,0.66-0.145,0.954s-0.24,0.551-0.432,0.77c-0.192,0.219-0.428,0.391-0.707,0.513
		c-0.279,0.123-0.604,0.185-0.977,0.185c-0.365,0-0.689-0.062-0.972-0.185c-0.282-0.122-0.519-0.294-0.711-0.513
		s-0.336-0.476-0.433-0.77c-0.096-0.294-0.143-0.612-0.143-0.954S439.093,31.085,439.188,30.788z M439.968,32.498
		c0.074,0.219,0.178,0.402,0.311,0.549c0.132,0.147,0.286,0.26,0.463,0.338c0.178,0.078,0.365,0.116,0.562,0.116
		c0.198,0,0.386-0.038,0.562-0.116c0.178-0.078,0.332-0.19,0.464-0.338c0.132-0.146,0.235-0.33,0.311-0.549s0.112-0.47,0.112-0.752
		c0-0.281-0.037-0.532-0.112-0.751s-0.179-0.403-0.311-0.554s-0.286-0.264-0.464-0.342c-0.177-0.078-0.364-0.117-0.562-0.117
		c-0.197,0-0.385,0.039-0.562,0.117c-0.177,0.078-0.331,0.191-0.463,0.342c-0.133,0.15-0.236,0.335-0.311,0.554
		c-0.075,0.219-0.113,0.47-0.113,0.751C439.854,32.028,439.893,32.279,439.968,32.498z"/>
	<path fill="#FFFFFF" d="M445.272,29.415v0.738h0.019c0.317-0.563,0.821-0.846,1.513-0.846c0.305,0,0.561,0.042,0.764,0.126
		c0.205,0.084,0.369,0.201,0.496,0.351c0.125,0.15,0.214,0.329,0.266,0.536c0.051,0.207,0.076,0.437,0.076,0.688v3.06h-0.766v-3.15
		c0-0.288-0.084-0.516-0.252-0.684s-0.398-0.252-0.693-0.252c-0.233,0-0.436,0.036-0.607,0.108c-0.17,0.071-0.312,0.174-0.427,0.306
		s-0.2,0.286-0.257,0.463c-0.057,0.178-0.086,0.371-0.086,0.581v2.628h-0.764v-4.653H445.272z"/>
</g>
<g>
	<path fill="#FFFFFF" d="M142.373,3.586l2.511,6.426h-0.945l-0.702-1.935h-2.718l-0.72,1.935h-0.873l2.502-6.426H142.373z
		 M142.967,7.356l-1.071-2.997h-0.018l-1.089,2.997H142.967z"/>
	<path fill="#FFFFFF" d="M146.171,5.358V6.34h0.018c0.186-0.378,0.414-0.657,0.684-0.837c0.27-0.181,0.612-0.265,1.026-0.252v0.81
		c-0.306,0-0.567,0.042-0.783,0.126c-0.216,0.084-0.39,0.207-0.522,0.369s-0.228,0.358-0.288,0.59c-0.06,0.23-0.09,0.496-0.09,0.796
		v2.07h-0.765V5.358H146.171z"/>
	<path fill="#FFFFFF" d="M151.184,6.169c-0.192-0.162-0.45-0.243-0.774-0.243c-0.276,0-0.507,0.051-0.693,0.153
		c-0.186,0.102-0.334,0.236-0.446,0.404c-0.111,0.168-0.19,0.362-0.238,0.581c-0.048,0.219-0.072,0.445-0.072,0.68
		c0,0.216,0.026,0.426,0.077,0.63s0.13,0.386,0.239,0.544c0.108,0.159,0.249,0.287,0.423,0.383c0.174,0.096,0.381,0.144,0.621,0.144
		c0.378,0,0.673-0.099,0.886-0.297c0.213-0.197,0.344-0.477,0.392-0.837h0.783c-0.084,0.576-0.299,1.021-0.644,1.332
		c-0.345,0.312-0.814,0.468-1.409,0.468c-0.354,0-0.667-0.057-0.94-0.171c-0.273-0.113-0.501-0.275-0.684-0.485
		s-0.321-0.461-0.414-0.752c-0.093-0.291-0.139-0.61-0.139-0.958c0-0.349,0.045-0.674,0.135-0.977
		c0.09-0.304,0.227-0.567,0.41-0.792c0.183-0.226,0.412-0.402,0.688-0.531c0.276-0.129,0.597-0.193,0.963-0.193
		c0.264,0,0.511,0.031,0.743,0.095c0.23,0.062,0.435,0.16,0.612,0.292c0.177,0.132,0.322,0.299,0.437,0.5
		c0.114,0.2,0.186,0.439,0.216,0.715h-0.792C151.502,6.559,151.376,6.331,151.184,6.169z"/>
	<path fill="#FFFFFF" d="M154.091,3.586v2.457h0.018c0.06-0.145,0.144-0.266,0.252-0.365c0.108-0.099,0.229-0.18,0.365-0.242
		c0.135-0.063,0.276-0.109,0.423-0.14s0.29-0.045,0.428-0.045c0.306,0,0.561,0.042,0.765,0.126s0.369,0.201,0.495,0.351
		c0.126,0.15,0.214,0.329,0.266,0.536c0.051,0.207,0.077,0.437,0.077,0.688v3.06h-0.765v-3.15c0-0.288-0.084-0.516-0.252-0.684
		s-0.399-0.252-0.693-0.252c-0.234,0-0.436,0.036-0.607,0.108c-0.171,0.071-0.313,0.174-0.427,0.306
		c-0.114,0.132-0.2,0.286-0.257,0.463c-0.057,0.178-0.085,0.371-0.085,0.581v2.628h-0.765V3.586H154.091z"/>
	<path fill="#FFFFFF" d="M158.465,4.521V3.586h0.765v0.936H158.465z M159.23,5.358v4.653h-0.765V5.358H159.23z"/>
	<path fill="#FFFFFF" d="M162.497,5.358v0.676h-0.927v2.889c0,0.09,0.007,0.162,0.022,0.216c0.015,0.054,0.043,0.096,0.085,0.126
		s0.1,0.05,0.175,0.059s0.172,0.014,0.292,0.014h0.351v0.675h-0.585c-0.198,0-0.368-0.014-0.508-0.04
		c-0.141-0.027-0.255-0.077-0.342-0.149c-0.087-0.071-0.151-0.174-0.193-0.306s-0.063-0.306-0.063-0.521V6.034h-0.792V5.358h0.792
		V3.964h0.765v1.395H162.497z"/>
	<path fill="#FFFFFF" d="M166.727,9.715c-0.348,0.264-0.786,0.396-1.314,0.396c-0.372,0-0.695-0.06-0.968-0.18
		s-0.502-0.288-0.688-0.504s-0.326-0.474-0.418-0.774c-0.093-0.3-0.146-0.627-0.157-0.98c0-0.354,0.054-0.678,0.162-0.972
		c0.108-0.294,0.26-0.55,0.455-0.766s0.426-0.384,0.693-0.504s0.56-0.18,0.878-0.18c0.414,0,0.757,0.085,1.03,0.256
		s0.492,0.389,0.657,0.653c0.165,0.264,0.279,0.552,0.342,0.863c0.063,0.312,0.088,0.609,0.077,0.892h-3.483
		c-0.006,0.204,0.018,0.397,0.072,0.58c0.054,0.184,0.141,0.345,0.261,0.486c0.12,0.141,0.273,0.253,0.459,0.337
		s0.405,0.126,0.657,0.126c0.324,0,0.589-0.074,0.796-0.225s0.344-0.378,0.41-0.684h0.756
		C167.299,9.058,167.074,9.451,166.727,9.715z M166.542,6.727c-0.069-0.162-0.162-0.302-0.279-0.418
		c-0.117-0.117-0.255-0.21-0.414-0.279c-0.159-0.069-0.335-0.104-0.527-0.104c-0.198,0-0.376,0.034-0.535,0.104
		c-0.159,0.069-0.296,0.163-0.41,0.283c-0.114,0.12-0.204,0.26-0.27,0.419s-0.105,0.328-0.117,0.508h2.673
		C166.651,7.06,166.611,6.889,166.542,6.727z"/>
	<path fill="#FFFFFF" d="M171.136,6.169c-0.192-0.162-0.45-0.243-0.774-0.243c-0.276,0-0.507,0.051-0.693,0.153
		c-0.186,0.102-0.334,0.236-0.446,0.404c-0.111,0.168-0.19,0.362-0.238,0.581c-0.048,0.219-0.072,0.445-0.072,0.68
		c0,0.216,0.026,0.426,0.077,0.63s0.13,0.386,0.239,0.544c0.108,0.159,0.249,0.287,0.423,0.383c0.174,0.096,0.381,0.144,0.621,0.144
		c0.378,0,0.673-0.099,0.886-0.297c0.213-0.197,0.344-0.477,0.392-0.837h0.783c-0.084,0.576-0.299,1.021-0.644,1.332
		c-0.345,0.312-0.814,0.468-1.409,0.468c-0.354,0-0.667-0.057-0.94-0.171c-0.273-0.113-0.501-0.275-0.684-0.485
		s-0.321-0.461-0.414-0.752c-0.093-0.291-0.139-0.61-0.139-0.958c0-0.349,0.045-0.674,0.135-0.977
		c0.09-0.304,0.227-0.567,0.41-0.792c0.183-0.226,0.412-0.402,0.688-0.531c0.276-0.129,0.597-0.193,0.963-0.193
		c0.264,0,0.511,0.031,0.743,0.095c0.23,0.062,0.435,0.16,0.612,0.292c0.177,0.132,0.322,0.299,0.437,0.5
		c0.114,0.2,0.186,0.439,0.216,0.715h-0.792C171.454,6.559,171.328,6.331,171.136,6.169z"/>
	<path fill="#FFFFFF" d="M175.267,5.358v0.676h-0.927v2.889c0,0.09,0.007,0.162,0.022,0.216c0.015,0.054,0.043,0.096,0.085,0.126
		s0.1,0.05,0.175,0.059s0.172,0.014,0.292,0.014h0.351v0.675h-0.585c-0.198,0-0.368-0.014-0.508-0.04
		c-0.141-0.027-0.255-0.077-0.342-0.149c-0.087-0.071-0.151-0.174-0.193-0.306s-0.063-0.306-0.063-0.521V6.034h-0.792V5.358h0.792
		V3.964h0.765v1.395H175.267z"/>
	<path fill="#FFFFFF" d="M179.335,10.012V9.273h-0.018c-0.162,0.288-0.369,0.5-0.621,0.635s-0.549,0.202-0.891,0.202
		c-0.306,0-0.562-0.04-0.765-0.121c-0.204-0.081-0.369-0.196-0.495-0.347c-0.126-0.149-0.214-0.328-0.266-0.535
		c-0.051-0.207-0.076-0.437-0.076-0.688V5.358h0.765v3.15c0,0.288,0.084,0.516,0.252,0.684s0.399,0.252,0.693,0.252
		c0.234,0,0.437-0.035,0.607-0.107s0.313-0.174,0.427-0.307c0.114-0.132,0.2-0.286,0.257-0.463c0.057-0.177,0.085-0.37,0.085-0.581
		V5.358h0.765v4.653H179.335z"/>
	<path fill="#FFFFFF" d="M181.99,5.358V6.34h0.018c0.186-0.378,0.414-0.657,0.684-0.837c0.27-0.181,0.612-0.265,1.026-0.252v0.81
		c-0.306,0-0.567,0.042-0.783,0.126c-0.216,0.084-0.39,0.207-0.522,0.369s-0.228,0.358-0.288,0.59c-0.06,0.23-0.09,0.496-0.09,0.796
		v2.07h-0.765V5.358H181.99z"/>
	<path fill="#FFFFFF" d="M187.517,9.715c-0.348,0.264-0.786,0.396-1.314,0.396c-0.372,0-0.695-0.06-0.968-0.18
		s-0.502-0.288-0.688-0.504s-0.326-0.474-0.418-0.774c-0.093-0.3-0.146-0.627-0.157-0.98c0-0.354,0.054-0.678,0.162-0.972
		c0.108-0.294,0.26-0.55,0.455-0.766s0.426-0.384,0.693-0.504s0.56-0.18,0.878-0.18c0.414,0,0.757,0.085,1.03,0.256
		s0.492,0.389,0.657,0.653c0.165,0.264,0.279,0.552,0.342,0.863c0.063,0.312,0.088,0.609,0.077,0.892h-3.483
		c-0.006,0.204,0.018,0.397,0.072,0.58c0.054,0.184,0.141,0.345,0.261,0.486c0.12,0.141,0.273,0.253,0.459,0.337
		s0.405,0.126,0.657,0.126c0.324,0,0.589-0.074,0.796-0.225s0.344-0.378,0.41-0.684h0.756
		C188.089,9.058,187.864,9.451,187.517,9.715z M187.332,6.727c-0.069-0.162-0.162-0.302-0.279-0.418
		c-0.117-0.117-0.255-0.21-0.414-0.279c-0.159-0.069-0.335-0.104-0.527-0.104c-0.198,0-0.376,0.034-0.535,0.104
		c-0.159,0.069-0.296,0.163-0.41,0.283c-0.114,0.12-0.204,0.26-0.27,0.419s-0.105,0.328-0.117,0.508h2.673
		C187.441,7.06,187.401,6.889,187.332,6.727z"/>
</g>
<g>
	<path fill="#FFFFFF" d="M145.645,66.143v0.72h-3.582v2.043h3.339v0.72h-3.339v2.224h3.609v0.72h-4.464v-6.426H145.645z"/>
	<path fill="#FFFFFF" d="M146.301,67.915h0.981l1.116,1.629l1.161-1.629h0.918l-1.602,2.143l1.8,2.511h-0.981l-1.296-1.926
		l-1.296,1.926h-0.927l1.746-2.448L146.301,67.915z"/>
	<path fill="#FFFFFF" d="M152.214,67.915v0.63h0.018c0.126-0.258,0.324-0.445,0.594-0.562c0.27-0.116,0.567-0.175,0.891-0.175
		c0.36,0,0.673,0.065,0.94,0.197c0.267,0.133,0.489,0.311,0.666,0.536c0.177,0.225,0.311,0.484,0.4,0.778s0.135,0.606,0.135,0.936
		c0,0.33-0.044,0.643-0.131,0.937s-0.219,0.551-0.396,0.77c-0.177,0.219-0.399,0.392-0.666,0.518s-0.577,0.188-0.931,0.188
		c-0.114,0-0.242-0.012-0.383-0.035c-0.141-0.024-0.28-0.063-0.418-0.117c-0.138-0.055-0.269-0.128-0.392-0.221
		s-0.227-0.208-0.31-0.347h-0.018v2.395h-0.765v-6.427H152.214z M154.964,69.566c-0.057-0.207-0.144-0.391-0.261-0.553
		s-0.267-0.291-0.45-0.388c-0.183-0.096-0.398-0.144-0.644-0.144c-0.258,0-0.477,0.051-0.657,0.153
		c-0.18,0.102-0.327,0.235-0.441,0.4c-0.114,0.165-0.197,0.353-0.248,0.562c-0.051,0.21-0.077,0.423-0.077,0.639
		c0,0.229,0.027,0.448,0.081,0.661c0.054,0.214,0.14,0.401,0.257,0.562c0.117,0.162,0.268,0.293,0.454,0.392
		c0.186,0.1,0.411,0.148,0.675,0.148c0.264,0,0.484-0.051,0.662-0.152c0.177-0.103,0.319-0.237,0.427-0.405s0.186-0.36,0.234-0.576
		s0.072-0.438,0.072-0.666C155.049,69.985,155.021,69.773,154.964,69.566z"/>
	<path fill="#FFFFFF" d="M157.659,66.143v6.426h-0.765v-6.426H157.659z"/>
	<path fill="#FFFFFF" d="M158.829,69.288c0.096-0.297,0.24-0.555,0.432-0.774c0.192-0.219,0.429-0.392,0.711-0.518
		c0.282-0.126,0.606-0.188,0.972-0.188c0.372,0,0.697,0.062,0.977,0.188c0.279,0.126,0.514,0.299,0.707,0.518
		c0.192,0.22,0.336,0.478,0.432,0.774c0.096,0.297,0.144,0.616,0.144,0.958s-0.048,0.66-0.144,0.954
		c-0.096,0.294-0.24,0.551-0.432,0.77c-0.192,0.219-0.428,0.391-0.707,0.513c-0.279,0.123-0.604,0.185-0.977,0.185
		c-0.366,0-0.69-0.062-0.972-0.185c-0.282-0.122-0.519-0.294-0.711-0.513s-0.336-0.476-0.432-0.77
		c-0.096-0.294-0.144-0.612-0.144-0.954S158.733,69.585,158.829,69.288z M159.607,70.998c0.075,0.219,0.178,0.402,0.311,0.549
		c0.132,0.147,0.286,0.26,0.463,0.338c0.177,0.078,0.364,0.116,0.562,0.116c0.198,0,0.385-0.038,0.562-0.116
		c0.177-0.078,0.332-0.19,0.463-0.338c0.132-0.146,0.235-0.33,0.311-0.549s0.113-0.47,0.113-0.752c0-0.281-0.038-0.532-0.113-0.751
		s-0.179-0.403-0.311-0.554s-0.287-0.264-0.463-0.342c-0.177-0.078-0.365-0.117-0.562-0.117c-0.198,0-0.386,0.039-0.562,0.117
		c-0.177,0.078-0.332,0.191-0.463,0.342c-0.132,0.15-0.236,0.335-0.311,0.554c-0.075,0.219-0.113,0.47-0.113,0.751
		C159.495,70.528,159.532,70.779,159.607,70.998z"/>
	<path fill="#FFFFFF" d="M164.886,67.915v0.981h0.018c0.186-0.378,0.414-0.657,0.684-0.837c0.27-0.181,0.612-0.265,1.026-0.252v0.81
		c-0.306,0-0.567,0.042-0.783,0.126c-0.216,0.084-0.39,0.207-0.522,0.369s-0.228,0.358-0.288,0.59c-0.06,0.23-0.09,0.496-0.09,0.796
		v2.07h-0.765v-4.653H164.886z"/>
	<path fill="#FFFFFF" d="M171.402,72.551c-0.132,0.077-0.315,0.116-0.549,0.116c-0.198,0-0.355-0.056-0.473-0.166
		c-0.117-0.111-0.175-0.293-0.175-0.545c-0.21,0.252-0.455,0.434-0.733,0.545c-0.279,0.11-0.581,0.166-0.905,0.166
		c-0.21,0-0.409-0.023-0.598-0.071s-0.353-0.123-0.491-0.226c-0.138-0.102-0.248-0.235-0.329-0.4s-0.121-0.364-0.121-0.599
		c0-0.264,0.045-0.479,0.135-0.647s0.208-0.305,0.355-0.41c0.147-0.104,0.315-0.185,0.504-0.238s0.383-0.099,0.581-0.135
		c0.21-0.042,0.41-0.073,0.599-0.095c0.189-0.021,0.355-0.051,0.5-0.09s0.258-0.096,0.342-0.171s0.126-0.185,0.126-0.328
		c0-0.168-0.031-0.304-0.094-0.405c-0.063-0.103-0.144-0.181-0.243-0.234s-0.21-0.09-0.333-0.107
		c-0.123-0.019-0.245-0.027-0.364-0.027c-0.324,0-0.594,0.062-0.81,0.185c-0.216,0.123-0.333,0.355-0.351,0.697h-0.765
		c0.012-0.288,0.072-0.531,0.18-0.729c0.108-0.198,0.252-0.358,0.432-0.481c0.18-0.123,0.385-0.212,0.616-0.266
		c0.231-0.055,0.479-0.081,0.743-0.081c0.21,0,0.418,0.015,0.625,0.045c0.207,0.029,0.395,0.091,0.562,0.184
		s0.303,0.224,0.405,0.391c0.102,0.168,0.153,0.387,0.153,0.656v2.389c0,0.18,0.01,0.312,0.031,0.395
		c0.021,0.084,0.091,0.126,0.211,0.126c0.066,0,0.144-0.012,0.234-0.036V72.551z M170.16,70.165
		c-0.096,0.072-0.222,0.124-0.378,0.157c-0.156,0.033-0.32,0.06-0.491,0.08c-0.171,0.021-0.343,0.045-0.518,0.072
		c-0.174,0.026-0.33,0.07-0.468,0.13c-0.138,0.06-0.25,0.145-0.337,0.255c-0.087,0.11-0.131,0.262-0.131,0.452
		c0,0.126,0.026,0.231,0.077,0.318s0.117,0.156,0.198,0.21c0.081,0.054,0.175,0.093,0.283,0.117
		c0.108,0.023,0.222,0.035,0.342,0.035c0.252,0,0.468-0.034,0.648-0.103c0.18-0.069,0.327-0.155,0.441-0.26
		c0.114-0.104,0.198-0.218,0.252-0.341c0.054-0.122,0.081-0.237,0.081-0.345V70.165z"/>
	<path fill="#FFFFFF" d="M174.191,67.915v0.676h-0.927v2.889c0,0.09,0.007,0.162,0.022,0.216c0.015,0.054,0.043,0.096,0.085,0.126
		s0.1,0.05,0.175,0.059s0.172,0.014,0.292,0.014h0.351v0.675h-0.585c-0.198,0-0.368-0.014-0.508-0.04
		c-0.141-0.027-0.255-0.077-0.342-0.149c-0.087-0.071-0.151-0.174-0.193-0.306s-0.063-0.306-0.063-0.521v-2.961h-0.792v-0.676h0.792
		v-1.395h0.765v1.395H174.191z"/>
	<path fill="#FFFFFF" d="M175.173,67.078v-0.936h0.765v0.936H175.173z M175.938,67.915v4.653h-0.765v-4.653H175.938z"/>
	<path fill="#FFFFFF" d="M177.107,69.288c0.096-0.297,0.24-0.555,0.432-0.774c0.192-0.219,0.429-0.392,0.711-0.518
		c0.282-0.126,0.606-0.188,0.972-0.188c0.372,0,0.697,0.062,0.977,0.188c0.279,0.126,0.514,0.299,0.707,0.518
		c0.192,0.22,0.336,0.478,0.432,0.774c0.096,0.297,0.144,0.616,0.144,0.958s-0.048,0.66-0.144,0.954
		c-0.096,0.294-0.24,0.551-0.432,0.77c-0.192,0.219-0.428,0.391-0.707,0.513c-0.279,0.123-0.604,0.185-0.977,0.185
		c-0.366,0-0.69-0.062-0.972-0.185c-0.282-0.122-0.519-0.294-0.711-0.513s-0.336-0.476-0.432-0.77
		c-0.096-0.294-0.144-0.612-0.144-0.954S177.012,69.585,177.107,69.288z M177.886,70.998c0.075,0.219,0.178,0.402,0.311,0.549
		c0.132,0.147,0.286,0.26,0.463,0.338c0.177,0.078,0.364,0.116,0.562,0.116c0.198,0,0.385-0.038,0.562-0.116
		c0.177-0.078,0.332-0.19,0.463-0.338c0.132-0.146,0.235-0.33,0.311-0.549s0.113-0.47,0.113-0.752c0-0.281-0.038-0.532-0.113-0.751
		s-0.179-0.403-0.311-0.554s-0.287-0.264-0.463-0.342c-0.177-0.078-0.365-0.117-0.562-0.117c-0.198,0-0.386,0.039-0.562,0.117
		c-0.177,0.078-0.332,0.191-0.463,0.342c-0.132,0.15-0.236,0.335-0.311,0.554c-0.075,0.219-0.113,0.47-0.113,0.751
		C177.773,70.528,177.811,70.779,177.886,70.998z"/>
	<path fill="#FFFFFF" d="M183.191,67.915v0.738h0.018c0.318-0.563,0.822-0.846,1.512-0.846c0.306,0,0.561,0.042,0.765,0.126
		s0.369,0.201,0.495,0.351c0.126,0.15,0.214,0.329,0.266,0.536c0.051,0.207,0.077,0.437,0.077,0.688v3.06h-0.765v-3.15
		c0-0.288-0.084-0.516-0.252-0.684s-0.399-0.252-0.693-0.252c-0.234,0-0.436,0.036-0.607,0.108
		c-0.171,0.071-0.313,0.174-0.427,0.306c-0.114,0.132-0.2,0.286-0.257,0.463c-0.057,0.178-0.085,0.371-0.085,0.581v2.628h-0.765
		v-4.653H183.191z"/>
</g>
<g>
	<path fill="#FFFFFF" d="M225.175,10.012l-1.467-5.4h-0.018l-1.485,5.4h-0.891l-1.647-6.426h0.873l1.26,5.346h0.018l1.44-5.346
		h0.927l1.422,5.346h0.018l1.305-5.346h0.855l-1.719,6.426H225.175z"/>
	<path fill="#FFFFFF" d="M228.604,4.521V3.586h0.765v0.936H228.604z M229.369,5.358v4.653h-0.765V5.358H229.369z"/>
	<path fill="#FFFFFF" d="M231.34,5.358V6.34h0.018c0.186-0.378,0.414-0.657,0.684-0.837c0.27-0.181,0.612-0.265,1.026-0.252v0.81
		c-0.306,0-0.567,0.042-0.783,0.126c-0.216,0.084-0.39,0.207-0.522,0.369s-0.228,0.358-0.288,0.59c-0.06,0.23-0.09,0.496-0.09,0.796
		v2.07h-0.765V5.358H231.34z"/>
	<path fill="#FFFFFF" d="M236.866,9.715c-0.348,0.264-0.786,0.396-1.314,0.396c-0.372,0-0.695-0.06-0.968-0.18
		s-0.502-0.288-0.688-0.504s-0.326-0.474-0.418-0.774c-0.093-0.3-0.146-0.627-0.157-0.98c0-0.354,0.054-0.678,0.162-0.972
		c0.108-0.294,0.26-0.55,0.455-0.766s0.426-0.384,0.693-0.504s0.56-0.18,0.878-0.18c0.414,0,0.757,0.085,1.03,0.256
		s0.492,0.389,0.657,0.653c0.165,0.264,0.279,0.552,0.342,0.863c0.063,0.312,0.088,0.609,0.077,0.892h-3.483
		c-0.006,0.204,0.018,0.397,0.072,0.58c0.054,0.184,0.141,0.345,0.261,0.486c0.12,0.141,0.273,0.253,0.459,0.337
		s0.405,0.126,0.657,0.126c0.324,0,0.589-0.074,0.796-0.225s0.344-0.378,0.41-0.684h0.756
		C237.439,9.058,237.214,9.451,236.866,9.715z M236.682,6.727c-0.069-0.162-0.162-0.302-0.279-0.418
		c-0.117-0.117-0.255-0.21-0.414-0.279c-0.159-0.069-0.335-0.104-0.527-0.104c-0.198,0-0.376,0.034-0.535,0.104
		c-0.159,0.069-0.296,0.163-0.41,0.283c-0.114,0.12-0.204,0.26-0.27,0.419s-0.105,0.328-0.117,0.508h2.673
		C236.791,7.06,236.75,6.889,236.682,6.727z"/>
	<path fill="#FFFFFF" d="M238.027,6.034V5.358h0.783V4.666c0-0.378,0.109-0.665,0.329-0.859c0.219-0.195,0.538-0.293,0.958-0.293
		c0.072,0,0.154,0.006,0.247,0.018c0.093,0.013,0.176,0.03,0.248,0.055v0.666c-0.066-0.024-0.138-0.041-0.216-0.05
		c-0.078-0.009-0.15-0.014-0.216-0.014c-0.186,0-0.33,0.036-0.432,0.108s-0.153,0.21-0.153,0.414v0.647h0.9v0.676h-0.9v3.978h-0.765
		V6.034H238.027z"/>
	<path fill="#FFFFFF" d="M241.942,5.358V6.34h0.018c0.186-0.378,0.414-0.657,0.684-0.837c0.27-0.181,0.612-0.265,1.026-0.252v0.81
		c-0.306,0-0.567,0.042-0.783,0.126c-0.216,0.084-0.39,0.207-0.522,0.369s-0.228,0.358-0.288,0.59c-0.06,0.23-0.09,0.496-0.09,0.796
		v2.07h-0.765V5.358H241.942z"/>
	<path fill="#FFFFFF" d="M248.458,9.994c-0.132,0.077-0.315,0.116-0.549,0.116c-0.198,0-0.355-0.056-0.473-0.166
		c-0.117-0.111-0.175-0.293-0.175-0.545c-0.21,0.252-0.455,0.434-0.733,0.545c-0.279,0.11-0.581,0.166-0.905,0.166
		c-0.21,0-0.409-0.023-0.598-0.071s-0.353-0.123-0.491-0.226c-0.138-0.102-0.248-0.235-0.329-0.4s-0.121-0.364-0.121-0.599
		c0-0.264,0.045-0.479,0.135-0.647s0.208-0.305,0.355-0.41c0.147-0.104,0.315-0.185,0.504-0.238s0.383-0.099,0.581-0.135
		c0.21-0.042,0.41-0.073,0.599-0.095c0.189-0.021,0.355-0.051,0.5-0.09s0.258-0.096,0.342-0.171s0.126-0.185,0.126-0.328
		c0-0.168-0.031-0.304-0.094-0.405c-0.063-0.103-0.144-0.181-0.243-0.234s-0.21-0.09-0.333-0.107
		c-0.123-0.019-0.245-0.027-0.364-0.027c-0.324,0-0.594,0.062-0.81,0.185c-0.216,0.123-0.333,0.355-0.351,0.697h-0.765
		c0.012-0.288,0.072-0.531,0.18-0.729c0.108-0.198,0.252-0.358,0.432-0.481c0.18-0.123,0.385-0.212,0.616-0.266
		c0.231-0.055,0.479-0.081,0.743-0.081c0.21,0,0.418,0.015,0.625,0.045c0.207,0.029,0.395,0.091,0.562,0.184
		s0.303,0.224,0.405,0.391c0.102,0.168,0.153,0.387,0.153,0.656v2.389c0,0.18,0.01,0.312,0.031,0.395
		c0.021,0.084,0.091,0.126,0.211,0.126c0.066,0,0.144-0.012,0.234-0.036V9.994z M247.216,7.608
		c-0.096,0.072-0.222,0.124-0.378,0.157c-0.156,0.033-0.32,0.06-0.491,0.08c-0.171,0.021-0.343,0.045-0.518,0.072
		c-0.174,0.026-0.33,0.07-0.468,0.13c-0.138,0.06-0.25,0.145-0.337,0.255c-0.087,0.11-0.131,0.262-0.131,0.452
		c0,0.126,0.026,0.231,0.077,0.318s0.117,0.156,0.198,0.21c0.081,0.054,0.175,0.093,0.283,0.117
		c0.108,0.023,0.222,0.035,0.342,0.035c0.252,0,0.468-0.034,0.648-0.103c0.18-0.069,0.327-0.155,0.441-0.26
		c0.114-0.104,0.198-0.218,0.252-0.341c0.054-0.122,0.081-0.237,0.081-0.345V7.608z"/>
	<path fill="#FFFFFF" d="M249.979,5.358v0.685h0.018c0.348-0.528,0.849-0.792,1.503-0.792c0.288,0,0.549,0.06,0.783,0.18
		s0.399,0.324,0.495,0.612c0.156-0.252,0.361-0.447,0.616-0.585c0.255-0.139,0.536-0.207,0.842-0.207
		c0.234,0,0.445,0.025,0.634,0.076s0.351,0.131,0.486,0.238c0.135,0.108,0.24,0.248,0.315,0.419
		c0.075,0.171,0.113,0.376,0.113,0.616v3.411h-0.765V6.961c0-0.145-0.012-0.279-0.036-0.405s-0.069-0.235-0.135-0.328
		c-0.066-0.094-0.158-0.167-0.274-0.221c-0.117-0.054-0.269-0.081-0.455-0.081c-0.378,0-0.675,0.108-0.891,0.324
		c-0.216,0.216-0.324,0.504-0.324,0.863v2.898h-0.765V6.961c0-0.15-0.014-0.288-0.041-0.414s-0.074-0.235-0.14-0.329
		c-0.066-0.093-0.154-0.164-0.265-0.216c-0.111-0.051-0.254-0.076-0.428-0.076c-0.222,0-0.413,0.045-0.571,0.135
		c-0.159,0.09-0.288,0.198-0.387,0.324s-0.171,0.257-0.216,0.392c-0.045,0.135-0.068,0.247-0.068,0.337v2.898h-0.765V5.358H249.979z
		"/>
	<path fill="#FFFFFF" d="M260.32,9.715c-0.348,0.264-0.786,0.396-1.314,0.396c-0.372,0-0.695-0.06-0.968-0.18
		s-0.502-0.288-0.688-0.504s-0.326-0.474-0.418-0.774c-0.093-0.3-0.146-0.627-0.157-0.98c0-0.354,0.054-0.678,0.162-0.972
		c0.108-0.294,0.26-0.55,0.455-0.766s0.426-0.384,0.693-0.504s0.56-0.18,0.878-0.18c0.414,0,0.757,0.085,1.03,0.256
		s0.492,0.389,0.657,0.653c0.165,0.264,0.279,0.552,0.342,0.863c0.063,0.312,0.088,0.609,0.077,0.892h-3.483
		c-0.006,0.204,0.018,0.397,0.072,0.58c0.054,0.184,0.141,0.345,0.261,0.486c0.12,0.141,0.273,0.253,0.459,0.337
		s0.405,0.126,0.657,0.126c0.324,0,0.589-0.074,0.796-0.225s0.344-0.378,0.41-0.684h0.756C260.893,9.058,260.667,9.451,260.32,9.715
		z M260.135,6.727c-0.069-0.162-0.162-0.302-0.279-0.418c-0.117-0.117-0.255-0.21-0.414-0.279c-0.159-0.069-0.335-0.104-0.527-0.104
		c-0.198,0-0.376,0.034-0.535,0.104c-0.159,0.069-0.296,0.163-0.41,0.283c-0.114,0.12-0.204,0.26-0.27,0.419
		s-0.105,0.328-0.117,0.508h2.673C260.245,7.06,260.204,6.889,260.135,6.727z"/>
	<path fill="#FFFFFF" d="M262.534,8.973c0.072,0.116,0.167,0.21,0.283,0.278c0.117,0.069,0.249,0.119,0.396,0.148
		c0.147,0.03,0.298,0.045,0.455,0.045c0.12,0,0.246-0.009,0.378-0.026c0.132-0.019,0.253-0.051,0.365-0.1
		c0.111-0.048,0.203-0.118,0.274-0.211s0.108-0.212,0.108-0.355c0-0.198-0.075-0.348-0.225-0.45
		c-0.15-0.102-0.337-0.185-0.562-0.247c-0.225-0.063-0.469-0.12-0.733-0.172c-0.264-0.051-0.508-0.122-0.733-0.216
		c-0.225-0.093-0.413-0.224-0.562-0.392s-0.225-0.401-0.225-0.702c0-0.233,0.053-0.435,0.158-0.603s0.24-0.305,0.405-0.409
		c0.165-0.105,0.351-0.184,0.558-0.234s0.413-0.076,0.617-0.076c0.264,0,0.507,0.022,0.729,0.067
		c0.222,0.045,0.418,0.123,0.589,0.233c0.171,0.111,0.307,0.262,0.409,0.45c0.102,0.189,0.162,0.425,0.18,0.707h-0.765
		c-0.012-0.15-0.051-0.274-0.117-0.374c-0.066-0.099-0.15-0.178-0.252-0.238c-0.102-0.06-0.215-0.104-0.338-0.131
		c-0.123-0.026-0.247-0.04-0.373-0.04c-0.114,0-0.229,0.009-0.347,0.027c-0.117,0.018-0.224,0.049-0.319,0.094
		c-0.096,0.045-0.174,0.105-0.234,0.181s-0.09,0.172-0.09,0.292c0,0.132,0.046,0.242,0.14,0.329
		c0.093,0.087,0.211,0.158,0.355,0.216c0.144,0.057,0.306,0.104,0.486,0.144s0.36,0.08,0.54,0.122
		c0.192,0.042,0.379,0.093,0.562,0.152c0.183,0.061,0.345,0.14,0.486,0.239c0.141,0.099,0.255,0.223,0.342,0.373
		s0.13,0.336,0.13,0.558c0,0.282-0.059,0.517-0.175,0.702c-0.117,0.187-0.27,0.336-0.459,0.45s-0.402,0.193-0.639,0.238
		c-0.237,0.045-0.473,0.067-0.707,0.067c-0.258,0-0.504-0.026-0.738-0.081c-0.234-0.054-0.441-0.142-0.621-0.265
		c-0.18-0.123-0.324-0.285-0.432-0.486s-0.168-0.445-0.18-0.733h0.765C262.422,8.713,262.461,8.855,262.534,8.973z"/>
</g>
<g>
	<path fill="#FFFFFF" d="M227.483,67.052c-0.327-0.229-0.715-0.343-1.166-0.343c-0.384,0-0.712,0.072-0.985,0.217
		c-0.273,0.144-0.498,0.337-0.675,0.58c-0.177,0.243-0.307,0.521-0.391,0.832c-0.084,0.312-0.126,0.637-0.126,0.973
		c0,0.366,0.042,0.712,0.126,1.039c0.084,0.327,0.214,0.612,0.391,0.855c0.177,0.243,0.404,0.437,0.68,0.58
		c0.276,0.145,0.606,0.216,0.99,0.216c0.282,0,0.532-0.046,0.751-0.139c0.219-0.094,0.408-0.223,0.567-0.388
		c0.159-0.165,0.283-0.361,0.374-0.589c0.09-0.229,0.144-0.475,0.162-0.738h0.855c-0.084,0.81-0.363,1.439-0.837,1.89
		c-0.474,0.45-1.122,0.675-1.944,0.675c-0.498,0-0.933-0.085-1.305-0.256s-0.681-0.406-0.927-0.707
		c-0.246-0.3-0.431-0.653-0.554-1.062s-0.184-0.846-0.184-1.314c0-0.468,0.066-0.907,0.198-1.318s0.326-0.77,0.581-1.075
		s0.573-0.548,0.954-0.725c0.381-0.177,0.817-0.266,1.31-0.266c0.336,0,0.654,0.045,0.954,0.135c0.3,0.091,0.567,0.223,0.801,0.396
		s0.429,0.392,0.585,0.652c0.156,0.261,0.258,0.562,0.306,0.904h-0.855C228.022,67.621,227.811,67.279,227.483,67.052z"/>
	<path fill="#FFFFFF" d="M229.954,69.288c0.096-0.297,0.24-0.555,0.432-0.774c0.192-0.219,0.429-0.392,0.711-0.518
		c0.282-0.126,0.606-0.188,0.972-0.188c0.372,0,0.697,0.062,0.977,0.188c0.279,0.126,0.514,0.299,0.707,0.518
		c0.192,0.22,0.336,0.478,0.432,0.774c0.096,0.297,0.144,0.616,0.144,0.958s-0.048,0.66-0.144,0.954
		c-0.096,0.294-0.24,0.551-0.432,0.77c-0.192,0.219-0.428,0.391-0.707,0.513c-0.279,0.123-0.604,0.185-0.977,0.185
		c-0.366,0-0.69-0.062-0.972-0.185c-0.282-0.122-0.519-0.294-0.711-0.513s-0.336-0.476-0.432-0.77
		c-0.096-0.294-0.144-0.612-0.144-0.954S229.858,69.585,229.954,69.288z M230.732,70.998c0.075,0.219,0.178,0.402,0.311,0.549
		c0.132,0.147,0.286,0.26,0.463,0.338c0.177,0.078,0.364,0.116,0.562,0.116c0.198,0,0.385-0.038,0.562-0.116
		c0.177-0.078,0.332-0.19,0.463-0.338c0.132-0.146,0.235-0.33,0.311-0.549s0.113-0.47,0.113-0.752c0-0.281-0.038-0.532-0.113-0.751
		s-0.179-0.403-0.311-0.554s-0.287-0.264-0.463-0.342c-0.177-0.078-0.365-0.117-0.562-0.117c-0.198,0-0.386,0.039-0.562,0.117
		c-0.177,0.078-0.332,0.191-0.463,0.342c-0.132,0.15-0.236,0.335-0.311,0.554c-0.075,0.219-0.113,0.47-0.113,0.751
		C230.62,70.528,230.657,70.779,230.732,70.998z"/>
	<path fill="#FFFFFF" d="M236.038,67.915v0.738h0.018c0.318-0.563,0.822-0.846,1.512-0.846c0.306,0,0.561,0.042,0.765,0.126
		s0.369,0.201,0.495,0.351c0.126,0.15,0.214,0.329,0.266,0.536c0.051,0.207,0.077,0.437,0.077,0.688v3.06h-0.765v-3.15
		c0-0.288-0.084-0.516-0.252-0.684s-0.399-0.252-0.693-0.252c-0.234,0-0.436,0.036-0.607,0.108
		c-0.171,0.071-0.313,0.174-0.427,0.306c-0.114,0.132-0.2,0.286-0.257,0.463c-0.057,0.178-0.085,0.371-0.085,0.581v2.628h-0.765
		v-4.653H236.038z"/>
	<path fill="#FFFFFF" d="M243.193,68.726c-0.192-0.162-0.45-0.243-0.774-0.243c-0.276,0-0.507,0.051-0.693,0.153
		c-0.186,0.102-0.334,0.236-0.446,0.404c-0.111,0.168-0.19,0.362-0.238,0.581c-0.048,0.219-0.072,0.445-0.072,0.68
		c0,0.216,0.026,0.426,0.077,0.63s0.13,0.386,0.239,0.544c0.108,0.159,0.249,0.287,0.423,0.383c0.174,0.096,0.381,0.144,0.621,0.144
		c0.378,0,0.673-0.099,0.886-0.297c0.213-0.197,0.344-0.477,0.392-0.837h0.783c-0.084,0.576-0.299,1.021-0.644,1.332
		c-0.345,0.312-0.814,0.468-1.409,0.468c-0.354,0-0.667-0.057-0.94-0.171c-0.273-0.113-0.501-0.275-0.684-0.485
		s-0.321-0.461-0.414-0.752c-0.093-0.291-0.139-0.61-0.139-0.958c0-0.349,0.045-0.674,0.135-0.977
		c0.09-0.304,0.227-0.567,0.41-0.792c0.183-0.226,0.412-0.402,0.688-0.531c0.276-0.129,0.597-0.193,0.963-0.193
		c0.264,0,0.511,0.031,0.743,0.095c0.23,0.062,0.435,0.16,0.612,0.292c0.177,0.132,0.322,0.299,0.437,0.5
		c0.114,0.2,0.186,0.439,0.216,0.715h-0.792C243.511,69.115,243.385,68.888,243.193,68.726z"/>
	<path fill="#FFFFFF" d="M248.629,72.271c-0.348,0.264-0.786,0.396-1.314,0.396c-0.372,0-0.695-0.06-0.968-0.18
		s-0.502-0.288-0.688-0.504s-0.326-0.474-0.418-0.774c-0.093-0.3-0.146-0.627-0.157-0.98c0-0.354,0.054-0.678,0.162-0.972
		c0.108-0.294,0.26-0.55,0.455-0.766s0.426-0.384,0.693-0.504s0.56-0.18,0.878-0.18c0.414,0,0.757,0.085,1.03,0.256
		s0.492,0.389,0.657,0.653c0.165,0.264,0.279,0.552,0.342,0.863c0.063,0.312,0.088,0.609,0.077,0.892h-3.483
		c-0.006,0.204,0.018,0.397,0.072,0.58c0.054,0.184,0.141,0.345,0.261,0.486c0.12,0.141,0.273,0.253,0.459,0.337
		s0.405,0.126,0.657,0.126c0.324,0,0.589-0.074,0.796-0.225s0.344-0.378,0.41-0.684h0.756
		C249.202,71.614,248.977,72.008,248.629,72.271z M248.444,69.283c-0.069-0.162-0.162-0.302-0.279-0.418
		c-0.117-0.117-0.255-0.21-0.414-0.279c-0.159-0.069-0.335-0.104-0.527-0.104c-0.198,0-0.376,0.034-0.535,0.104
		c-0.159,0.069-0.296,0.163-0.41,0.283c-0.114,0.12-0.204,0.26-0.27,0.419s-0.105,0.328-0.117,0.508h2.673
		C248.554,69.616,248.513,69.445,248.444,69.283z"/>
	<path fill="#FFFFFF" d="M251.05,67.915v0.63h0.018c0.126-0.258,0.324-0.445,0.594-0.562c0.27-0.116,0.567-0.175,0.891-0.175
		c0.36,0,0.673,0.065,0.94,0.197c0.267,0.133,0.489,0.311,0.666,0.536c0.177,0.225,0.311,0.484,0.4,0.778s0.135,0.606,0.135,0.936
		c0,0.33-0.044,0.643-0.131,0.937s-0.219,0.551-0.396,0.77c-0.177,0.219-0.399,0.392-0.666,0.518s-0.577,0.188-0.931,0.188
		c-0.114,0-0.242-0.012-0.383-0.035c-0.141-0.024-0.28-0.063-0.418-0.117c-0.138-0.055-0.269-0.128-0.392-0.221
		s-0.227-0.208-0.31-0.347h-0.018v2.395h-0.765v-6.427H251.05z M253.799,69.566c-0.057-0.207-0.144-0.391-0.261-0.553
		s-0.267-0.291-0.45-0.388c-0.183-0.096-0.398-0.144-0.644-0.144c-0.258,0-0.477,0.051-0.657,0.153
		c-0.18,0.102-0.327,0.235-0.441,0.4c-0.114,0.165-0.197,0.353-0.248,0.562c-0.051,0.21-0.077,0.423-0.077,0.639
		c0,0.229,0.027,0.448,0.081,0.661c0.054,0.214,0.14,0.401,0.257,0.562c0.117,0.162,0.268,0.293,0.454,0.392
		c0.186,0.1,0.411,0.148,0.675,0.148c0.264,0,0.484-0.051,0.662-0.152c0.177-0.103,0.319-0.237,0.427-0.405s0.186-0.36,0.234-0.576
		s0.072-0.438,0.072-0.666C253.885,69.985,253.856,69.773,253.799,69.566z"/>
	<path fill="#FFFFFF" d="M257.673,67.915v0.676h-0.927v2.889c0,0.09,0.007,0.162,0.022,0.216c0.015,0.054,0.043,0.096,0.085,0.126
		s0.1,0.05,0.175,0.059s0.172,0.014,0.292,0.014h0.351v0.675h-0.585c-0.198,0-0.368-0.014-0.508-0.04
		c-0.141-0.027-0.255-0.077-0.342-0.149c-0.087-0.071-0.151-0.174-0.193-0.306s-0.063-0.306-0.063-0.521v-2.961h-0.792v-0.676h0.792
		v-1.395h0.765v1.395H257.673z"/>
	<path fill="#FFFFFF" d="M259.194,71.529c0.072,0.116,0.167,0.21,0.283,0.278c0.117,0.069,0.249,0.119,0.396,0.148
		c0.147,0.03,0.298,0.045,0.455,0.045c0.12,0,0.246-0.009,0.378-0.026c0.132-0.019,0.253-0.051,0.365-0.1
		c0.111-0.048,0.203-0.118,0.274-0.211s0.108-0.212,0.108-0.355c0-0.198-0.075-0.348-0.225-0.45
		c-0.15-0.102-0.337-0.185-0.562-0.247c-0.225-0.063-0.469-0.12-0.733-0.172c-0.264-0.051-0.508-0.122-0.733-0.216
		c-0.225-0.093-0.413-0.224-0.562-0.392s-0.225-0.401-0.225-0.702c0-0.233,0.053-0.435,0.158-0.603s0.24-0.305,0.405-0.409
		c0.165-0.105,0.351-0.184,0.558-0.234s0.413-0.076,0.617-0.076c0.264,0,0.507,0.022,0.729,0.067
		c0.222,0.045,0.418,0.123,0.589,0.233c0.171,0.111,0.307,0.262,0.409,0.45c0.102,0.189,0.162,0.425,0.18,0.707h-0.765
		c-0.012-0.15-0.051-0.274-0.117-0.374c-0.066-0.099-0.15-0.178-0.252-0.238c-0.102-0.06-0.215-0.104-0.338-0.131
		c-0.123-0.026-0.247-0.04-0.373-0.04c-0.114,0-0.229,0.009-0.347,0.027c-0.117,0.018-0.224,0.049-0.319,0.094
		c-0.096,0.045-0.174,0.105-0.234,0.181s-0.09,0.172-0.09,0.292c0,0.132,0.046,0.242,0.14,0.329
		c0.093,0.087,0.211,0.158,0.355,0.216c0.144,0.057,0.306,0.104,0.486,0.144s0.36,0.08,0.54,0.122
		c0.192,0.042,0.379,0.093,0.562,0.152c0.183,0.061,0.345,0.14,0.486,0.239c0.141,0.099,0.255,0.223,0.342,0.373
		s0.13,0.336,0.13,0.558c0,0.282-0.059,0.517-0.175,0.702c-0.117,0.187-0.27,0.336-0.459,0.45s-0.402,0.193-0.639,0.238
		c-0.237,0.045-0.473,0.067-0.707,0.067c-0.258,0-0.504-0.026-0.738-0.081c-0.234-0.054-0.441-0.142-0.621-0.265
		c-0.18-0.123-0.324-0.285-0.432-0.486s-0.168-0.445-0.18-0.733h0.765C259.083,71.27,259.122,71.412,259.194,71.529z"/>
</g>
<g>
	<path fill="#FFFFFF" d="M309.377,3.586l2.024,5.399l2.035-5.399h1.17v6.426h-0.811V4.666h-0.018l-2.008,5.346h-0.729l-2.008-5.346
		h-0.018v5.346h-0.81V3.586H309.377z"/>
	<path fill="#FFFFFF" d="M315.884,6.731c0.096-0.297,0.24-0.555,0.432-0.774c0.191-0.219,0.43-0.392,0.711-0.518
		c0.282-0.126,0.605-0.188,0.973-0.188c0.371,0,0.697,0.062,0.977,0.188c0.278,0.126,0.514,0.299,0.706,0.518
		c0.192,0.22,0.336,0.478,0.433,0.774c0.096,0.297,0.143,0.616,0.143,0.958s-0.047,0.66-0.143,0.954
		c-0.097,0.294-0.24,0.551-0.433,0.77s-0.428,0.391-0.706,0.513c-0.279,0.123-0.605,0.185-0.977,0.185
		c-0.367,0-0.69-0.062-0.973-0.185c-0.281-0.122-0.52-0.294-0.711-0.513s-0.336-0.476-0.432-0.77s-0.145-0.612-0.145-0.954
		S315.788,7.028,315.884,6.731z M316.662,8.441c0.075,0.219,0.179,0.402,0.311,0.549c0.132,0.147,0.286,0.26,0.464,0.338
		c0.176,0.078,0.363,0.116,0.562,0.116c0.197,0,0.385-0.038,0.562-0.116c0.176-0.078,0.331-0.19,0.463-0.338
		c0.132-0.146,0.235-0.33,0.311-0.549s0.113-0.47,0.113-0.752c0-0.281-0.038-0.532-0.113-0.751s-0.179-0.403-0.311-0.554
		s-0.287-0.264-0.463-0.342c-0.178-0.078-0.365-0.117-0.562-0.117c-0.199,0-0.387,0.039-0.562,0.117
		c-0.178,0.078-0.332,0.191-0.464,0.342s-0.235,0.335-0.311,0.554s-0.112,0.47-0.112,0.751
		C316.55,7.972,316.587,8.223,316.662,8.441z"/>
	<path fill="#FFFFFF" d="M323.236,5.358v0.676h-0.927v2.889c0,0.09,0.008,0.162,0.022,0.216s0.044,0.096,0.085,0.126
		c0.043,0.03,0.101,0.05,0.176,0.059s0.172,0.014,0.293,0.014h0.351v0.675h-0.585c-0.197,0-0.367-0.014-0.508-0.04
		c-0.142-0.027-0.256-0.077-0.343-0.149c-0.087-0.071-0.151-0.174-0.193-0.306s-0.063-0.306-0.063-0.521V6.034h-0.791V5.358h0.791
		V3.964h0.766v1.395H323.236z"/>
	<path fill="#FFFFFF" d="M324.218,4.521V3.586h0.766v0.936H324.218z M324.983,5.358v4.653h-0.766V5.358H324.983z"/>
	<path fill="#FFFFFF" d="M326.152,6.731c0.097-0.297,0.24-0.555,0.433-0.774c0.191-0.219,0.429-0.392,0.711-0.518
		c0.281-0.126,0.605-0.188,0.972-0.188c0.372,0,0.697,0.062,0.977,0.188c0.278,0.126,0.515,0.299,0.706,0.518
		c0.192,0.22,0.336,0.478,0.433,0.774c0.096,0.297,0.144,0.616,0.144,0.958s-0.048,0.66-0.144,0.954
		c-0.097,0.294-0.24,0.551-0.433,0.77c-0.191,0.219-0.428,0.391-0.706,0.513c-0.279,0.123-0.604,0.185-0.977,0.185
		c-0.366,0-0.69-0.062-0.972-0.185c-0.282-0.122-0.52-0.294-0.711-0.513c-0.192-0.219-0.336-0.476-0.433-0.77
		c-0.096-0.294-0.144-0.612-0.144-0.954S326.057,7.028,326.152,6.731z M326.931,8.441c0.075,0.219,0.179,0.402,0.311,0.549
		c0.133,0.147,0.287,0.26,0.464,0.338s0.364,0.116,0.562,0.116s0.386-0.038,0.562-0.116s0.331-0.19,0.464-0.338
		c0.131-0.146,0.234-0.33,0.311-0.549c0.074-0.219,0.112-0.47,0.112-0.752c0-0.281-0.038-0.532-0.112-0.751
		c-0.076-0.219-0.18-0.403-0.311-0.554c-0.133-0.15-0.287-0.264-0.464-0.342s-0.364-0.117-0.562-0.117s-0.386,0.039-0.562,0.117
		s-0.331,0.191-0.464,0.342c-0.132,0.15-0.235,0.335-0.311,0.554c-0.074,0.219-0.112,0.47-0.112,0.751
		C326.818,7.972,326.856,8.223,326.931,8.441z"/>
	<path fill="#FFFFFF" d="M332.236,5.358v0.738h0.019c0.317-0.563,0.821-0.846,1.512-0.846c0.306,0,0.561,0.042,0.765,0.126
		s0.369,0.201,0.495,0.351c0.126,0.15,0.215,0.329,0.266,0.536s0.076,0.437,0.076,0.688v3.06h-0.765v-3.15
		c0-0.288-0.084-0.516-0.252-0.684s-0.399-0.252-0.693-0.252c-0.233,0-0.437,0.036-0.607,0.108
		c-0.171,0.071-0.313,0.174-0.427,0.306c-0.115,0.132-0.2,0.286-0.258,0.463c-0.057,0.178-0.085,0.371-0.085,0.581v2.628h-0.765
		V5.358H332.236z"/>
</g>
<g>
	<path fill="#FFFFFF" d="M487.708,36.086c0.99,0,1.752,0.252,2.285,0.756c0.535,0.504,0.802,1.272,0.802,2.304
		c0,0.54-0.06,1.019-0.181,1.436c-0.119,0.417-0.306,0.769-0.558,1.053c-0.252,0.285-0.573,0.503-0.963,0.653
		c-0.39,0.149-0.853,0.225-1.386,0.225h-2.205v-6.426H487.708z M487.78,41.792c0.096,0,0.215-0.008,0.359-0.022
		c0.145-0.016,0.297-0.051,0.459-0.108c0.162-0.057,0.322-0.14,0.481-0.247c0.159-0.108,0.302-0.255,0.428-0.441
		c0.126-0.186,0.229-0.418,0.311-0.697s0.122-0.616,0.122-1.013c0-0.384-0.038-0.728-0.113-1.03s-0.197-0.562-0.369-0.774
		c-0.171-0.213-0.391-0.375-0.661-0.485c-0.271-0.111-0.603-0.167-0.999-0.167h-1.439v4.986H487.78z"/>
	<path fill="#FFFFFF" d="M495.097,42.215c-0.348,0.264-0.786,0.396-1.314,0.396c-0.371,0-0.694-0.06-0.967-0.18
		c-0.273-0.12-0.503-0.288-0.689-0.504c-0.186-0.216-0.325-0.474-0.418-0.774c-0.094-0.3-0.146-0.627-0.157-0.98
		c0-0.354,0.054-0.678,0.161-0.972c0.109-0.294,0.26-0.55,0.455-0.766s0.426-0.384,0.693-0.504c0.267-0.12,0.559-0.18,0.877-0.18
		c0.414,0,0.758,0.085,1.031,0.256c0.272,0.171,0.491,0.389,0.656,0.653c0.165,0.264,0.279,0.552,0.342,0.863
		c0.063,0.312,0.089,0.609,0.077,0.892h-3.483c-0.006,0.204,0.018,0.397,0.072,0.58c0.054,0.184,0.141,0.345,0.261,0.486
		c0.12,0.141,0.272,0.253,0.459,0.337s0.405,0.126,0.657,0.126c0.324,0,0.59-0.074,0.797-0.225s0.344-0.378,0.409-0.684h0.756
		C495.669,41.558,495.444,41.951,495.097,42.215z M494.912,39.227c-0.069-0.162-0.162-0.302-0.278-0.418
		c-0.117-0.117-0.256-0.21-0.414-0.279c-0.16-0.069-0.336-0.104-0.527-0.104c-0.197,0-0.377,0.034-0.535,0.104
		c-0.159,0.069-0.296,0.163-0.41,0.283c-0.113,0.12-0.203,0.26-0.27,0.419s-0.105,0.328-0.117,0.508h2.674
		C495.021,39.56,494.981,39.389,494.912,39.227z"/>
	<path fill="#FFFFFF" d="M498.003,42.512l-1.728-4.653h0.854l1.306,3.879h0.019l1.269-3.879h0.801l-1.701,4.653H498.003z"/>
	<path fill="#FFFFFF" d="M504.61,42.215c-0.349,0.264-0.787,0.396-1.314,0.396c-0.372,0-0.695-0.06-0.968-0.18
		s-0.503-0.288-0.688-0.504s-0.326-0.474-0.418-0.774c-0.094-0.3-0.146-0.627-0.158-0.98c0-0.354,0.055-0.678,0.162-0.972
		c0.108-0.294,0.26-0.55,0.455-0.766c0.194-0.216,0.426-0.384,0.692-0.504s0.56-0.18,0.878-0.18c0.414,0,0.758,0.085,1.03,0.256
		s0.491,0.389,0.657,0.653c0.164,0.264,0.279,0.552,0.342,0.863c0.062,0.312,0.088,0.609,0.076,0.892h-3.482
		c-0.006,0.204,0.018,0.397,0.072,0.58c0.053,0.184,0.141,0.345,0.26,0.486c0.121,0.141,0.273,0.253,0.459,0.337
		c0.187,0.084,0.406,0.126,0.658,0.126c0.324,0,0.589-0.074,0.796-0.225s0.344-0.378,0.409-0.684h0.756
		C505.183,41.558,504.958,41.951,504.61,42.215z M504.425,39.227c-0.068-0.162-0.162-0.302-0.278-0.418
		c-0.117-0.117-0.255-0.21-0.414-0.279s-0.335-0.104-0.526-0.104c-0.198,0-0.377,0.034-0.535,0.104
		c-0.16,0.069-0.297,0.163-0.41,0.283c-0.114,0.12-0.204,0.26-0.27,0.419c-0.066,0.159-0.105,0.328-0.117,0.508h2.673
		C504.534,39.56,504.494,39.389,504.425,39.227z"/>
	<path fill="#FFFFFF" d="M507.049,36.086v6.426h-0.765v-6.426H507.049z"/>
	<path fill="#FFFFFF" d="M508.218,39.231c0.097-0.297,0.24-0.555,0.433-0.774c0.192-0.219,0.429-0.392,0.711-0.518
		s0.606-0.188,0.972-0.188c0.373,0,0.697,0.062,0.977,0.188s0.515,0.299,0.707,0.518c0.191,0.22,0.336,0.478,0.432,0.774
		s0.145,0.616,0.145,0.958s-0.049,0.66-0.145,0.954s-0.24,0.551-0.432,0.77c-0.192,0.219-0.428,0.391-0.707,0.513
		c-0.279,0.123-0.604,0.185-0.977,0.185c-0.365,0-0.689-0.062-0.972-0.185c-0.282-0.122-0.519-0.294-0.711-0.513
		s-0.336-0.476-0.433-0.77c-0.096-0.294-0.143-0.612-0.143-0.954S508.122,39.528,508.218,39.231z M508.997,40.941
		c0.074,0.219,0.178,0.402,0.311,0.549c0.132,0.147,0.286,0.26,0.463,0.338c0.178,0.078,0.365,0.116,0.562,0.116
		c0.198,0,0.386-0.038,0.562-0.116c0.178-0.078,0.332-0.19,0.464-0.338c0.132-0.146,0.235-0.33,0.311-0.549s0.112-0.47,0.112-0.752
		c0-0.281-0.037-0.532-0.112-0.751s-0.179-0.403-0.311-0.554s-0.286-0.264-0.464-0.342c-0.177-0.078-0.364-0.117-0.562-0.117
		c-0.197,0-0.385,0.039-0.562,0.117c-0.177,0.078-0.331,0.191-0.463,0.342c-0.133,0.15-0.236,0.335-0.311,0.554
		c-0.075,0.219-0.113,0.47-0.113,0.751C508.884,40.472,508.922,40.723,508.997,40.941z"/>
	<path fill="#FFFFFF" d="M514.374,37.858v0.63h0.019c0.126-0.258,0.323-0.445,0.594-0.562c0.271-0.116,0.567-0.175,0.892-0.175
		c0.359,0,0.673,0.065,0.939,0.197c0.268,0.133,0.489,0.311,0.666,0.536c0.178,0.225,0.311,0.484,0.4,0.778s0.136,0.606,0.136,0.936
		c0,0.33-0.044,0.643-0.131,0.937s-0.219,0.551-0.396,0.77c-0.178,0.219-0.399,0.392-0.666,0.518
		c-0.268,0.126-0.578,0.188-0.932,0.188c-0.114,0-0.242-0.012-0.383-0.035c-0.141-0.024-0.28-0.063-0.418-0.117
		c-0.139-0.055-0.27-0.128-0.393-0.221s-0.227-0.208-0.31-0.347h-0.019v2.395h-0.765v-6.427H514.374z M517.124,39.51
		c-0.057-0.207-0.145-0.391-0.262-0.553s-0.267-0.291-0.449-0.388c-0.184-0.096-0.398-0.144-0.644-0.144
		c-0.259,0-0.478,0.051-0.657,0.153c-0.18,0.102-0.327,0.235-0.441,0.4c-0.113,0.165-0.196,0.353-0.247,0.562
		c-0.052,0.21-0.077,0.423-0.077,0.639c0,0.229,0.027,0.448,0.082,0.661c0.054,0.214,0.139,0.401,0.256,0.562
		c0.117,0.162,0.269,0.293,0.455,0.392c0.186,0.1,0.41,0.148,0.675,0.148c0.264,0,0.484-0.051,0.661-0.152
		c0.178-0.103,0.32-0.237,0.428-0.405s0.186-0.36,0.234-0.576c0.047-0.216,0.072-0.438,0.072-0.666
		C517.21,39.929,517.181,39.717,517.124,39.51z"/>
	<path fill="#FFFFFF" d="M519.729,37.858v0.685h0.018c0.348-0.528,0.85-0.792,1.503-0.792c0.288,0,0.55,0.06,0.783,0.18
		s0.399,0.324,0.495,0.612c0.156-0.252,0.361-0.447,0.616-0.585c0.255-0.139,0.536-0.207,0.842-0.207
		c0.233,0,0.445,0.025,0.634,0.076c0.189,0.051,0.352,0.131,0.486,0.238c0.135,0.108,0.24,0.248,0.314,0.419
		c0.076,0.171,0.113,0.376,0.113,0.616v3.411h-0.766v-3.051c0-0.145-0.012-0.279-0.035-0.405c-0.024-0.126-0.069-0.235-0.135-0.328
		c-0.066-0.094-0.158-0.167-0.275-0.221s-0.268-0.081-0.454-0.081c-0.378,0-0.675,0.108-0.892,0.324
		c-0.215,0.216-0.323,0.504-0.323,0.863v2.898h-0.765v-3.051c0-0.15-0.014-0.288-0.041-0.414s-0.074-0.235-0.14-0.329
		c-0.065-0.093-0.154-0.164-0.265-0.216c-0.111-0.051-0.254-0.076-0.428-0.076c-0.223,0-0.413,0.045-0.572,0.135
		c-0.158,0.09-0.287,0.198-0.387,0.324s-0.171,0.257-0.216,0.392c-0.046,0.135-0.067,0.247-0.067,0.337v2.898h-0.766v-4.653H519.729
		z"/>
	<path fill="#FFFFFF" d="M530.07,42.215c-0.349,0.264-0.786,0.396-1.313,0.396c-0.373,0-0.695-0.06-0.969-0.18
		c-0.272-0.12-0.502-0.288-0.688-0.504c-0.187-0.216-0.326-0.474-0.419-0.774c-0.093-0.3-0.146-0.627-0.157-0.98
		c0-0.354,0.054-0.678,0.162-0.972c0.107-0.294,0.26-0.55,0.454-0.766s0.426-0.384,0.692-0.504c0.268-0.12,0.561-0.18,0.879-0.18
		c0.413,0,0.757,0.085,1.029,0.256c0.273,0.171,0.492,0.389,0.658,0.653c0.164,0.264,0.278,0.552,0.342,0.863
		c0.062,0.312,0.088,0.609,0.076,0.892h-3.483c-0.006,0.204,0.019,0.397,0.072,0.58c0.054,0.184,0.141,0.345,0.261,0.486
		c0.12,0.141,0.273,0.253,0.459,0.337s0.405,0.126,0.657,0.126c0.324,0,0.589-0.074,0.796-0.225s0.344-0.378,0.41-0.684h0.756
		C530.644,41.558,530.418,41.951,530.07,42.215z M529.886,39.227c-0.069-0.162-0.162-0.302-0.279-0.418
		c-0.117-0.117-0.255-0.21-0.414-0.279c-0.158-0.069-0.334-0.104-0.526-0.104c-0.198,0-0.376,0.034-0.535,0.104
		s-0.296,0.163-0.409,0.283c-0.115,0.12-0.205,0.26-0.271,0.419s-0.104,0.328-0.117,0.508h2.673
		C529.995,39.56,529.954,39.389,529.886,39.227z"/>
	<path fill="#FFFFFF" d="M532.419,37.858v0.738h0.018c0.318-0.563,0.822-0.846,1.513-0.846c0.306,0,0.561,0.042,0.765,0.126
		s0.369,0.201,0.495,0.351c0.126,0.15,0.214,0.329,0.266,0.536c0.051,0.207,0.077,0.437,0.077,0.688v3.06h-0.766v-3.15
		c0-0.288-0.084-0.516-0.252-0.684s-0.399-0.252-0.693-0.252c-0.234,0-0.436,0.036-0.607,0.108
		c-0.171,0.071-0.313,0.174-0.428,0.306c-0.113,0.132-0.199,0.286-0.256,0.463c-0.057,0.178-0.086,0.371-0.086,0.581v2.628h-0.765
		v-4.653H532.419z"/>
	<path fill="#FFFFFF" d="M538.782,37.858v0.676h-0.928v2.889c0,0.09,0.008,0.162,0.023,0.216c0.014,0.054,0.043,0.096,0.085,0.126
		s0.101,0.05,0.175,0.059c0.076,0.009,0.173,0.014,0.293,0.014h0.352v0.675h-0.586c-0.197,0-0.367-0.014-0.508-0.04
		c-0.141-0.027-0.256-0.077-0.342-0.149c-0.088-0.071-0.152-0.174-0.193-0.306c-0.043-0.132-0.063-0.306-0.063-0.521v-2.961h-0.792
		v-0.676h0.792v-1.395h0.765v1.395H538.782z"/>
</g>
<g>
	<path fill="#FFFFFF" d="M311.532,67.052c-0.326-0.229-0.715-0.343-1.165-0.343c-0.384,0-0.712,0.072-0.985,0.217
		c-0.273,0.144-0.498,0.337-0.676,0.58c-0.176,0.243-0.307,0.521-0.391,0.832c-0.084,0.312-0.126,0.637-0.126,0.973
		c0,0.366,0.042,0.712,0.126,1.039s0.215,0.612,0.391,0.855c0.178,0.243,0.404,0.437,0.68,0.58c0.276,0.145,0.606,0.216,0.99,0.216
		c0.282,0,0.533-0.046,0.752-0.139c0.219-0.094,0.408-0.223,0.566-0.388c0.159-0.165,0.283-0.361,0.374-0.589
		c0.09-0.229,0.144-0.475,0.162-0.738h0.854c-0.084,0.81-0.363,1.439-0.837,1.89s-1.122,0.675-1.944,0.675
		c-0.498,0-0.933-0.085-1.305-0.256s-0.681-0.406-0.927-0.707c-0.246-0.3-0.431-0.653-0.554-1.062s-0.184-0.846-0.184-1.314
		c0-0.468,0.065-0.907,0.197-1.318s0.326-0.77,0.58-1.075c0.256-0.306,0.573-0.548,0.955-0.725c0.381-0.177,0.816-0.266,1.309-0.266
		c0.336,0,0.654,0.045,0.954,0.135c0.3,0.091,0.567,0.223,0.802,0.396c0.233,0.174,0.428,0.392,0.584,0.652s0.258,0.562,0.307,0.904
		h-0.855C312.071,67.621,311.86,67.279,311.532,67.052z"/>
	<path fill="#FFFFFF" d="M314.003,69.288c0.096-0.297,0.24-0.555,0.432-0.774c0.192-0.219,0.43-0.392,0.711-0.518
		c0.283-0.126,0.606-0.188,0.973-0.188c0.372,0,0.697,0.062,0.977,0.188s0.514,0.299,0.707,0.518
		c0.191,0.22,0.336,0.478,0.432,0.774s0.144,0.616,0.144,0.958s-0.048,0.66-0.144,0.954s-0.24,0.551-0.432,0.77
		c-0.193,0.219-0.428,0.391-0.707,0.513c-0.279,0.123-0.604,0.185-0.977,0.185c-0.366,0-0.689-0.062-0.973-0.185
		c-0.281-0.122-0.519-0.294-0.711-0.513c-0.191-0.219-0.336-0.476-0.432-0.77s-0.144-0.612-0.144-0.954
		S313.907,69.585,314.003,69.288z M314.782,70.998c0.074,0.219,0.178,0.402,0.311,0.549c0.131,0.147,0.285,0.26,0.463,0.338
		c0.177,0.078,0.364,0.116,0.562,0.116c0.197,0,0.385-0.038,0.562-0.116c0.177-0.078,0.332-0.19,0.463-0.338
		c0.133-0.146,0.236-0.33,0.311-0.549c0.076-0.219,0.113-0.47,0.113-0.752c0-0.281-0.037-0.532-0.113-0.751
		c-0.074-0.219-0.178-0.403-0.311-0.554c-0.131-0.15-0.286-0.264-0.463-0.342c-0.178-0.078-0.365-0.117-0.562-0.117
		c-0.198,0-0.386,0.039-0.562,0.117c-0.178,0.078-0.332,0.191-0.463,0.342c-0.133,0.15-0.236,0.335-0.311,0.554
		c-0.076,0.219-0.113,0.47-0.113,0.751C314.669,70.528,314.706,70.779,314.782,70.998z"/>
	<path fill="#FFFFFF" d="M320.087,67.915V68.6h0.018c0.349-0.528,0.85-0.792,1.504-0.792c0.287,0,0.549,0.06,0.783,0.18
		c0.233,0.12,0.398,0.324,0.494,0.612c0.156-0.252,0.361-0.447,0.617-0.585c0.254-0.139,0.535-0.207,0.842-0.207
		c0.233,0,0.445,0.025,0.634,0.076s0.351,0.131,0.485,0.238c0.136,0.108,0.24,0.248,0.315,0.419s0.112,0.376,0.112,0.616v3.411
		h-0.765v-3.051c0-0.145-0.013-0.279-0.036-0.405s-0.068-0.235-0.135-0.328c-0.066-0.094-0.158-0.167-0.274-0.221
		c-0.117-0.054-0.269-0.081-0.454-0.081c-0.379,0-0.676,0.108-0.892,0.324s-0.323,0.504-0.323,0.863v2.898h-0.766v-3.051
		c0-0.15-0.014-0.288-0.041-0.414c-0.026-0.126-0.073-0.235-0.139-0.329c-0.066-0.093-0.154-0.164-0.266-0.216
		c-0.111-0.051-0.254-0.076-0.428-0.076c-0.223,0-0.412,0.045-0.571,0.135s-0.288,0.198-0.388,0.324
		c-0.099,0.126-0.17,0.257-0.215,0.392c-0.046,0.135-0.068,0.247-0.068,0.337v2.898h-0.765v-4.653H320.087z"/>
	<path fill="#FFFFFF" d="M327.927,67.915v0.63h0.018c0.126-0.258,0.324-0.445,0.594-0.562c0.27-0.116,0.566-0.175,0.891-0.175
		c0.36,0,0.674,0.065,0.941,0.197c0.267,0.133,0.488,0.311,0.666,0.536c0.176,0.225,0.311,0.484,0.4,0.778s0.135,0.606,0.135,0.936
		c0,0.33-0.044,0.643-0.131,0.937s-0.219,0.551-0.396,0.77c-0.176,0.219-0.398,0.392-0.666,0.518
		c-0.267,0.126-0.576,0.188-0.931,0.188c-0.114,0-0.241-0.012-0.383-0.035c-0.142-0.024-0.28-0.063-0.419-0.117
		c-0.138-0.055-0.268-0.128-0.391-0.221s-0.227-0.208-0.311-0.347h-0.018v2.395h-0.766v-6.427H327.927z M330.676,69.566
		c-0.058-0.207-0.144-0.391-0.261-0.553s-0.268-0.291-0.45-0.388c-0.183-0.096-0.397-0.144-0.644-0.144
		c-0.258,0-0.477,0.051-0.657,0.153c-0.181,0.102-0.327,0.235-0.44,0.4c-0.115,0.165-0.197,0.353-0.248,0.562
		s-0.076,0.423-0.076,0.639c0,0.229,0.027,0.448,0.08,0.661c0.055,0.214,0.141,0.401,0.258,0.562
		c0.116,0.162,0.268,0.293,0.453,0.392c0.187,0.1,0.412,0.148,0.676,0.148s0.484-0.051,0.662-0.152
		c0.176-0.103,0.318-0.237,0.427-0.405s0.187-0.36,0.233-0.576c0.049-0.216,0.072-0.438,0.072-0.666
		C330.761,69.985,330.732,69.773,330.676,69.566z"/>
	<path fill="#FFFFFF" d="M333.146,71.529c0.072,0.116,0.167,0.21,0.283,0.278c0.117,0.069,0.25,0.119,0.396,0.148
		c0.146,0.03,0.299,0.045,0.455,0.045c0.119,0,0.246-0.009,0.377-0.026c0.133-0.019,0.254-0.051,0.365-0.1
		c0.111-0.048,0.203-0.118,0.274-0.211s0.108-0.212,0.108-0.355c0-0.198-0.076-0.348-0.226-0.45
		c-0.149-0.102-0.337-0.185-0.562-0.247c-0.225-0.063-0.47-0.12-0.733-0.172c-0.264-0.051-0.508-0.122-0.733-0.216
		c-0.226-0.093-0.413-0.224-0.562-0.392s-0.226-0.401-0.226-0.702c0-0.233,0.053-0.435,0.158-0.603s0.24-0.305,0.404-0.409
		c0.166-0.105,0.352-0.184,0.559-0.234s0.412-0.076,0.617-0.076c0.264,0,0.506,0.022,0.729,0.067
		c0.222,0.045,0.418,0.123,0.59,0.233c0.17,0.111,0.307,0.262,0.408,0.45c0.103,0.189,0.162,0.425,0.181,0.707h-0.765
		c-0.012-0.15-0.051-0.274-0.117-0.374c-0.066-0.099-0.15-0.178-0.252-0.238c-0.102-0.06-0.215-0.104-0.338-0.131
		c-0.123-0.026-0.247-0.04-0.373-0.04c-0.114,0-0.229,0.009-0.347,0.027c-0.117,0.018-0.224,0.049-0.319,0.094
		s-0.174,0.105-0.234,0.181s-0.09,0.172-0.09,0.292c0,0.132,0.047,0.242,0.14,0.329s0.212,0.158,0.355,0.216
		c0.144,0.057,0.306,0.104,0.485,0.144c0.181,0.039,0.36,0.08,0.541,0.122c0.191,0.042,0.379,0.093,0.562,0.152
		c0.183,0.061,0.344,0.14,0.485,0.239c0.142,0.099,0.255,0.223,0.343,0.373c0.086,0.15,0.13,0.336,0.13,0.558
		c0,0.282-0.059,0.517-0.175,0.702c-0.117,0.187-0.271,0.336-0.459,0.45c-0.189,0.114-0.402,0.193-0.64,0.238
		s-0.473,0.067-0.706,0.067c-0.258,0-0.504-0.026-0.738-0.081c-0.234-0.054-0.441-0.142-0.621-0.265s-0.324-0.285-0.432-0.486
		c-0.108-0.201-0.168-0.445-0.181-0.733h0.765C333.034,71.27,333.073,71.412,333.146,71.529z"/>
</g>
<g>
	<path fill="#FFFFFF" d="M511.927,75.933c-20.794,0-37.711-16.917-37.711-37.71s16.917-37.71,37.711-37.71
		c20.793,0,37.71,16.917,37.71,37.71S532.72,75.933,511.927,75.933z M511.927,2.512c-19.691,0-35.711,16.02-35.711,35.71
		s16.02,35.71,35.711,35.71c19.69,0,35.71-16.02,35.71-35.71S531.617,2.512,511.927,2.512z"/>
</g>
</svg>
