<svg width="112" height="24" viewBox="0 0 112 24" fill="none" xmlns="http://www.w3.org/2000/svg">
<g clip-path="url(#clip0_267_14010)">
<path d="M23.9846 12L10.5723 17.1473L0 21.2064L6.77942 12L0 2.79358L10.5723 6.85274L23.9846 12Z" fill="#2D9BAD"/>
<path d="M27.6656 0H45.0444C51.7466 0 53.4135 2.92476 53.4135 5.53698V5.88424C53.4135 8.81286 50.863 10.5839 49.1035 10.8077C51.7466 11.1859 54.5788 13.146 54.5788 16.8887V17.236C54.5788 20.4116 52.6572 24 45.137 24H27.6617V0H27.6656ZM35.0315 4.93891V9.06367H43.2193C45.1717 9.06367 45.7698 8.11833 45.7698 7.01479C45.7698 5.88424 45.1408 4.93505 43.2193 4.93505H35.0315V4.93891ZM35.0315 13.9486V18.4669H43.7209C46.0167 18.4669 46.6495 17.3055 46.6495 16.1055V16.0862C46.6495 14.9248 46.0206 13.9486 43.7209 13.9486H35.0315Z" fill="#00243D"/>
<path d="M65.6566 0L75.5306 13.4045V0H82.8965V24H74.2225L64.4798 10.773V24H57.1216V0H65.6605H65.6566Z" fill="#00243D"/>
<path d="M93.1485 14.0103L82.8308 0H91.9408L97.1151 7.02637L102.289 0H111.399L101.082 14.0103V24H93.1485V14.0103Z" fill="#00243D"/>
</g>
<defs>
<clipPath id="clip0_267_14010">
<rect width="112" height="24" fill="white"/>
</clipPath>
</defs>
</svg>
