<svg width="876" height="1168" viewBox="0 0 876 1168" fill="none" xmlns="http://www.w3.org/2000/svg">
<path d="M363.856 153.062C349.648 153.062 338.768 141.99 338.768 127.91C338.768 113.83 349.648 102.758 363.856 102.758C367.76 102.758 371.408 103.654 374.608 105.318V117.158C371.92 114.918 368.464 113.638 364.496 113.638C356.304 113.638 350.288 119.718 350.288 127.91C350.288 136.102 356.304 142.182 364.496 142.182C368.464 142.182 371.92 140.902 374.608 138.662V150.502C371.408 152.166 367.76 153.062 363.856 153.062Z" fill="white"/>
<path d="M381.303 152.038V120.038H391.095V123.878C391.671 123.174 392.375 122.47 393.079 121.958C394.999 120.486 397.367 119.654 399.991 119.654C401.143 119.654 402.295 119.782 403.383 119.974V129.83C402.423 129.51 401.335 129.382 400.119 129.382C397.751 129.382 395.703 130.214 394.295 131.622C392.823 133.094 392.055 135.078 392.055 138.598V152.038H381.303Z" fill="white"/>
<path d="M408.999 168.294L420.135 146.15L405.351 120.038H417.511L425.767 135.27H425.831L433.127 120.038H444.519L420.391 168.294H408.999Z" fill="white"/>
<path d="M448.428 168.294V120.038H458.22V122.854C460.652 120.422 463.916 119.014 467.628 119.014C476.78 119.014 483.82 126.502 483.82 136.038C483.82 145.574 476.78 153.062 467.628 153.062C464.428 153.062 461.484 151.974 459.18 150.118V168.294H448.428ZM465.836 143.334C469.804 143.334 472.748 140.262 472.748 136.038C472.748 131.814 469.804 128.742 465.836 128.742C461.868 128.742 458.924 131.814 458.924 136.038C458.924 140.262 461.868 143.334 465.836 143.334Z" fill="white"/>
<path d="M492.019 152.038V128.678H485.939V120.038H492.019V109.158H502.771V120.038H509.939V128.678H502.771V152.038H492.019Z" fill="white"/>
<path d="M529.557 153.062C519.317 153.062 511.573 145.574 511.573 136.038C511.573 126.502 519.317 119.014 529.557 119.014C539.797 119.014 547.541 126.502 547.541 136.038C547.541 145.574 539.797 153.062 529.557 153.062ZM529.557 143.334C533.589 143.334 536.469 140.198 536.469 136.038C536.469 131.878 533.589 128.742 529.557 128.742C525.525 128.742 522.645 131.878 522.645 136.038C522.645 140.198 525.525 143.334 529.557 143.334Z" fill="white"/>
<path d="M125.6 286.038V255.878H133.24C136.4 255.878 138.44 256.798 139.92 258.278C141.44 259.798 142.36 261.878 142.36 264.198C142.36 266.318 141.4 268.358 139.88 269.638C142.72 271.078 144.48 273.918 144.48 277.238C144.48 279.718 143.52 281.878 141.92 283.478C140.36 285.078 138.12 286.038 134.84 286.038H125.6ZM130.4 268.358H132.52C134.48 268.358 135.48 267.918 136.2 267.198C136.92 266.478 137.4 265.438 137.4 264.278C137.4 263.078 136.92 262.038 136.2 261.358C135.48 260.598 134.48 260.198 132.52 260.198H130.4V268.358ZM130.4 281.718H134.12C136.24 281.718 137.36 281.238 138.2 280.398C139 279.598 139.52 278.478 139.52 277.118C139.52 275.798 139 274.638 138.2 273.838C137.36 272.998 136.24 272.518 134.12 272.518H130.4V281.718Z" fill="white"/>
<path d="M156.905 286.558C154.345 286.558 152.185 285.598 150.665 284.118C149.305 282.798 148.545 280.998 148.545 278.238V266.678H153.145V277.998C153.145 279.718 153.505 280.518 154.105 281.118C154.785 281.798 155.785 282.198 156.905 282.198C158.065 282.198 159.065 281.798 159.745 281.118C160.345 280.518 160.705 279.718 160.705 277.998V266.678H165.305V278.238C165.305 280.998 164.505 282.798 163.145 284.118C161.625 285.598 159.465 286.558 156.905 286.558Z" fill="white"/>
<path d="M170.299 296.198L177.099 282.798L168.059 266.678H173.219L179.459 278.038H179.499L185.139 266.678H190.059L175.259 296.198H170.299Z" fill="white"/>
<path d="M291.4 286.558C286.28 286.558 282.08 283.318 281.2 278.918L286.04 278.078C286.56 280.318 288.76 281.958 291.4 281.958C294.4 281.958 296.48 279.878 296.48 277.198C296.48 275.438 295.48 273.678 292.92 272.758L288.76 271.278C284.52 269.758 282.64 266.638 282.64 263.318C282.64 258.878 286.32 255.358 291.24 255.358C294.88 255.358 297.84 257.278 299.16 260.118L294.76 262.278C294.24 260.918 292.96 259.958 291.24 259.958C289.16 259.958 287.6 261.398 287.6 263.318C287.6 264.518 288.16 265.878 290.32 266.678L294.56 268.198C299.2 269.878 301.44 273.438 301.44 277.198C301.44 282.398 297.2 286.558 291.4 286.558Z" fill="white"/>
<path d="M314.372 286.558C308.612 286.558 304.332 282.118 304.332 276.398C304.332 270.558 308.372 266.158 313.892 266.158C319.412 266.158 323.452 270.558 323.452 276.358C323.452 276.878 323.412 277.398 323.292 277.918H308.972C309.372 280.438 311.612 282.278 314.452 282.278C316.572 282.278 318.332 281.158 319.252 279.478L323.012 281.678C321.252 284.598 318.132 286.558 314.372 286.558ZM308.972 274.358H318.772C318.492 271.918 316.572 270.158 313.892 270.158C311.252 270.158 309.252 271.918 308.972 274.358Z" fill="white"/>
<path d="M327.803 286.038V254.918H332.403V286.038H327.803Z" fill="white"/>
<path d="M338.194 286.038V254.918H342.794V286.038H338.194Z" fill="white"/>
<path d="M445.4 286.558C440.28 286.558 436.08 283.318 435.2 278.918L440.04 278.078C440.56 280.318 442.76 281.958 445.4 281.958C448.4 281.958 450.48 279.878 450.48 277.198C450.48 275.438 449.48 273.678 446.92 272.758L442.76 271.278C438.52 269.758 436.64 266.638 436.64 263.318C436.64 258.878 440.32 255.358 445.24 255.358C448.88 255.358 451.84 257.278 453.16 260.118L448.76 262.278C448.24 260.918 446.96 259.958 445.24 259.958C443.16 259.958 441.6 261.398 441.6 263.318C441.6 264.518 442.16 265.878 444.32 266.678L448.56 268.198C453.2 269.878 455.44 273.438 455.44 277.198C455.44 282.398 451.2 286.558 445.4 286.558Z" fill="white"/>
<path d="M468.372 286.558C462.612 286.558 458.332 282.118 458.332 276.398C458.332 270.558 462.372 266.158 467.892 266.158C473.412 266.158 477.452 270.558 477.452 276.358C477.452 276.878 477.412 277.398 477.292 277.918H462.972C463.372 280.438 465.612 282.278 468.452 282.278C470.572 282.278 472.332 281.158 473.252 279.478L477.012 281.678C475.252 284.598 472.132 286.558 468.372 286.558ZM462.972 274.358H472.772C472.492 271.918 470.572 270.158 467.892 270.158C465.252 270.158 463.252 271.918 462.972 274.358Z" fill="white"/>
<path d="M481.803 286.038V266.678H486.083V268.198C487.363 266.958 489.163 266.158 491.203 266.158C493.323 266.158 495.203 266.998 496.563 268.358C498.003 269.798 498.843 271.758 498.843 274.758V286.038H494.243V275.158C494.243 273.238 493.803 272.238 493.123 271.558C492.443 270.838 491.443 270.438 490.323 270.438C489.203 270.438 488.243 270.838 487.523 271.558C486.803 272.278 486.403 273.238 486.403 275.158V286.038H481.803Z" fill="white"/>
<path d="M512.741 286.558C507.181 286.558 502.941 282.038 502.941 276.358C502.941 270.678 507.181 266.158 512.741 266.158C514.981 266.158 516.981 266.958 518.501 268.358V254.918H523.101V286.038H518.781V284.158C517.221 285.678 515.141 286.558 512.741 286.558ZM513.261 282.198C516.461 282.198 518.821 279.678 518.821 276.358C518.821 273.038 516.461 270.518 513.261 270.518C510.061 270.518 507.701 273.038 507.701 276.358C507.701 279.678 510.061 282.198 513.261 282.198Z" fill="white"/>
<path d="M617.6 286.038V255.878H625.56C628.92 255.878 631.16 256.878 632.76 258.478C634.4 260.078 635.36 262.318 635.36 264.798C635.36 266.838 634.72 268.758 633.56 270.278C632.4 271.758 630.8 272.878 628.84 273.398L637.16 286.038H631.56L623.6 273.758H622.4V286.038H617.6ZM622.4 269.398H625.04C627.16 269.398 628.28 268.878 629.12 268.078C629.92 267.278 630.4 266.158 630.4 264.878C630.4 263.558 629.92 262.438 629.12 261.638C628.28 260.798 627.16 260.318 625.04 260.318H622.4V269.398Z" fill="white"/>
<path d="M648.02 286.558C642.26 286.558 637.98 282.118 637.98 276.398C637.98 270.558 642.02 266.158 647.54 266.158C653.06 266.158 657.1 270.558 657.1 276.358C657.1 276.878 657.06 277.398 656.94 277.918H642.62C643.02 280.438 645.26 282.278 648.1 282.278C650.22 282.278 651.98 281.158 652.9 279.478L656.66 281.678C654.9 284.598 651.78 286.558 648.02 286.558ZM642.62 274.358H652.42C652.14 271.918 650.22 270.158 647.54 270.158C644.9 270.158 642.9 271.918 642.62 274.358Z" fill="white"/>
<path d="M670.331 286.558C664.451 286.558 660.011 282.038 660.011 276.358C660.011 270.678 664.451 266.158 670.331 266.158C672.131 266.158 673.771 266.598 675.211 267.398V272.278C674.051 271.158 672.451 270.518 670.651 270.518C667.291 270.518 664.771 273.038 664.771 276.358C664.771 279.718 667.291 282.198 670.651 282.198C672.451 282.198 674.051 281.558 675.211 280.438V285.318C673.771 286.118 672.131 286.558 670.331 286.558Z" fill="white"/>
<path d="M688.02 286.558C682.26 286.558 677.98 282.118 677.98 276.398C677.98 270.558 682.02 266.158 687.54 266.158C693.06 266.158 697.1 270.558 697.1 276.358C697.1 276.878 697.06 277.398 696.94 277.918H682.62C683.02 280.438 685.26 282.278 688.1 282.278C690.22 282.278 691.98 281.158 692.9 279.478L696.66 281.678C694.9 284.598 691.78 286.558 688.02 286.558ZM682.62 274.358H692.42C692.14 271.918 690.22 270.158 687.54 270.158C684.9 270.158 682.9 271.918 682.62 274.358Z" fill="white"/>
<path d="M703.731 263.798C702.091 263.798 700.731 262.438 700.731 260.798C700.731 259.158 702.091 257.798 703.731 257.798C705.371 257.798 706.691 259.158 706.691 260.798C706.691 262.438 705.371 263.798 703.731 263.798ZM701.411 286.038V266.678H706.011V286.038H701.411Z" fill="white"/>
<path d="M709.043 266.678H714.043L719.323 277.518H719.363L724.603 266.678H729.563L719.283 287.398L709.043 266.678Z" fill="white"/>
<path d="M739.856 286.558C734.096 286.558 729.816 282.118 729.816 276.398C729.816 270.558 733.856 266.158 739.376 266.158C744.896 266.158 748.936 270.558 748.936 276.358C748.936 276.878 748.896 277.398 748.776 277.918H734.456C734.856 280.438 737.096 282.278 739.936 282.278C742.056 282.278 743.816 281.158 744.736 279.478L748.496 281.678C746.736 284.598 743.616 286.558 739.856 286.558ZM734.456 274.358H744.256C743.976 271.918 742.056 270.158 739.376 270.158C736.736 270.158 734.736 271.918 734.456 274.358Z" fill="white"/>
<path opacity="0.2" d="M112 406.039H764" stroke="white" stroke-width="2"/>
<path opacity="0.2" d="M112 562.039H764" stroke="white" stroke-width="2"/>
<path opacity="0.2" d="M112 718.039H764" stroke="white" stroke-width="2"/>
<path opacity="0.2" d="M112 874.039H764" stroke="white" stroke-width="2"/>
<path opacity="0.2" d="M112 1030.04H764" stroke="white" stroke-width="2"/>
<rect x="112" y="438.039" width="80" height="80" rx="40" fill="white"/>
<path fill-rule="evenodd" clip-rule="evenodd" d="M149.153 455.621C152.122 455.621 155.714 455.621 159.084 455.621C159.123 455.621 159.162 455.623 159.201 455.625C163.284 455.899 167.159 457.016 170.039 459.473C172.98 461.983 174.666 465.704 174.666 470.697C174.666 474.422 173.714 477.416 172.087 479.76C170.467 482.095 168.255 483.677 165.905 484.716C161.996 486.443 157.563 486.735 154.28 486.449L151.935 499.564C151.786 500.399 151.06 501.006 150.212 501.006H137.885C137.373 501.006 136.887 500.782 136.555 500.393C136.222 500.004 136.077 499.489 136.157 498.983L139.635 476.959H134.585C133.618 476.959 132.835 476.176 132.835 475.209C132.835 474.243 133.618 473.459 134.585 473.459H140.188L141.061 467.933H136.269C135.302 467.933 134.519 467.15 134.519 466.183C134.519 465.217 135.302 464.433 136.269 464.433H141.613L142.772 457.098C142.906 456.248 143.639 455.621 144.5 455.621C145.664 455.622 147.285 455.621 149.153 455.621ZM144.604 467.933L143.731 473.459H158.812C158.831 473.459 158.85 473.459 158.869 473.46C159.439 473.478 160.271 473.341 160.899 472.933C161.418 472.596 161.927 472.005 161.927 470.697C161.927 469.243 161.402 468.732 160.951 468.461C160.349 468.099 159.543 467.987 158.755 467.933H144.604ZM143.178 476.959L139.933 497.506H148.747L151.127 484.198C151.296 483.253 152.195 482.62 153.142 482.781C155.997 483.265 160.646 483.213 164.49 481.514C166.384 480.677 168.033 479.464 169.211 477.765C170.382 476.077 171.166 473.8 171.166 470.697C171.166 466.557 169.807 463.876 167.768 462.136C165.678 460.353 162.658 459.373 159.024 459.121C155.671 459.121 152.105 459.121 149.155 459.121C147.989 459.121 146.918 459.121 145.996 459.121L145.157 464.433H158.812C158.85 464.433 158.888 464.434 158.925 464.437C159.74 464.489 161.344 464.613 162.755 465.461C164.331 466.409 165.427 468.102 165.427 470.697C165.427 473.195 164.315 474.887 162.807 475.868C161.422 476.768 159.838 476.988 158.786 476.959H143.178Z" fill="black"/>
<path d="M232 490.615V454.423H244.384C248.704 454.423 251.728 455.719 253.84 457.879C256 460.087 257.296 463.063 257.296 466.375C257.296 469.687 256 472.663 253.84 474.871C251.728 477.031 248.704 478.327 244.384 478.327H240.4V490.615H232ZM240.4 470.887H243.184C245.44 470.887 246.544 470.359 247.36 469.591C248.176 468.823 248.656 467.671 248.656 466.375C248.656 465.079 248.176 463.927 247.36 463.159C246.544 462.391 245.44 461.863 243.184 461.863H240.4V470.887Z" fill="white"/>
<path d="M270.018 491.383C263.154 491.383 257.874 485.767 257.874 478.615C257.874 471.463 263.154 465.847 270.018 465.847C272.754 465.847 275.202 466.903 277.026 468.679V466.615H284.37V490.615H277.026V488.551C275.202 490.327 272.754 491.383 270.018 491.383ZM271.361 484.087C274.338 484.087 276.546 481.783 276.546 478.615C276.546 475.447 274.338 473.143 271.361 473.143C268.385 473.143 266.178 475.447 266.178 478.615C266.178 481.783 268.385 484.087 271.361 484.087Z" fill="white"/>
<path d="M289.552 502.807L297.904 486.199L286.816 466.615H295.936L302.128 478.039H302.176L307.648 466.615H316.192L298.096 502.807H289.552Z" fill="white"/>
<path d="M319.844 490.615V454.423H332.228C336.548 454.423 339.572 455.719 341.684 457.879C343.844 460.087 345.14 463.063 345.14 466.375C345.14 469.687 343.844 472.663 341.684 474.871C339.572 477.031 336.548 478.327 332.228 478.327H328.244V490.615H319.844ZM328.244 470.887H331.028C333.284 470.887 334.388 470.359 335.204 469.591C336.02 468.823 336.5 467.671 336.5 466.375C336.5 465.079 336.02 463.927 335.204 463.159C334.388 462.391 333.284 461.863 331.028 461.863H328.244V470.887Z" fill="white"/>
<path d="M357.861 491.383C350.997 491.383 345.717 485.767 345.717 478.615C345.717 471.463 350.997 465.847 357.861 465.847C360.597 465.847 363.045 466.903 364.869 468.679V466.615H372.213V490.615H364.869V488.551C363.045 490.327 360.597 491.383 357.861 491.383ZM359.205 484.087C362.181 484.087 364.389 481.783 364.389 478.615C364.389 475.447 362.181 473.143 359.205 473.143C356.229 473.143 354.021 475.447 354.021 478.615C354.021 481.783 356.229 484.087 359.205 484.087Z" fill="white"/>
<path d="M377.577 490.615V453.271H385.641V490.615H377.577Z" fill="white"/>
<path d="M415.81 491.383C411.202 491.383 407.218 489.703 404.53 487.015C402.226 484.711 400.882 481.687 400.882 477.415V454.423H409.282V476.215C409.282 478.855 409.858 480.247 410.962 481.351C412.114 482.503 413.794 483.223 415.81 483.223C417.826 483.223 419.506 482.503 420.658 481.351C421.762 480.247 422.338 478.855 422.338 476.215V454.423H430.738V477.415C430.738 481.687 429.394 484.711 427.09 487.015C424.402 489.703 420.418 491.383 415.81 491.383Z" fill="white"/>
<path d="M447.546 491.383C441.882 491.383 437.034 489.079 433.818 485.479L439.626 479.719C441.546 481.783 444.282 483.223 447.546 483.223C450.138 483.223 452.057 482.071 452.057 480.007C452.057 477.895 449.514 476.887 446.49 475.735L444.09 474.823C439.866 473.239 435.786 470.215 435.786 464.743C435.786 458.551 441.21 453.655 448.266 453.655C452.778 453.655 456.762 455.239 459.594 457.783L454.505 463.879C452.921 462.535 450.858 461.575 448.458 461.575C446.106 461.575 444.426 462.535 444.426 464.263C444.426 466.039 446.682 466.903 449.322 467.863L451.434 468.631C455.85 470.215 460.697 473.143 460.697 479.767C460.697 486.439 454.986 491.383 447.546 491.383Z" fill="white"/>
<path d="M465.249 490.615V454.423H476.193C482.241 454.423 486.801 456.439 490.017 459.655C493.329 462.967 495.249 467.431 495.249 472.519C495.249 477.607 493.329 482.071 490.017 485.383C486.801 488.599 482.241 490.615 476.193 490.615H465.249ZM473.601 482.695H475.473C479.361 482.695 481.857 481.639 483.729 479.767C485.505 477.991 486.609 475.447 486.609 472.519C486.609 469.591 485.505 467.047 483.729 465.271C481.857 463.399 479.361 462.343 475.473 462.343H473.601V482.695Z" fill="white"/>
<rect x="112" y="594.039" width="80" height="80" rx="40" fill="white"/>
<path d="M163.202 633.715C164.807 632.807 166.116 631.456 166.975 629.825C167.834 628.193 168.207 626.349 168.048 624.512C167.889 622.675 167.206 620.922 166.08 619.462C164.954 618.002 163.432 616.896 161.696 616.276L162.576 612.846C162.691 612.396 162.623 611.919 162.387 611.52C162.151 611.12 161.765 610.831 161.316 610.716C160.866 610.601 160.389 610.668 159.99 610.905C159.59 611.141 159.301 611.527 159.186 611.976L158.316 615.366L154.926 614.497L155.796 611.106C155.911 610.657 155.843 610.18 155.607 609.78C155.37 609.381 154.985 609.092 154.535 608.976C154.086 608.861 153.609 608.929 153.209 609.165C152.81 609.402 152.521 609.787 152.405 610.237L151.536 613.627L144.755 611.887C144.306 611.772 143.829 611.84 143.429 612.076C143.03 612.313 142.741 612.698 142.625 613.148C142.51 613.597 142.578 614.074 142.814 614.474C143.051 614.873 143.436 615.162 143.886 615.278L145.581 615.712L138.188 644.529L136.493 644.094C136.043 643.979 135.566 644.047 135.167 644.283C134.767 644.52 134.478 644.905 134.363 645.355C134.248 645.804 134.315 646.281 134.552 646.681C134.788 647.08 135.174 647.369 135.623 647.485L142.404 649.224L141.534 652.614C141.418 653.064 141.486 653.541 141.723 653.94C141.959 654.34 142.344 654.629 142.794 654.744C143.244 654.86 143.721 654.792 144.12 654.555C144.519 654.319 144.809 653.934 144.924 653.484L145.794 650.094L149.184 650.964L148.314 654.354C148.199 654.803 148.267 655.28 148.503 655.68C148.74 656.079 149.125 656.368 149.574 656.484C150.024 656.599 150.501 656.531 150.9 656.295C151.3 656.058 151.589 655.673 151.704 655.224L152.574 651.833L154.269 652.268C156.62 652.871 159.107 652.641 161.308 651.618C163.508 650.594 165.286 648.839 166.339 646.653C167.392 644.466 167.655 641.982 167.083 639.623C166.511 637.265 165.14 635.177 163.202 633.715ZM164.4 626.864C163.996 628.437 162.984 629.786 161.586 630.613C160.188 631.44 158.519 631.678 156.945 631.275L145.927 628.448L148.971 616.582L159.989 619.409C161.563 619.812 162.911 620.825 163.738 622.223C164.566 623.621 164.804 625.29 164.4 626.864ZM155.139 648.878L141.578 645.399L145.057 631.838L158.618 635.317C160.416 635.778 161.958 636.935 162.903 638.533C163.848 640.131 164.12 642.039 163.659 643.837C163.198 645.635 162.041 647.177 160.443 648.122C158.845 649.067 156.937 649.339 155.139 648.878Z" fill="black"/>
<path d="M232 651.822V615.63H244.96C248.608 615.63 251.008 616.686 252.736 618.414C254.464 620.142 255.568 622.542 255.52 625.23C255.52 627.726 254.56 630.03 252.976 631.71C255.904 633.63 257.728 636.798 257.728 640.398C257.68 643.566 256.432 646.494 254.416 648.51C252.352 650.574 249.52 651.822 245.344 651.822H232ZM240.4 629.55H242.56C244.48 629.55 245.344 629.166 245.92 628.59C246.496 628.014 246.88 627.15 246.88 626.19C246.88 625.23 246.496 624.366 245.92 623.79C245.344 623.214 244.48 622.83 242.56 622.83H240.4V629.55ZM240.4 644.622H243.952C246.112 644.622 247.12 644.142 247.888 643.422C248.656 642.702 249.088 641.646 249.088 640.446C249.088 639.246 248.656 638.19 247.888 637.47C247.12 636.75 246.112 636.27 243.952 636.27H240.4V644.622Z" fill="white"/>
<path d="M265.876 624.606C263.38 624.606 261.316 622.542 261.316 620.046C261.316 617.55 263.38 615.486 265.876 615.486C268.372 615.486 270.436 617.55 270.436 620.046C270.436 622.542 268.372 624.606 265.876 624.606ZM261.844 651.822V627.822H269.908V651.822H261.844Z" fill="white"/>
<path d="M278.225 651.822V634.302H273.665V627.822H278.225V619.662H286.289V627.822H291.665V634.302H286.289V651.822H278.225Z" fill="white"/>
<path d="M305.898 652.59C298.506 652.59 292.89 646.974 292.89 639.822C292.89 632.67 298.506 627.054 305.898 627.054C307.77 627.054 309.498 627.438 311.082 628.11V635.886C310.026 634.926 308.538 634.35 306.858 634.35C303.546 634.35 301.194 636.702 301.194 639.822C301.194 642.942 303.546 645.294 306.858 645.294C308.538 645.294 310.026 644.718 311.082 643.758V651.534C309.498 652.206 307.77 652.59 305.898 652.59Z" fill="white"/>
<path d="M327.097 652.59C319.417 652.59 313.609 646.974 313.609 639.822C313.609 632.67 319.417 627.054 327.097 627.054C334.777 627.054 340.585 632.67 340.585 639.822C340.585 646.974 334.777 652.59 327.097 652.59ZM327.097 645.294C330.121 645.294 332.281 642.942 332.281 639.822C332.281 636.702 330.121 634.35 327.097 634.35C324.073 634.35 321.913 636.702 321.913 639.822C321.913 642.942 324.073 645.294 327.097 645.294Z" fill="white"/>
<path d="M348.657 624.606C346.161 624.606 344.097 622.542 344.097 620.046C344.097 617.55 346.161 615.486 348.657 615.486C351.153 615.486 353.217 617.55 353.217 620.046C353.217 622.542 351.153 624.606 348.657 624.606ZM344.625 651.822V627.822H352.689V651.822H344.625Z" fill="white"/>
<path d="M358.078 651.822V627.822H365.422V629.838C366.958 628.158 369.262 627.102 372.142 627.054C374.926 627.006 377.422 628.062 379.198 629.838C380.926 631.566 381.982 634.062 381.982 638.046V651.822H373.918V639.054C373.918 636.99 373.534 636.03 372.814 635.31C372.142 634.638 371.182 634.254 370.03 634.254C368.878 634.254 367.918 634.638 367.246 635.31C366.526 636.03 366.142 636.99 366.142 639.054V651.822H358.078Z" fill="white"/>
<rect x="112" y="750.039" width="80" height="80" rx="40" fill="white"/>
<path d="M172.626 788.958L153.376 764.458C153.212 764.249 153.003 764.081 152.765 763.965C152.526 763.849 152.265 763.789 152 763.789C151.735 763.789 151.473 763.849 151.235 763.965C150.997 764.081 150.788 764.249 150.624 764.458L131.374 788.958C131.132 789.266 131 789.646 131 790.038C131 790.43 131.132 790.811 131.374 791.119L150.624 815.619C150.788 815.827 150.997 815.996 151.235 816.112C151.473 816.227 151.735 816.288 152 816.288C152.265 816.288 152.526 816.227 152.765 816.112C153.003 815.996 153.212 815.827 153.376 815.619L172.626 791.119C172.868 790.811 172.999 790.43 172.999 790.038C172.999 789.646 172.868 789.266 172.626 788.958ZM153.75 770.598L168.498 789.367L153.75 796.071V770.598ZM150.25 796.071L135.502 789.367L150.25 770.598V796.071ZM150.25 799.915V809.479L138.562 794.604L150.25 799.915ZM153.75 799.915L165.438 794.601L153.75 809.476V799.915Z" fill="black"/>
<path d="M232 808.326V772.134H252.256V779.814H240.256V786.438H252.016V793.878H240.256V800.646H252.256V808.326H232Z" fill="white"/>
<path d="M260.037 808.326V790.806H255.477V784.326H260.037V776.166H268.101V784.326H273.477V790.806H268.101V808.326H260.037Z" fill="white"/>
<path d="M276.844 808.326V770.982H284.908V785.67C286.396 784.374 288.46 783.606 290.908 783.558C293.692 783.51 296.188 784.566 297.964 786.342C299.692 788.07 300.748 790.566 300.748 794.55V808.326H292.684V795.558C292.684 793.494 292.3 792.534 291.58 791.814C290.908 791.142 289.948 790.758 288.796 790.758C287.644 790.758 286.684 791.142 286.012 791.814C285.292 792.534 284.908 793.494 284.908 795.558V808.326H276.844Z" fill="white"/>
<path d="M317.474 809.094C309.938 809.094 304.562 803.718 304.562 796.326C304.562 788.934 309.698 783.558 317.042 783.558C324.386 783.558 329.522 788.934 329.522 796.326C329.522 797.046 329.474 797.718 329.378 798.39H312.626C312.962 800.742 315.026 802.374 317.714 802.374C319.874 802.374 321.65 801.27 322.466 799.638L328.706 802.806C326.546 806.55 322.466 809.094 317.474 809.094ZM312.626 793.302H321.458C321.122 791.286 319.346 789.798 317.042 789.798C314.738 789.798 312.962 791.286 312.626 793.302Z" fill="white"/>
<path d="M333.562 808.326V784.326H340.906V787.206C341.338 786.678 341.866 786.15 342.394 785.766C343.834 784.662 345.61 784.038 347.578 784.038C348.442 784.038 349.306 784.134 350.122 784.278V791.67C349.402 791.43 348.586 791.334 347.674 791.334C345.898 791.334 344.362 791.958 343.306 793.014C342.202 794.118 341.626 795.606 341.626 798.246V808.326H333.562Z" fill="white"/>
<path d="M364.771 809.094C357.235 809.094 351.859 803.718 351.859 796.326C351.859 788.934 356.995 783.558 364.339 783.558C371.683 783.558 376.819 788.934 376.819 796.326C376.819 797.046 376.771 797.718 376.675 798.39H359.923C360.259 800.742 362.323 802.374 365.011 802.374C367.171 802.374 368.947 801.27 369.763 799.638L376.003 802.806C373.843 806.55 369.763 809.094 364.771 809.094ZM359.923 793.302H368.755C368.419 791.286 366.643 789.798 364.339 789.798C362.035 789.798 360.259 791.286 359.923 793.302Z" fill="white"/>
<path d="M392.235 809.094C388.587 809.094 385.323 807.75 383.259 805.638C381.531 803.91 380.571 801.75 380.571 798.39V784.326H388.635V797.718C388.635 799.494 388.923 800.214 389.499 800.79C390.123 801.414 391.083 801.798 392.235 801.798C393.387 801.798 394.347 801.414 394.971 800.79C395.547 800.214 395.835 799.494 395.835 797.718V784.326H403.899V798.39C403.899 801.75 402.939 803.91 401.211 805.638C399.099 807.75 395.883 809.094 392.235 809.094Z" fill="white"/>
<path d="M408.984 808.326V784.326H416.328V786.198C417.816 784.518 420.072 783.558 422.76 783.558C425.784 783.558 428.376 784.758 430.104 786.822C431.976 784.758 434.712 783.558 438.024 783.558C440.76 783.558 443.112 784.518 444.84 786.246C446.568 787.974 447.576 790.374 447.576 794.262V808.326H439.512V795.222C439.512 793.302 439.128 792.39 438.504 791.766C437.832 791.094 436.968 790.758 435.912 790.758C434.856 790.758 433.992 791.094 433.32 791.766C432.696 792.39 432.312 793.302 432.312 795.222V808.326H424.248V795.222C424.248 793.302 423.864 792.39 423.24 791.766C422.568 791.094 421.704 790.758 420.648 790.758C419.592 790.758 418.728 791.094 418.056 791.766C417.432 792.39 417.048 793.302 417.048 795.222V808.326H408.984Z" fill="white"/>
<rect x="112" y="906.039" width="80" height="80" rx="40" fill="white"/>
<path d="M153.406 926.478C153.672 925.549 153.134 924.58 152.205 924.314C151.276 924.048 150.307 924.586 150.041 925.515L144.113 946.232L135.005 949.217C134.086 949.518 133.586 950.506 133.887 951.425C134.188 952.343 135.176 952.844 136.095 952.543L142.95 950.296L139.05 963.925C138.899 964.453 139.005 965.021 139.335 965.46C139.666 965.898 140.183 966.156 140.733 966.156H168.431C169.397 966.156 170.181 965.373 170.181 964.406C170.181 963.44 169.397 962.656 168.431 962.656H143.054L146.967 948.979L157.245 945.611C158.164 945.31 158.664 944.322 158.363 943.403C158.062 942.485 157.074 941.984 156.155 942.285L148.13 944.915L153.406 926.478Z" fill="black"/>
<path d="M232 963.822V927.63H240.4V955.902H252.256V963.822H232Z" fill="white"/>
<path d="M260.25 936.606C257.754 936.606 255.69 934.542 255.69 932.046C255.69 929.55 257.754 927.486 260.25 927.486C262.746 927.486 264.81 929.55 264.81 932.046C264.81 934.542 262.746 936.606 260.25 936.606ZM256.218 963.822V939.822H264.282V963.822H256.218Z" fill="white"/>
<path d="M272.599 963.822V946.302H268.039V939.822H272.599V931.662H280.663V939.822H286.039V946.302H280.663V963.822H272.599Z" fill="white"/>
<path d="M300.176 964.59C292.64 964.59 287.264 959.214 287.264 951.822C287.264 944.43 292.4 939.054 299.744 939.054C307.088 939.054 312.224 944.43 312.224 951.822C312.224 952.542 312.176 953.214 312.08 953.886H295.328C295.664 956.238 297.728 957.87 300.416 957.87C302.576 957.87 304.352 956.766 305.168 955.134L311.408 958.302C309.248 962.046 305.168 964.59 300.176 964.59ZM295.328 948.798H304.16C303.824 946.782 302.048 945.294 299.744 945.294C297.44 945.294 295.664 946.782 295.328 948.798Z" fill="white"/>
<path d="M327.928 964.59C320.536 964.59 314.92 958.974 314.92 951.822C314.92 944.67 320.536 939.054 327.928 939.054C329.8 939.054 331.528 939.438 333.112 940.11V947.886C332.056 946.926 330.568 946.35 328.888 946.35C325.576 946.35 323.224 948.702 323.224 951.822C323.224 954.942 325.576 957.294 328.888 957.294C330.568 957.294 332.056 956.718 333.112 955.758V963.534C331.528 964.206 329.8 964.59 327.928 964.59Z" fill="white"/>
<path d="M349.127 964.59C341.447 964.59 335.639 958.974 335.639 951.822C335.639 944.67 341.447 939.054 349.127 939.054C356.807 939.054 362.615 944.67 362.615 951.822C362.615 958.974 356.807 964.59 349.127 964.59ZM349.127 957.294C352.151 957.294 354.311 954.942 354.311 951.822C354.311 948.702 352.151 946.35 349.127 946.35C346.103 946.35 343.943 948.702 343.943 951.822C343.943 954.942 346.103 957.294 349.127 957.294Z" fill="white"/>
<path d="M370.687 936.606C368.191 936.606 366.127 934.542 366.127 932.046C366.127 929.55 368.191 927.486 370.687 927.486C373.183 927.486 375.247 929.55 375.247 932.046C375.247 934.542 373.183 936.606 370.687 936.606ZM366.655 963.822V939.822H374.719V963.822H366.655Z" fill="white"/>
<path d="M380.108 963.822V939.822H387.452V941.838C388.988 940.158 391.292 939.102 394.172 939.054C396.956 939.006 399.452 940.062 401.228 941.838C402.956 943.566 404.012 946.062 404.012 950.046V963.822H395.948V951.054C395.948 948.99 395.564 948.03 394.844 947.31C394.172 946.638 393.212 946.254 392.06 946.254C390.908 946.254 389.948 946.638 389.276 947.31C388.556 948.03 388.172 948.99 388.172 951.054V963.822H380.108Z" fill="white"/>
</svg>
