<svg width="926" height="430" viewBox="0 0 926 430" fill="none" xmlns="http://www.w3.org/2000/svg">
<path fill-rule="evenodd" clip-rule="evenodd" d="M462.954 39.2754C415.113 14.5347 356.721 0 293.692 0C131.49 0 0 96.2585 0 214.999C0 333.74 131.49 429.999 293.692 429.999C357.052 429.999 415.726 415.311 463.707 390.333C463.456 390.463 463.205 390.593 462.954 390.723C387.679 351.795 338.524 287.599 338.524 214.999C338.524 142.399 387.678 78.2037 462.954 39.2754Z" fill="#1A3ACC"/>
<path fill-rule="evenodd" clip-rule="evenodd" d="M632.216 429.999C794.417 429.999 925.908 333.74 925.908 214.999C925.908 96.2585 794.417 0 632.216 0C569.187 0 510.795 14.5347 462.954 39.2753C538.229 78.2036 587.384 142.399 587.384 214.999C587.384 287.599 538.229 351.795 462.954 390.723C422.335 369.717 389.322 341.354 367.533 308.284C414.985 380.305 515.673 429.999 632.216 429.999ZM344.49 258.329C340.578 244.333 338.523 229.842 338.523 214.999C338.523 214.999 338.523 214.999 338.523 214.999C338.523 229.842 340.578 244.333 344.49 258.329Z" fill="#001C9B"/>
<path fill-rule="evenodd" clip-rule="evenodd" d="M138.956 32.2274C55.5407 70.1533 0 137.829 0 215.001C0 333.741 131.49 430 293.692 430C357.163 430 415.931 415.261 463.959 390.202C461.342 390.231 458.72 390.246 456.091 390.246C238.054 390.246 61.2996 289.794 61.2996 165.879C61.2996 115.803 90.1653 69.559 138.956 32.2274Z" fill="#001C9B"/>
<path fill-rule="evenodd" clip-rule="evenodd" d="M787.044 32.2274C870.459 70.1533 926 137.829 926 215.001C926 333.741 794.51 430 632.308 430C568.837 430 510.069 415.261 462.041 390.202C464.658 390.231 467.28 390.246 469.909 390.246C687.946 390.246 864.7 289.794 864.7 165.879C864.7 115.803 835.835 69.559 787.044 32.2274Z" fill="#1A3ACC"/>
</svg>
