<svg width="901" height="564" viewBox="0 0 901 564" fill="none" xmlns="http://www.w3.org/2000/svg">
<path d="M341.13 60.1148C463.594 92.9291 536.27 218.808 503.456 341.272C470.642 463.737 344.763 536.413 222.299 503.599C99.8339 470.784 27.1579 344.906 59.9722 222.441C92.7866 99.9764 218.665 27.3005 341.13 60.1148Z" fill="url(#paint0_radial_1520_6362)"/>
<path opacity="0.7" d="M181.367 264.384C181.367 198.491 199.893 181.509 264.242 181.509H299.189C363.537 181.509 382.063 200.035 382.063 264.384V299.331C382.063 365.223 360.45 382.205 299.189 382.205H264.242C202.981 382.205 181.367 362.136 181.367 299.331V264.384Z" fill="url(#paint1_linear_1520_6362)"/>
<path d="M577.604 359.441C566.244 359.441 557.232 355.73 550.568 348.309C544.055 340.735 540.798 329.981 540.798 316.047V260.611H520.351V242.889H541.253L545.569 205.629H561.246V242.889H593.962V260.611H561.246V317.637C561.246 326.422 563.064 332.556 566.699 336.04C570.485 339.524 574.954 341.265 580.103 341.265C583.89 341.265 587.449 340.66 590.782 339.448C594.265 338.236 597.446 336.797 600.324 335.131L606.004 351.489C602.974 353.307 598.885 355.049 593.735 356.715C588.585 358.532 583.208 359.441 577.604 359.441ZM678.691 359.441C668.846 359.441 659.909 356.942 651.882 351.944C643.854 346.945 637.417 339.902 632.57 330.814C627.874 321.575 625.527 310.745 625.527 298.325C625.527 286.511 627.874 275.908 632.57 266.518C637.417 257.127 644.005 249.705 652.336 244.252C660.818 238.648 670.512 235.846 681.417 235.846C688.233 235.846 694.367 237.058 699.82 239.481C705.424 241.753 710.271 244.631 714.361 248.115V238.572H732.991V328.088C732.991 333.844 734.354 337.63 737.08 339.448C739.958 341.114 743.063 341.947 746.395 341.947L742.079 357.851C727.538 357.851 718.753 351.944 715.724 340.129C712.24 344.976 707.469 349.445 701.41 353.534C695.503 357.472 687.93 359.441 678.691 359.441ZM683.235 341.265C688.99 341.265 694.443 339.902 699.593 337.176C704.743 334.298 709.059 330.739 712.543 326.498V263.11C708.454 260.232 703.91 257.96 698.911 256.294C694.064 254.476 688.915 253.567 683.462 253.567C676.192 253.567 669.754 255.461 664.15 259.247C658.697 262.883 654.381 268.032 651.2 274.697C648.019 281.21 646.429 288.859 646.429 297.644C646.429 306.126 648.019 313.699 651.2 320.363C654.381 326.876 658.773 332.026 664.377 335.813C669.982 339.448 676.267 341.265 683.235 341.265ZM832.599 359.441C821.391 359.441 811.318 356.866 802.382 351.717C793.445 346.415 786.402 339.145 781.252 329.906C776.254 320.515 773.755 309.761 773.755 297.644C773.755 284.921 776.33 273.939 781.48 264.7C786.629 255.461 793.673 248.342 802.609 243.344C811.545 238.345 821.542 235.846 832.599 235.846C843.656 235.846 853.577 238.345 862.362 243.344C871.298 248.342 878.341 255.461 883.491 264.7C888.792 273.788 891.443 284.618 891.443 297.189C891.443 309.761 888.868 320.742 883.718 330.133C878.568 339.372 871.525 346.567 862.589 351.717C853.804 356.866 843.807 359.441 832.599 359.441ZM832.599 341.265C844.565 341.265 853.88 337.252 860.544 329.224C867.209 321.045 870.541 310.518 870.541 297.644C870.541 289.767 868.875 282.573 865.542 276.06C862.21 269.396 857.666 264.094 851.911 260.156C846.306 256.067 839.869 254.022 832.599 254.022C820.633 254.022 811.318 257.96 804.654 265.836C797.989 273.712 794.657 284.163 794.657 297.189C794.657 305.065 796.323 312.411 799.655 319.227C802.988 325.892 807.456 331.269 813.06 335.358C818.816 339.296 825.329 341.265 832.599 341.265Z" fill="#F0F4F7"/>
<path d="M301.56 359.214C294.592 359.214 288.155 358.229 282.248 356.26C276.341 354.14 271.57 350.353 267.935 344.901C264.3 339.448 262.482 331.647 262.482 321.499V250.387H229.766V234.937H330.187V250.387H282.702V319.455C282.702 325.21 283.611 329.83 285.429 333.314C287.246 336.797 289.821 339.296 293.154 340.811C296.486 342.326 300.272 343.083 304.513 343.083C307.846 343.083 311.254 342.856 314.737 342.401C318.372 341.796 321.402 341.19 323.825 340.584V355.579C321.705 356.488 318.524 357.321 314.283 358.078C310.193 358.835 305.952 359.214 301.56 359.214Z" fill="#FF5E27"/>
<defs>
<radialGradient id="paint0_radial_1520_6362" cx="0" cy="0" r="1" gradientUnits="userSpaceOnUse" gradientTransform="translate(225.935 60.7196) rotate(63.7153) scale(343.163)">
<stop stop-color="white"/>
<stop offset="1" stop-color="#C4C4C4" stop-opacity="0"/>
</radialGradient>
<linearGradient id="paint1_linear_1520_6362" x1="181.367" y1="181.509" x2="382.063" y2="382.205" gradientUnits="userSpaceOnUse">
<stop offset="0.541667" stop-color="#0E0E10"/>
<stop offset="1" stop-color="#C7C7C7" stop-opacity="0"/>
</linearGradient>
</defs>
</svg>
