<svg width="513" height="298" viewBox="0 0 513 298" fill="none" xmlns="http://www.w3.org/2000/svg">
<g clip-path="url(#clip0_1530_4441)">
<path d="M508.249 0.995391H503.368C477.69 0.955398 456.85 21.7518 456.85 47.4273V151.269C456.85 172.006 439.711 188.803 419.312 188.803C407.193 188.803 395.094 182.704 387.914 172.466L281.858 20.9919C273.058 8.4141 258.738 0.915405 243.24 0.915405C219.06 0.915405 197.301 21.4719 197.301 46.8474V151.289C197.301 172.026 180.302 188.823 159.763 188.823C147.603 188.823 135.523 182.724 128.344 172.486L9.66817 2.97505C6.98827 -0.864282 0.968506 1.03539 0.968506 5.71457V96.2788C0.968506 100.858 2.36846 105.297 4.98835 109.057L121.784 275.848C128.684 285.706 138.864 293.025 150.603 295.684C179.982 302.363 207.021 279.747 207.021 250.932V146.55C207.021 125.814 223.82 109.017 244.559 109.017H244.618C257.118 109.017 268.839 115.116 276.018 125.354L382.094 276.808C390.914 289.405 404.492 296.884 420.693 296.884C445.411 296.884 466.591 276.308 466.591 250.952V146.53C466.591 125.794 483.389 108.997 504.129 108.997H508.268C510.868 108.997 512.969 106.897 512.969 104.298V5.69457C512.969 3.09503 510.868 0.995391 508.268 0.995391H508.249Z" fill="white"/>
</g>
<defs>
<clipPath id="clip0_1530_4441">
<rect width="512" height="297" fill="white" transform="translate(0.968506 0.852783)"/>
</clipPath>
</defs>
</svg>
