<svg width="203" height="74" viewBox="0 0 203 74" fill="none" xmlns="http://www.w3.org/2000/svg">
<path d="M181.135 46.1269C181.1 46.2304 181.003 46.3 180.894 46.3H174.874C174.77 46.3 174.677 46.2376 174.638 46.142L167.259 28.2007C167.19 28.0328 167.313 27.8486 167.494 27.8486H173.236C173.343 27.8486 173.438 27.9146 173.475 28.0141L177.918 39.8629C178.003 40.0889 178.325 40.0816 178.4 39.852L182.234 28.025C182.268 27.9199 182.366 27.8486 182.477 27.8486H188.26C188.369 27.8486 188.466 27.918 188.501 28.0211L192.429 39.5041C192.506 39.7303 192.824 39.7354 192.909 39.5118L197.258 28.0134C197.296 27.9143 197.391 27.8486 197.497 27.8486H202.621C202.802 27.8486 202.926 28.0317 202.858 28.1993L195.599 46.1406C195.56 46.237 195.467 46.3 195.363 46.3H189.886C189.779 46.3 189.683 46.2325 189.646 46.1312L185.514 34.6365C185.433 34.4093 185.111 34.4122 185.033 34.6408L181.135 46.1269Z" fill="#F9F7F2" style="fill:#F9F7F2;fill:color(display-p3 0.9765 0.9686 0.9490);fill-opacity:1;"/>
<path d="M153.709 27.5259H154.775C166.382 27.5259 167.746 33.3539 167.746 36.6524V37.3964C167.746 40.6452 166.407 46.6221 154.775 46.6221H153.709C142.028 46.6221 140.714 40.6452 140.714 37.3964V36.6524C140.714 33.3539 142.028 27.5259 153.709 27.5259ZM161.695 37.1732V36.826C161.695 34.718 160.479 31.9899 154.23 31.9899C147.881 31.9899 146.765 34.718 146.765 36.826V37.1236C146.765 39.2316 147.98 42.1332 154.23 42.1332C160.43 42.1332 161.695 39.306 161.695 37.1732Z" fill="#F9F7F2" style="fill:#F9F7F2;fill:color(display-p3 0.9765 0.9686 0.9490);fill-opacity:1;"/>
<path d="M116.282 46.3C116.142 46.3 116.027 46.1858 116.027 46.045V28.1037C116.027 27.9628 116.142 27.8486 116.282 27.8486H131.825C137.108 27.8486 138.571 29.8823 138.571 32.0647V32.4119C138.571 34.2108 137.434 35.1776 136.487 35.665C136.257 35.783 136.27 36.1933 136.51 36.2888C137.854 36.8244 139.612 38.025 139.612 40.6456V40.9928C139.612 43.8944 137.951 46.3 131.974 46.3H116.282ZM130.833 31.7423H122.061C121.92 31.7423 121.806 31.8565 121.806 31.9973V34.4881C121.806 34.6289 121.92 34.7431 122.061 34.7431H130.833C132.445 34.7431 132.842 33.9991 132.842 33.2551V33.2055C132.842 32.4367 132.445 31.7423 130.833 31.7423ZM131.329 38.6615H122.061C121.92 38.6615 121.806 38.7757 121.806 38.9166V42.0273C121.806 42.1682 121.92 42.2824 122.061 42.2824H131.329C133.239 42.2824 133.611 41.216 133.611 40.472V40.3728C133.611 39.5792 133.239 38.6615 131.329 38.6615Z" fill="#F9F7F2" style="fill:#F9F7F2;fill:color(display-p3 0.9765 0.9686 0.9490);fill-opacity:1;"/>
<path d="M96.4194 46.2233C96.3714 46.2724 96.3057 46.3 96.2371 46.3H89.8355C89.6092 46.3 89.495 46.0273 89.6537 45.8661L98.2268 37.154C98.3244 37.0547 98.3245 36.8955 98.2268 36.7962L89.8519 28.2825C89.6933 28.1213 89.8075 27.8486 90.0337 27.8486H97.0543C97.1236 27.8486 97.1899 27.8768 97.238 27.9267L102.187 33.0644C102.287 33.1685 102.454 33.1685 102.555 33.0644L107.504 27.9267C107.552 27.8768 107.618 27.8486 107.687 27.8486H114.063C114.289 27.8486 114.404 28.1212 114.245 28.2825L105.992 36.6746C105.895 36.7729 105.894 36.9303 105.989 37.0299L114.457 45.8685C114.612 46.0307 114.497 46.3 114.273 46.3H107.71C107.642 46.3 107.577 46.2727 107.529 46.2241L102.132 40.7559C102.031 40.6544 101.867 40.6548 101.768 40.7567L96.4194 46.2233Z" fill="#F9F7F2" style="fill:#F9F7F2;fill:color(display-p3 0.9765 0.9686 0.9490);fill-opacity:1;"/>
<path d="M0.000244141 35.3295C0.000244141 34.7661 0.456991 34.3094 1.02042 34.3094H19.1627C20.0836 34.3094 20.5331 33.1857 19.8664 32.5505L12.7421 25.7634C12.3249 25.366 12.3194 24.7022 12.7299 24.2979L15.0593 22.0039C15.4585 21.6106 16.1002 21.6131 16.4965 22.0093L30.8396 36.3524C31.238 36.7508 31.238 37.3968 30.8396 37.7952L16.4965 52.1383C16.1002 52.5345 15.4585 52.537 15.0593 52.1437L12.7299 49.8497C12.3194 49.4454 12.3249 48.7816 12.742 48.3842L19.8664 41.5971C20.5331 40.9619 20.0836 39.8382 19.1627 39.8382H1.02042C0.456991 39.8382 0.000244141 39.3815 0.000244141 38.8181V35.3295Z" fill="#F9F7F2" style="fill:#F9F7F2;fill:color(display-p3 0.9765 0.9686 0.9490);fill-opacity:1;"/>
<path d="M73.0974 38.8184C73.0974 39.3818 72.6407 39.8386 72.0772 39.8386L53.9349 39.8386C53.0141 39.8386 52.5645 40.9622 53.2313 41.5974L60.3556 48.3845C60.7728 48.7819 60.7783 49.4457 60.3678 49.85L58.0384 52.1441C57.6391 52.5373 56.9974 52.5349 56.6012 52.1386L42.2581 37.7955C41.8597 37.3971 41.8597 36.7512 42.2581 36.3528L56.6012 22.0097C56.9974 21.6134 57.6391 21.611 58.0384 22.0042L60.3678 24.2983C60.7783 24.7026 60.7728 25.3664 60.3556 25.7638L53.2313 32.5509C52.5645 33.1861 53.0141 34.3097 53.9349 34.3097L72.0772 34.3097C72.6407 34.3097 73.0974 34.7665 73.0974 35.3299L73.0974 38.8184Z" fill="#F9F7F2" style="fill:#F9F7F2;fill:color(display-p3 0.9765 0.9686 0.9490);fill-opacity:1;"/>
<path d="M38.2927 0.52539C38.8561 0.52539 39.3128 0.982137 39.3128 1.54556L39.3128 19.6879C39.3128 20.6087 40.4365 21.0583 41.0716 20.3915L47.8588 13.2672C48.2562 12.85 48.92 12.8445 49.3242 13.255L51.6183 15.5844C52.0116 15.9837 52.0091 16.6254 51.6128 17.0216L37.2698 31.3647C36.8714 31.7631 36.2254 31.7631 35.827 31.3647L21.4839 17.0216C21.0877 16.6254 21.0852 15.9837 21.4785 15.5844L23.7725 13.255C24.1768 12.8445 24.8406 12.85 25.238 13.2672L32.0251 20.3915C32.6603 21.0583 33.784 20.6087 33.784 19.6879L33.784 1.54556C33.784 0.982137 34.2407 0.52539 34.8041 0.52539L38.2927 0.52539Z" fill="#F9F7F2" style="fill:#F9F7F2;fill:color(display-p3 0.9765 0.9686 0.9490);fill-opacity:1;"/>
<path d="M34.8049 73.6226C34.2415 73.6226 33.7847 73.1658 33.7847 72.6024L33.7847 54.4601C33.7847 53.5392 32.6611 53.0897 32.0259 53.7564L25.2388 60.8808C24.8414 61.2979 24.1776 61.3034 23.7733 60.8929L21.4792 58.5635C21.086 58.1643 21.0884 57.5226 21.4847 57.1263L35.8278 42.7833C36.2262 42.3849 36.8721 42.3849 37.2705 42.7833L51.6136 57.1263C52.0099 57.5226 52.0123 58.1643 51.6191 58.5636L49.325 60.8929C48.9207 61.3034 48.2569 61.2979 47.8595 60.8808L41.0724 53.7564C40.4372 53.0897 39.3136 53.5392 39.3136 54.4601L39.3136 72.6024C39.3136 73.1658 38.8568 73.6226 38.2934 73.6226L34.8049 73.6226Z" fill="#F9F7F2" style="fill:#F9F7F2;fill:color(display-p3 0.9765 0.9686 0.9490);fill-opacity:1;"/>
</svg>
